G04 #@! TF.GenerationSoftware,KiCad,Pcbnew,(5.1.5-0-10_14)*
G04 #@! TF.CreationDate,2020-04-27T10:05:46+02:00*
G04 #@! TF.ProjectId,ESP8266-PowerMonitor,45535038-3236-4362-9d50-6f7765724d6f,rev?*
G04 #@! TF.SameCoordinates,Original*
G04 #@! TF.FileFunction,Legend,Bot*
G04 #@! TF.FilePolarity,Positive*
%FSLAX46Y46*%
G04 Gerber Fmt 4.6, Leading zero omitted, Abs format (unit mm)*
G04 Created by KiCad (PCBNEW (5.1.5-0-10_14)) date 2020-04-27 10:05:46*
%MOMM*%
%LPD*%
G04 APERTURE LIST*
%ADD10C,0.120000*%
%ADD11C,0.150000*%
G04 APERTURE END LIST*
D10*
X167590000Y-103885436D02*
X167590000Y-105089564D01*
X169410000Y-103885436D02*
X169410000Y-105089564D01*
X140310000Y-101502064D02*
X140310000Y-100297936D01*
X138490000Y-101502064D02*
X138490000Y-100297936D01*
X162090000Y-105114564D02*
X162090000Y-103910436D01*
X163910000Y-105114564D02*
X163910000Y-103910436D01*
X164790000Y-103885436D02*
X164790000Y-105089564D01*
X166610000Y-103885436D02*
X166610000Y-105089564D01*
D11*
X167132380Y-104320833D02*
X166656190Y-103987500D01*
X167132380Y-103749404D02*
X166132380Y-103749404D01*
X166132380Y-104130357D01*
X166180000Y-104225595D01*
X166227619Y-104273214D01*
X166322857Y-104320833D01*
X166465714Y-104320833D01*
X166560952Y-104273214D01*
X166608571Y-104225595D01*
X166656190Y-104130357D01*
X166656190Y-103749404D01*
X166465714Y-105177976D02*
X167132380Y-105177976D01*
X166084761Y-104939880D02*
X166799047Y-104701785D01*
X166799047Y-105320833D01*
X141577142Y-100733333D02*
X141624761Y-100685714D01*
X141672380Y-100542857D01*
X141672380Y-100447619D01*
X141624761Y-100304761D01*
X141529523Y-100209523D01*
X141434285Y-100161904D01*
X141243809Y-100114285D01*
X141100952Y-100114285D01*
X140910476Y-100161904D01*
X140815238Y-100209523D01*
X140720000Y-100304761D01*
X140672380Y-100447619D01*
X140672380Y-100542857D01*
X140720000Y-100685714D01*
X140767619Y-100733333D01*
X141672380Y-101685714D02*
X141672380Y-101114285D01*
X141672380Y-101400000D02*
X140672380Y-101400000D01*
X140815238Y-101304761D01*
X140910476Y-101209523D01*
X140958095Y-101114285D01*
X165272380Y-104345833D02*
X164796190Y-104012500D01*
X165272380Y-103774404D02*
X164272380Y-103774404D01*
X164272380Y-104155357D01*
X164320000Y-104250595D01*
X164367619Y-104298214D01*
X164462857Y-104345833D01*
X164605714Y-104345833D01*
X164700952Y-104298214D01*
X164748571Y-104250595D01*
X164796190Y-104155357D01*
X164796190Y-103774404D01*
X164272380Y-104679166D02*
X164272380Y-105298214D01*
X164653333Y-104964880D01*
X164653333Y-105107738D01*
X164700952Y-105202976D01*
X164748571Y-105250595D01*
X164843809Y-105298214D01*
X165081904Y-105298214D01*
X165177142Y-105250595D01*
X165224761Y-105202976D01*
X165272380Y-105107738D01*
X165272380Y-104822023D01*
X165224761Y-104726785D01*
X165177142Y-104679166D01*
X164332380Y-104320833D02*
X163856190Y-103987500D01*
X164332380Y-103749404D02*
X163332380Y-103749404D01*
X163332380Y-104130357D01*
X163380000Y-104225595D01*
X163427619Y-104273214D01*
X163522857Y-104320833D01*
X163665714Y-104320833D01*
X163760952Y-104273214D01*
X163808571Y-104225595D01*
X163856190Y-104130357D01*
X163856190Y-103749404D01*
X163332380Y-105225595D02*
X163332380Y-104749404D01*
X163808571Y-104701785D01*
X163760952Y-104749404D01*
X163713333Y-104844642D01*
X163713333Y-105082738D01*
X163760952Y-105177976D01*
X163808571Y-105225595D01*
X163903809Y-105273214D01*
X164141904Y-105273214D01*
X164237142Y-105225595D01*
X164284761Y-105177976D01*
X164332380Y-105082738D01*
X164332380Y-104844642D01*
X164284761Y-104749404D01*
X164237142Y-104701785D01*
M02*
