G04 #@! TF.GenerationSoftware,KiCad,Pcbnew,(5.1.5-0-10_14)*
G04 #@! TF.CreationDate,2020-04-27T10:05:46+02:00*
G04 #@! TF.ProjectId,ESP8266-PowerMonitor,45535038-3236-4362-9d50-6f7765724d6f,rev?*
G04 #@! TF.SameCoordinates,Original*
G04 #@! TF.FileFunction,Paste,Top*
G04 #@! TF.FilePolarity,Positive*
%FSLAX46Y46*%
G04 Gerber Fmt 4.6, Leading zero omitted, Abs format (unit mm)*
G04 Created by KiCad (PCBNEW (5.1.5-0-10_14)) date 2020-04-27 10:05:46*
%MOMM*%
%LPD*%
G04 APERTURE LIST*
%ADD10R,1.000000X2.500000*%
%ADD11R,1.800000X1.000000*%
%ADD12C,1.000000*%
%ADD13R,1.300000X1.550000*%
%ADD14R,2.000000X3.800000*%
%ADD15R,2.000000X1.500000*%
G04 APERTURE END LIST*
D10*
X175700000Y-95800000D03*
X173700000Y-95800000D03*
X171700000Y-95800000D03*
X169700000Y-95800000D03*
X167700000Y-95800000D03*
X165700000Y-95800000D03*
X163700000Y-95800000D03*
X161700000Y-95800000D03*
D11*
X160200000Y-98400000D03*
X160200000Y-100400000D03*
X160200000Y-102400000D03*
X160200000Y-104400000D03*
X160200000Y-106400000D03*
X160200000Y-108400000D03*
D10*
X161700000Y-111000000D03*
X163700000Y-111000000D03*
X165700000Y-111000000D03*
X167700000Y-111000000D03*
X169700000Y-111000000D03*
X171700000Y-111000000D03*
X173700000Y-111000000D03*
X175700000Y-111000000D03*
D12*
G36*
X147674504Y-107001204D02*
G01*
X147698773Y-107004804D01*
X147722571Y-107010765D01*
X147745671Y-107019030D01*
X147767849Y-107029520D01*
X147788893Y-107042133D01*
X147808598Y-107056747D01*
X147826777Y-107073223D01*
X147843253Y-107091402D01*
X147857867Y-107111107D01*
X147870480Y-107132151D01*
X147880970Y-107154329D01*
X147889235Y-107177429D01*
X147895196Y-107201227D01*
X147898796Y-107225496D01*
X147900000Y-107250000D01*
X147900000Y-109350000D01*
X147898796Y-109374504D01*
X147895196Y-109398773D01*
X147889235Y-109422571D01*
X147880970Y-109445671D01*
X147870480Y-109467849D01*
X147857867Y-109488893D01*
X147843253Y-109508598D01*
X147826777Y-109526777D01*
X147808598Y-109543253D01*
X147788893Y-109557867D01*
X147767849Y-109570480D01*
X147745671Y-109580970D01*
X147722571Y-109589235D01*
X147698773Y-109595196D01*
X147674504Y-109598796D01*
X147650000Y-109600000D01*
X146550000Y-109600000D01*
X146525496Y-109598796D01*
X146501227Y-109595196D01*
X146477429Y-109589235D01*
X146454329Y-109580970D01*
X146432151Y-109570480D01*
X146411107Y-109557867D01*
X146391402Y-109543253D01*
X146373223Y-109526777D01*
X146356747Y-109508598D01*
X146342133Y-109488893D01*
X146329520Y-109467849D01*
X146319030Y-109445671D01*
X146310765Y-109422571D01*
X146304804Y-109398773D01*
X146301204Y-109374504D01*
X146300000Y-109350000D01*
X146300000Y-107250000D01*
X146301204Y-107225496D01*
X146304804Y-107201227D01*
X146310765Y-107177429D01*
X146319030Y-107154329D01*
X146329520Y-107132151D01*
X146342133Y-107111107D01*
X146356747Y-107091402D01*
X146373223Y-107073223D01*
X146391402Y-107056747D01*
X146411107Y-107042133D01*
X146432151Y-107029520D01*
X146454329Y-107019030D01*
X146477429Y-107010765D01*
X146501227Y-107004804D01*
X146525496Y-107001204D01*
X146550000Y-107000000D01*
X147650000Y-107000000D01*
X147674504Y-107001204D01*
G37*
G36*
X147674504Y-110601204D02*
G01*
X147698773Y-110604804D01*
X147722571Y-110610765D01*
X147745671Y-110619030D01*
X147767849Y-110629520D01*
X147788893Y-110642133D01*
X147808598Y-110656747D01*
X147826777Y-110673223D01*
X147843253Y-110691402D01*
X147857867Y-110711107D01*
X147870480Y-110732151D01*
X147880970Y-110754329D01*
X147889235Y-110777429D01*
X147895196Y-110801227D01*
X147898796Y-110825496D01*
X147900000Y-110850000D01*
X147900000Y-112950000D01*
X147898796Y-112974504D01*
X147895196Y-112998773D01*
X147889235Y-113022571D01*
X147880970Y-113045671D01*
X147870480Y-113067849D01*
X147857867Y-113088893D01*
X147843253Y-113108598D01*
X147826777Y-113126777D01*
X147808598Y-113143253D01*
X147788893Y-113157867D01*
X147767849Y-113170480D01*
X147745671Y-113180970D01*
X147722571Y-113189235D01*
X147698773Y-113195196D01*
X147674504Y-113198796D01*
X147650000Y-113200000D01*
X146550000Y-113200000D01*
X146525496Y-113198796D01*
X146501227Y-113195196D01*
X146477429Y-113189235D01*
X146454329Y-113180970D01*
X146432151Y-113170480D01*
X146411107Y-113157867D01*
X146391402Y-113143253D01*
X146373223Y-113126777D01*
X146356747Y-113108598D01*
X146342133Y-113088893D01*
X146329520Y-113067849D01*
X146319030Y-113045671D01*
X146310765Y-113022571D01*
X146304804Y-112998773D01*
X146301204Y-112974504D01*
X146300000Y-112950000D01*
X146300000Y-110850000D01*
X146301204Y-110825496D01*
X146304804Y-110801227D01*
X146310765Y-110777429D01*
X146319030Y-110754329D01*
X146329520Y-110732151D01*
X146342133Y-110711107D01*
X146356747Y-110691402D01*
X146373223Y-110673223D01*
X146391402Y-110656747D01*
X146411107Y-110642133D01*
X146432151Y-110629520D01*
X146454329Y-110619030D01*
X146477429Y-110610765D01*
X146501227Y-110604804D01*
X146525496Y-110601204D01*
X146550000Y-110600000D01*
X147650000Y-110600000D01*
X147674504Y-110601204D01*
G37*
G36*
X151687004Y-99926204D02*
G01*
X151711273Y-99929804D01*
X151735071Y-99935765D01*
X151758171Y-99944030D01*
X151780349Y-99954520D01*
X151801393Y-99967133D01*
X151821098Y-99981747D01*
X151839277Y-99998223D01*
X151855753Y-100016402D01*
X151870367Y-100036107D01*
X151882980Y-100057151D01*
X151893470Y-100079329D01*
X151901735Y-100102429D01*
X151907696Y-100126227D01*
X151911296Y-100150496D01*
X151912500Y-100175000D01*
X151912500Y-101425000D01*
X151911296Y-101449504D01*
X151907696Y-101473773D01*
X151901735Y-101497571D01*
X151893470Y-101520671D01*
X151882980Y-101542849D01*
X151870367Y-101563893D01*
X151855753Y-101583598D01*
X151839277Y-101601777D01*
X151821098Y-101618253D01*
X151801393Y-101632867D01*
X151780349Y-101645480D01*
X151758171Y-101655970D01*
X151735071Y-101664235D01*
X151711273Y-101670196D01*
X151687004Y-101673796D01*
X151662500Y-101675000D01*
X150737500Y-101675000D01*
X150712996Y-101673796D01*
X150688727Y-101670196D01*
X150664929Y-101664235D01*
X150641829Y-101655970D01*
X150619651Y-101645480D01*
X150598607Y-101632867D01*
X150578902Y-101618253D01*
X150560723Y-101601777D01*
X150544247Y-101583598D01*
X150529633Y-101563893D01*
X150517020Y-101542849D01*
X150506530Y-101520671D01*
X150498265Y-101497571D01*
X150492304Y-101473773D01*
X150488704Y-101449504D01*
X150487500Y-101425000D01*
X150487500Y-100175000D01*
X150488704Y-100150496D01*
X150492304Y-100126227D01*
X150498265Y-100102429D01*
X150506530Y-100079329D01*
X150517020Y-100057151D01*
X150529633Y-100036107D01*
X150544247Y-100016402D01*
X150560723Y-99998223D01*
X150578902Y-99981747D01*
X150598607Y-99967133D01*
X150619651Y-99954520D01*
X150641829Y-99944030D01*
X150664929Y-99935765D01*
X150688727Y-99929804D01*
X150712996Y-99926204D01*
X150737500Y-99925000D01*
X151662500Y-99925000D01*
X151687004Y-99926204D01*
G37*
G36*
X148712004Y-99926204D02*
G01*
X148736273Y-99929804D01*
X148760071Y-99935765D01*
X148783171Y-99944030D01*
X148805349Y-99954520D01*
X148826393Y-99967133D01*
X148846098Y-99981747D01*
X148864277Y-99998223D01*
X148880753Y-100016402D01*
X148895367Y-100036107D01*
X148907980Y-100057151D01*
X148918470Y-100079329D01*
X148926735Y-100102429D01*
X148932696Y-100126227D01*
X148936296Y-100150496D01*
X148937500Y-100175000D01*
X148937500Y-101425000D01*
X148936296Y-101449504D01*
X148932696Y-101473773D01*
X148926735Y-101497571D01*
X148918470Y-101520671D01*
X148907980Y-101542849D01*
X148895367Y-101563893D01*
X148880753Y-101583598D01*
X148864277Y-101601777D01*
X148846098Y-101618253D01*
X148826393Y-101632867D01*
X148805349Y-101645480D01*
X148783171Y-101655970D01*
X148760071Y-101664235D01*
X148736273Y-101670196D01*
X148712004Y-101673796D01*
X148687500Y-101675000D01*
X147762500Y-101675000D01*
X147737996Y-101673796D01*
X147713727Y-101670196D01*
X147689929Y-101664235D01*
X147666829Y-101655970D01*
X147644651Y-101645480D01*
X147623607Y-101632867D01*
X147603902Y-101618253D01*
X147585723Y-101601777D01*
X147569247Y-101583598D01*
X147554633Y-101563893D01*
X147542020Y-101542849D01*
X147531530Y-101520671D01*
X147523265Y-101497571D01*
X147517304Y-101473773D01*
X147513704Y-101449504D01*
X147512500Y-101425000D01*
X147512500Y-100175000D01*
X147513704Y-100150496D01*
X147517304Y-100126227D01*
X147523265Y-100102429D01*
X147531530Y-100079329D01*
X147542020Y-100057151D01*
X147554633Y-100036107D01*
X147569247Y-100016402D01*
X147585723Y-99998223D01*
X147603902Y-99981747D01*
X147623607Y-99967133D01*
X147644651Y-99954520D01*
X147666829Y-99944030D01*
X147689929Y-99935765D01*
X147713727Y-99929804D01*
X147737996Y-99926204D01*
X147762500Y-99925000D01*
X148687500Y-99925000D01*
X148712004Y-99926204D01*
G37*
G36*
X118649504Y-97688704D02*
G01*
X118673773Y-97692304D01*
X118697571Y-97698265D01*
X118720671Y-97706530D01*
X118742849Y-97717020D01*
X118763893Y-97729633D01*
X118783598Y-97744247D01*
X118801777Y-97760723D01*
X118818253Y-97778902D01*
X118832867Y-97798607D01*
X118845480Y-97819651D01*
X118855970Y-97841829D01*
X118864235Y-97864929D01*
X118870196Y-97888727D01*
X118873796Y-97912996D01*
X118875000Y-97937500D01*
X118875000Y-98862500D01*
X118873796Y-98887004D01*
X118870196Y-98911273D01*
X118864235Y-98935071D01*
X118855970Y-98958171D01*
X118845480Y-98980349D01*
X118832867Y-99001393D01*
X118818253Y-99021098D01*
X118801777Y-99039277D01*
X118783598Y-99055753D01*
X118763893Y-99070367D01*
X118742849Y-99082980D01*
X118720671Y-99093470D01*
X118697571Y-99101735D01*
X118673773Y-99107696D01*
X118649504Y-99111296D01*
X118625000Y-99112500D01*
X117375000Y-99112500D01*
X117350496Y-99111296D01*
X117326227Y-99107696D01*
X117302429Y-99101735D01*
X117279329Y-99093470D01*
X117257151Y-99082980D01*
X117236107Y-99070367D01*
X117216402Y-99055753D01*
X117198223Y-99039277D01*
X117181747Y-99021098D01*
X117167133Y-99001393D01*
X117154520Y-98980349D01*
X117144030Y-98958171D01*
X117135765Y-98935071D01*
X117129804Y-98911273D01*
X117126204Y-98887004D01*
X117125000Y-98862500D01*
X117125000Y-97937500D01*
X117126204Y-97912996D01*
X117129804Y-97888727D01*
X117135765Y-97864929D01*
X117144030Y-97841829D01*
X117154520Y-97819651D01*
X117167133Y-97798607D01*
X117181747Y-97778902D01*
X117198223Y-97760723D01*
X117216402Y-97744247D01*
X117236107Y-97729633D01*
X117257151Y-97717020D01*
X117279329Y-97706530D01*
X117302429Y-97698265D01*
X117326227Y-97692304D01*
X117350496Y-97688704D01*
X117375000Y-97687500D01*
X118625000Y-97687500D01*
X118649504Y-97688704D01*
G37*
G36*
X118649504Y-100663704D02*
G01*
X118673773Y-100667304D01*
X118697571Y-100673265D01*
X118720671Y-100681530D01*
X118742849Y-100692020D01*
X118763893Y-100704633D01*
X118783598Y-100719247D01*
X118801777Y-100735723D01*
X118818253Y-100753902D01*
X118832867Y-100773607D01*
X118845480Y-100794651D01*
X118855970Y-100816829D01*
X118864235Y-100839929D01*
X118870196Y-100863727D01*
X118873796Y-100887996D01*
X118875000Y-100912500D01*
X118875000Y-101837500D01*
X118873796Y-101862004D01*
X118870196Y-101886273D01*
X118864235Y-101910071D01*
X118855970Y-101933171D01*
X118845480Y-101955349D01*
X118832867Y-101976393D01*
X118818253Y-101996098D01*
X118801777Y-102014277D01*
X118783598Y-102030753D01*
X118763893Y-102045367D01*
X118742849Y-102057980D01*
X118720671Y-102068470D01*
X118697571Y-102076735D01*
X118673773Y-102082696D01*
X118649504Y-102086296D01*
X118625000Y-102087500D01*
X117375000Y-102087500D01*
X117350496Y-102086296D01*
X117326227Y-102082696D01*
X117302429Y-102076735D01*
X117279329Y-102068470D01*
X117257151Y-102057980D01*
X117236107Y-102045367D01*
X117216402Y-102030753D01*
X117198223Y-102014277D01*
X117181747Y-101996098D01*
X117167133Y-101976393D01*
X117154520Y-101955349D01*
X117144030Y-101933171D01*
X117135765Y-101910071D01*
X117129804Y-101886273D01*
X117126204Y-101862004D01*
X117125000Y-101837500D01*
X117125000Y-100912500D01*
X117126204Y-100887996D01*
X117129804Y-100863727D01*
X117135765Y-100839929D01*
X117144030Y-100816829D01*
X117154520Y-100794651D01*
X117167133Y-100773607D01*
X117181747Y-100753902D01*
X117198223Y-100735723D01*
X117216402Y-100719247D01*
X117236107Y-100704633D01*
X117257151Y-100692020D01*
X117279329Y-100681530D01*
X117302429Y-100673265D01*
X117326227Y-100667304D01*
X117350496Y-100663704D01*
X117375000Y-100662500D01*
X118625000Y-100662500D01*
X118649504Y-100663704D01*
G37*
G36*
X160299504Y-91926204D02*
G01*
X160323773Y-91929804D01*
X160347571Y-91935765D01*
X160370671Y-91944030D01*
X160392849Y-91954520D01*
X160413893Y-91967133D01*
X160433598Y-91981747D01*
X160451777Y-91998223D01*
X160468253Y-92016402D01*
X160482867Y-92036107D01*
X160495480Y-92057151D01*
X160505970Y-92079329D01*
X160514235Y-92102429D01*
X160520196Y-92126227D01*
X160523796Y-92150496D01*
X160525000Y-92175000D01*
X160525000Y-93425000D01*
X160523796Y-93449504D01*
X160520196Y-93473773D01*
X160514235Y-93497571D01*
X160505970Y-93520671D01*
X160495480Y-93542849D01*
X160482867Y-93563893D01*
X160468253Y-93583598D01*
X160451777Y-93601777D01*
X160433598Y-93618253D01*
X160413893Y-93632867D01*
X160392849Y-93645480D01*
X160370671Y-93655970D01*
X160347571Y-93664235D01*
X160323773Y-93670196D01*
X160299504Y-93673796D01*
X160275000Y-93675000D01*
X159350000Y-93675000D01*
X159325496Y-93673796D01*
X159301227Y-93670196D01*
X159277429Y-93664235D01*
X159254329Y-93655970D01*
X159232151Y-93645480D01*
X159211107Y-93632867D01*
X159191402Y-93618253D01*
X159173223Y-93601777D01*
X159156747Y-93583598D01*
X159142133Y-93563893D01*
X159129520Y-93542849D01*
X159119030Y-93520671D01*
X159110765Y-93497571D01*
X159104804Y-93473773D01*
X159101204Y-93449504D01*
X159100000Y-93425000D01*
X159100000Y-92175000D01*
X159101204Y-92150496D01*
X159104804Y-92126227D01*
X159110765Y-92102429D01*
X159119030Y-92079329D01*
X159129520Y-92057151D01*
X159142133Y-92036107D01*
X159156747Y-92016402D01*
X159173223Y-91998223D01*
X159191402Y-91981747D01*
X159211107Y-91967133D01*
X159232151Y-91954520D01*
X159254329Y-91944030D01*
X159277429Y-91935765D01*
X159301227Y-91929804D01*
X159325496Y-91926204D01*
X159350000Y-91925000D01*
X160275000Y-91925000D01*
X160299504Y-91926204D01*
G37*
G36*
X163274504Y-91926204D02*
G01*
X163298773Y-91929804D01*
X163322571Y-91935765D01*
X163345671Y-91944030D01*
X163367849Y-91954520D01*
X163388893Y-91967133D01*
X163408598Y-91981747D01*
X163426777Y-91998223D01*
X163443253Y-92016402D01*
X163457867Y-92036107D01*
X163470480Y-92057151D01*
X163480970Y-92079329D01*
X163489235Y-92102429D01*
X163495196Y-92126227D01*
X163498796Y-92150496D01*
X163500000Y-92175000D01*
X163500000Y-93425000D01*
X163498796Y-93449504D01*
X163495196Y-93473773D01*
X163489235Y-93497571D01*
X163480970Y-93520671D01*
X163470480Y-93542849D01*
X163457867Y-93563893D01*
X163443253Y-93583598D01*
X163426777Y-93601777D01*
X163408598Y-93618253D01*
X163388893Y-93632867D01*
X163367849Y-93645480D01*
X163345671Y-93655970D01*
X163322571Y-93664235D01*
X163298773Y-93670196D01*
X163274504Y-93673796D01*
X163250000Y-93675000D01*
X162325000Y-93675000D01*
X162300496Y-93673796D01*
X162276227Y-93670196D01*
X162252429Y-93664235D01*
X162229329Y-93655970D01*
X162207151Y-93645480D01*
X162186107Y-93632867D01*
X162166402Y-93618253D01*
X162148223Y-93601777D01*
X162131747Y-93583598D01*
X162117133Y-93563893D01*
X162104520Y-93542849D01*
X162094030Y-93520671D01*
X162085765Y-93497571D01*
X162079804Y-93473773D01*
X162076204Y-93449504D01*
X162075000Y-93425000D01*
X162075000Y-92175000D01*
X162076204Y-92150496D01*
X162079804Y-92126227D01*
X162085765Y-92102429D01*
X162094030Y-92079329D01*
X162104520Y-92057151D01*
X162117133Y-92036107D01*
X162131747Y-92016402D01*
X162148223Y-91998223D01*
X162166402Y-91981747D01*
X162186107Y-91967133D01*
X162207151Y-91954520D01*
X162229329Y-91944030D01*
X162252429Y-91935765D01*
X162276227Y-91929804D01*
X162300496Y-91926204D01*
X162325000Y-91925000D01*
X163250000Y-91925000D01*
X163274504Y-91926204D01*
G37*
G36*
X168462004Y-91926204D02*
G01*
X168486273Y-91929804D01*
X168510071Y-91935765D01*
X168533171Y-91944030D01*
X168555349Y-91954520D01*
X168576393Y-91967133D01*
X168596098Y-91981747D01*
X168614277Y-91998223D01*
X168630753Y-92016402D01*
X168645367Y-92036107D01*
X168657980Y-92057151D01*
X168668470Y-92079329D01*
X168676735Y-92102429D01*
X168682696Y-92126227D01*
X168686296Y-92150496D01*
X168687500Y-92175000D01*
X168687500Y-93425000D01*
X168686296Y-93449504D01*
X168682696Y-93473773D01*
X168676735Y-93497571D01*
X168668470Y-93520671D01*
X168657980Y-93542849D01*
X168645367Y-93563893D01*
X168630753Y-93583598D01*
X168614277Y-93601777D01*
X168596098Y-93618253D01*
X168576393Y-93632867D01*
X168555349Y-93645480D01*
X168533171Y-93655970D01*
X168510071Y-93664235D01*
X168486273Y-93670196D01*
X168462004Y-93673796D01*
X168437500Y-93675000D01*
X167512500Y-93675000D01*
X167487996Y-93673796D01*
X167463727Y-93670196D01*
X167439929Y-93664235D01*
X167416829Y-93655970D01*
X167394651Y-93645480D01*
X167373607Y-93632867D01*
X167353902Y-93618253D01*
X167335723Y-93601777D01*
X167319247Y-93583598D01*
X167304633Y-93563893D01*
X167292020Y-93542849D01*
X167281530Y-93520671D01*
X167273265Y-93497571D01*
X167267304Y-93473773D01*
X167263704Y-93449504D01*
X167262500Y-93425000D01*
X167262500Y-92175000D01*
X167263704Y-92150496D01*
X167267304Y-92126227D01*
X167273265Y-92102429D01*
X167281530Y-92079329D01*
X167292020Y-92057151D01*
X167304633Y-92036107D01*
X167319247Y-92016402D01*
X167335723Y-91998223D01*
X167353902Y-91981747D01*
X167373607Y-91967133D01*
X167394651Y-91954520D01*
X167416829Y-91944030D01*
X167439929Y-91935765D01*
X167463727Y-91929804D01*
X167487996Y-91926204D01*
X167512500Y-91925000D01*
X168437500Y-91925000D01*
X168462004Y-91926204D01*
G37*
G36*
X165487004Y-91926204D02*
G01*
X165511273Y-91929804D01*
X165535071Y-91935765D01*
X165558171Y-91944030D01*
X165580349Y-91954520D01*
X165601393Y-91967133D01*
X165621098Y-91981747D01*
X165639277Y-91998223D01*
X165655753Y-92016402D01*
X165670367Y-92036107D01*
X165682980Y-92057151D01*
X165693470Y-92079329D01*
X165701735Y-92102429D01*
X165707696Y-92126227D01*
X165711296Y-92150496D01*
X165712500Y-92175000D01*
X165712500Y-93425000D01*
X165711296Y-93449504D01*
X165707696Y-93473773D01*
X165701735Y-93497571D01*
X165693470Y-93520671D01*
X165682980Y-93542849D01*
X165670367Y-93563893D01*
X165655753Y-93583598D01*
X165639277Y-93601777D01*
X165621098Y-93618253D01*
X165601393Y-93632867D01*
X165580349Y-93645480D01*
X165558171Y-93655970D01*
X165535071Y-93664235D01*
X165511273Y-93670196D01*
X165487004Y-93673796D01*
X165462500Y-93675000D01*
X164537500Y-93675000D01*
X164512996Y-93673796D01*
X164488727Y-93670196D01*
X164464929Y-93664235D01*
X164441829Y-93655970D01*
X164419651Y-93645480D01*
X164398607Y-93632867D01*
X164378902Y-93618253D01*
X164360723Y-93601777D01*
X164344247Y-93583598D01*
X164329633Y-93563893D01*
X164317020Y-93542849D01*
X164306530Y-93520671D01*
X164298265Y-93497571D01*
X164292304Y-93473773D01*
X164288704Y-93449504D01*
X164287500Y-93425000D01*
X164287500Y-92175000D01*
X164288704Y-92150496D01*
X164292304Y-92126227D01*
X164298265Y-92102429D01*
X164306530Y-92079329D01*
X164317020Y-92057151D01*
X164329633Y-92036107D01*
X164344247Y-92016402D01*
X164360723Y-91998223D01*
X164378902Y-91981747D01*
X164398607Y-91967133D01*
X164419651Y-91954520D01*
X164441829Y-91944030D01*
X164464929Y-91935765D01*
X164488727Y-91929804D01*
X164512996Y-91926204D01*
X164537500Y-91925000D01*
X165462500Y-91925000D01*
X165487004Y-91926204D01*
G37*
G36*
X162287004Y-113426204D02*
G01*
X162311273Y-113429804D01*
X162335071Y-113435765D01*
X162358171Y-113444030D01*
X162380349Y-113454520D01*
X162401393Y-113467133D01*
X162421098Y-113481747D01*
X162439277Y-113498223D01*
X162455753Y-113516402D01*
X162470367Y-113536107D01*
X162482980Y-113557151D01*
X162493470Y-113579329D01*
X162501735Y-113602429D01*
X162507696Y-113626227D01*
X162511296Y-113650496D01*
X162512500Y-113675000D01*
X162512500Y-114925000D01*
X162511296Y-114949504D01*
X162507696Y-114973773D01*
X162501735Y-114997571D01*
X162493470Y-115020671D01*
X162482980Y-115042849D01*
X162470367Y-115063893D01*
X162455753Y-115083598D01*
X162439277Y-115101777D01*
X162421098Y-115118253D01*
X162401393Y-115132867D01*
X162380349Y-115145480D01*
X162358171Y-115155970D01*
X162335071Y-115164235D01*
X162311273Y-115170196D01*
X162287004Y-115173796D01*
X162262500Y-115175000D01*
X161337500Y-115175000D01*
X161312996Y-115173796D01*
X161288727Y-115170196D01*
X161264929Y-115164235D01*
X161241829Y-115155970D01*
X161219651Y-115145480D01*
X161198607Y-115132867D01*
X161178902Y-115118253D01*
X161160723Y-115101777D01*
X161144247Y-115083598D01*
X161129633Y-115063893D01*
X161117020Y-115042849D01*
X161106530Y-115020671D01*
X161098265Y-114997571D01*
X161092304Y-114973773D01*
X161088704Y-114949504D01*
X161087500Y-114925000D01*
X161087500Y-113675000D01*
X161088704Y-113650496D01*
X161092304Y-113626227D01*
X161098265Y-113602429D01*
X161106530Y-113579329D01*
X161117020Y-113557151D01*
X161129633Y-113536107D01*
X161144247Y-113516402D01*
X161160723Y-113498223D01*
X161178902Y-113481747D01*
X161198607Y-113467133D01*
X161219651Y-113454520D01*
X161241829Y-113444030D01*
X161264929Y-113435765D01*
X161288727Y-113429804D01*
X161312996Y-113426204D01*
X161337500Y-113425000D01*
X162262500Y-113425000D01*
X162287004Y-113426204D01*
G37*
G36*
X159312004Y-113426204D02*
G01*
X159336273Y-113429804D01*
X159360071Y-113435765D01*
X159383171Y-113444030D01*
X159405349Y-113454520D01*
X159426393Y-113467133D01*
X159446098Y-113481747D01*
X159464277Y-113498223D01*
X159480753Y-113516402D01*
X159495367Y-113536107D01*
X159507980Y-113557151D01*
X159518470Y-113579329D01*
X159526735Y-113602429D01*
X159532696Y-113626227D01*
X159536296Y-113650496D01*
X159537500Y-113675000D01*
X159537500Y-114925000D01*
X159536296Y-114949504D01*
X159532696Y-114973773D01*
X159526735Y-114997571D01*
X159518470Y-115020671D01*
X159507980Y-115042849D01*
X159495367Y-115063893D01*
X159480753Y-115083598D01*
X159464277Y-115101777D01*
X159446098Y-115118253D01*
X159426393Y-115132867D01*
X159405349Y-115145480D01*
X159383171Y-115155970D01*
X159360071Y-115164235D01*
X159336273Y-115170196D01*
X159312004Y-115173796D01*
X159287500Y-115175000D01*
X158362500Y-115175000D01*
X158337996Y-115173796D01*
X158313727Y-115170196D01*
X158289929Y-115164235D01*
X158266829Y-115155970D01*
X158244651Y-115145480D01*
X158223607Y-115132867D01*
X158203902Y-115118253D01*
X158185723Y-115101777D01*
X158169247Y-115083598D01*
X158154633Y-115063893D01*
X158142020Y-115042849D01*
X158131530Y-115020671D01*
X158123265Y-114997571D01*
X158117304Y-114973773D01*
X158113704Y-114949504D01*
X158112500Y-114925000D01*
X158112500Y-113675000D01*
X158113704Y-113650496D01*
X158117304Y-113626227D01*
X158123265Y-113602429D01*
X158131530Y-113579329D01*
X158142020Y-113557151D01*
X158154633Y-113536107D01*
X158169247Y-113516402D01*
X158185723Y-113498223D01*
X158203902Y-113481747D01*
X158223607Y-113467133D01*
X158244651Y-113454520D01*
X158266829Y-113444030D01*
X158289929Y-113435765D01*
X158313727Y-113429804D01*
X158337996Y-113426204D01*
X158362500Y-113425000D01*
X159287500Y-113425000D01*
X159312004Y-113426204D01*
G37*
D13*
X153350000Y-92825000D03*
X157850000Y-92825000D03*
X157850000Y-100775000D03*
X153350000Y-100775000D03*
D14*
X150500000Y-95450000D03*
D15*
X144200000Y-95450000D03*
X144200000Y-97750000D03*
X144200000Y-93150000D03*
M02*
