G04 #@! TF.GenerationSoftware,KiCad,Pcbnew,(5.1.5-0-10_14)*
G04 #@! TF.CreationDate,2020-04-24T15:56:46+02:00*
G04 #@! TF.ProjectId,ESP8266-PowerMonitor,45535038-3236-4362-9d50-6f7765724d6f,rev?*
G04 #@! TF.SameCoordinates,Original*
G04 #@! TF.FileFunction,Paste,Top*
G04 #@! TF.FilePolarity,Positive*
%FSLAX46Y46*%
G04 Gerber Fmt 4.6, Leading zero omitted, Abs format (unit mm)*
G04 Created by KiCad (PCBNEW (5.1.5-0-10_14)) date 2020-04-24 15:56:46*
%MOMM*%
%LPD*%
G04 APERTURE LIST*
%ADD10C,1.000000*%
%ADD11R,1.300000X1.550000*%
%ADD12R,2.000000X3.800000*%
%ADD13R,2.000000X1.500000*%
%ADD14R,1.000000X2.500000*%
%ADD15R,1.800000X1.000000*%
G04 APERTURE END LIST*
D10*
G36*
X150774504Y-107201204D02*
G01*
X150798773Y-107204804D01*
X150822571Y-107210765D01*
X150845671Y-107219030D01*
X150867849Y-107229520D01*
X150888893Y-107242133D01*
X150908598Y-107256747D01*
X150926777Y-107273223D01*
X150943253Y-107291402D01*
X150957867Y-107311107D01*
X150970480Y-107332151D01*
X150980970Y-107354329D01*
X150989235Y-107377429D01*
X150995196Y-107401227D01*
X150998796Y-107425496D01*
X151000000Y-107450000D01*
X151000000Y-108550000D01*
X150998796Y-108574504D01*
X150995196Y-108598773D01*
X150989235Y-108622571D01*
X150980970Y-108645671D01*
X150970480Y-108667849D01*
X150957867Y-108688893D01*
X150943253Y-108708598D01*
X150926777Y-108726777D01*
X150908598Y-108743253D01*
X150888893Y-108757867D01*
X150867849Y-108770480D01*
X150845671Y-108780970D01*
X150822571Y-108789235D01*
X150798773Y-108795196D01*
X150774504Y-108798796D01*
X150750000Y-108800000D01*
X148650000Y-108800000D01*
X148625496Y-108798796D01*
X148601227Y-108795196D01*
X148577429Y-108789235D01*
X148554329Y-108780970D01*
X148532151Y-108770480D01*
X148511107Y-108757867D01*
X148491402Y-108743253D01*
X148473223Y-108726777D01*
X148456747Y-108708598D01*
X148442133Y-108688893D01*
X148429520Y-108667849D01*
X148419030Y-108645671D01*
X148410765Y-108622571D01*
X148404804Y-108598773D01*
X148401204Y-108574504D01*
X148400000Y-108550000D01*
X148400000Y-107450000D01*
X148401204Y-107425496D01*
X148404804Y-107401227D01*
X148410765Y-107377429D01*
X148419030Y-107354329D01*
X148429520Y-107332151D01*
X148442133Y-107311107D01*
X148456747Y-107291402D01*
X148473223Y-107273223D01*
X148491402Y-107256747D01*
X148511107Y-107242133D01*
X148532151Y-107229520D01*
X148554329Y-107219030D01*
X148577429Y-107210765D01*
X148601227Y-107204804D01*
X148625496Y-107201204D01*
X148650000Y-107200000D01*
X150750000Y-107200000D01*
X150774504Y-107201204D01*
G37*
G36*
X154374504Y-107201204D02*
G01*
X154398773Y-107204804D01*
X154422571Y-107210765D01*
X154445671Y-107219030D01*
X154467849Y-107229520D01*
X154488893Y-107242133D01*
X154508598Y-107256747D01*
X154526777Y-107273223D01*
X154543253Y-107291402D01*
X154557867Y-107311107D01*
X154570480Y-107332151D01*
X154580970Y-107354329D01*
X154589235Y-107377429D01*
X154595196Y-107401227D01*
X154598796Y-107425496D01*
X154600000Y-107450000D01*
X154600000Y-108550000D01*
X154598796Y-108574504D01*
X154595196Y-108598773D01*
X154589235Y-108622571D01*
X154580970Y-108645671D01*
X154570480Y-108667849D01*
X154557867Y-108688893D01*
X154543253Y-108708598D01*
X154526777Y-108726777D01*
X154508598Y-108743253D01*
X154488893Y-108757867D01*
X154467849Y-108770480D01*
X154445671Y-108780970D01*
X154422571Y-108789235D01*
X154398773Y-108795196D01*
X154374504Y-108798796D01*
X154350000Y-108800000D01*
X152250000Y-108800000D01*
X152225496Y-108798796D01*
X152201227Y-108795196D01*
X152177429Y-108789235D01*
X152154329Y-108780970D01*
X152132151Y-108770480D01*
X152111107Y-108757867D01*
X152091402Y-108743253D01*
X152073223Y-108726777D01*
X152056747Y-108708598D01*
X152042133Y-108688893D01*
X152029520Y-108667849D01*
X152019030Y-108645671D01*
X152010765Y-108622571D01*
X152004804Y-108598773D01*
X152001204Y-108574504D01*
X152000000Y-108550000D01*
X152000000Y-107450000D01*
X152001204Y-107425496D01*
X152004804Y-107401227D01*
X152010765Y-107377429D01*
X152019030Y-107354329D01*
X152029520Y-107332151D01*
X152042133Y-107311107D01*
X152056747Y-107291402D01*
X152073223Y-107273223D01*
X152091402Y-107256747D01*
X152111107Y-107242133D01*
X152132151Y-107229520D01*
X152154329Y-107219030D01*
X152177429Y-107210765D01*
X152201227Y-107204804D01*
X152225496Y-107201204D01*
X152250000Y-107200000D01*
X154350000Y-107200000D01*
X154374504Y-107201204D01*
G37*
G36*
X151687004Y-99926204D02*
G01*
X151711273Y-99929804D01*
X151735071Y-99935765D01*
X151758171Y-99944030D01*
X151780349Y-99954520D01*
X151801393Y-99967133D01*
X151821098Y-99981747D01*
X151839277Y-99998223D01*
X151855753Y-100016402D01*
X151870367Y-100036107D01*
X151882980Y-100057151D01*
X151893470Y-100079329D01*
X151901735Y-100102429D01*
X151907696Y-100126227D01*
X151911296Y-100150496D01*
X151912500Y-100175000D01*
X151912500Y-101425000D01*
X151911296Y-101449504D01*
X151907696Y-101473773D01*
X151901735Y-101497571D01*
X151893470Y-101520671D01*
X151882980Y-101542849D01*
X151870367Y-101563893D01*
X151855753Y-101583598D01*
X151839277Y-101601777D01*
X151821098Y-101618253D01*
X151801393Y-101632867D01*
X151780349Y-101645480D01*
X151758171Y-101655970D01*
X151735071Y-101664235D01*
X151711273Y-101670196D01*
X151687004Y-101673796D01*
X151662500Y-101675000D01*
X150737500Y-101675000D01*
X150712996Y-101673796D01*
X150688727Y-101670196D01*
X150664929Y-101664235D01*
X150641829Y-101655970D01*
X150619651Y-101645480D01*
X150598607Y-101632867D01*
X150578902Y-101618253D01*
X150560723Y-101601777D01*
X150544247Y-101583598D01*
X150529633Y-101563893D01*
X150517020Y-101542849D01*
X150506530Y-101520671D01*
X150498265Y-101497571D01*
X150492304Y-101473773D01*
X150488704Y-101449504D01*
X150487500Y-101425000D01*
X150487500Y-100175000D01*
X150488704Y-100150496D01*
X150492304Y-100126227D01*
X150498265Y-100102429D01*
X150506530Y-100079329D01*
X150517020Y-100057151D01*
X150529633Y-100036107D01*
X150544247Y-100016402D01*
X150560723Y-99998223D01*
X150578902Y-99981747D01*
X150598607Y-99967133D01*
X150619651Y-99954520D01*
X150641829Y-99944030D01*
X150664929Y-99935765D01*
X150688727Y-99929804D01*
X150712996Y-99926204D01*
X150737500Y-99925000D01*
X151662500Y-99925000D01*
X151687004Y-99926204D01*
G37*
G36*
X148712004Y-99926204D02*
G01*
X148736273Y-99929804D01*
X148760071Y-99935765D01*
X148783171Y-99944030D01*
X148805349Y-99954520D01*
X148826393Y-99967133D01*
X148846098Y-99981747D01*
X148864277Y-99998223D01*
X148880753Y-100016402D01*
X148895367Y-100036107D01*
X148907980Y-100057151D01*
X148918470Y-100079329D01*
X148926735Y-100102429D01*
X148932696Y-100126227D01*
X148936296Y-100150496D01*
X148937500Y-100175000D01*
X148937500Y-101425000D01*
X148936296Y-101449504D01*
X148932696Y-101473773D01*
X148926735Y-101497571D01*
X148918470Y-101520671D01*
X148907980Y-101542849D01*
X148895367Y-101563893D01*
X148880753Y-101583598D01*
X148864277Y-101601777D01*
X148846098Y-101618253D01*
X148826393Y-101632867D01*
X148805349Y-101645480D01*
X148783171Y-101655970D01*
X148760071Y-101664235D01*
X148736273Y-101670196D01*
X148712004Y-101673796D01*
X148687500Y-101675000D01*
X147762500Y-101675000D01*
X147737996Y-101673796D01*
X147713727Y-101670196D01*
X147689929Y-101664235D01*
X147666829Y-101655970D01*
X147644651Y-101645480D01*
X147623607Y-101632867D01*
X147603902Y-101618253D01*
X147585723Y-101601777D01*
X147569247Y-101583598D01*
X147554633Y-101563893D01*
X147542020Y-101542849D01*
X147531530Y-101520671D01*
X147523265Y-101497571D01*
X147517304Y-101473773D01*
X147513704Y-101449504D01*
X147512500Y-101425000D01*
X147512500Y-100175000D01*
X147513704Y-100150496D01*
X147517304Y-100126227D01*
X147523265Y-100102429D01*
X147531530Y-100079329D01*
X147542020Y-100057151D01*
X147554633Y-100036107D01*
X147569247Y-100016402D01*
X147585723Y-99998223D01*
X147603902Y-99981747D01*
X147623607Y-99967133D01*
X147644651Y-99954520D01*
X147666829Y-99944030D01*
X147689929Y-99935765D01*
X147713727Y-99929804D01*
X147737996Y-99926204D01*
X147762500Y-99925000D01*
X148687500Y-99925000D01*
X148712004Y-99926204D01*
G37*
G36*
X118649504Y-97688704D02*
G01*
X118673773Y-97692304D01*
X118697571Y-97698265D01*
X118720671Y-97706530D01*
X118742849Y-97717020D01*
X118763893Y-97729633D01*
X118783598Y-97744247D01*
X118801777Y-97760723D01*
X118818253Y-97778902D01*
X118832867Y-97798607D01*
X118845480Y-97819651D01*
X118855970Y-97841829D01*
X118864235Y-97864929D01*
X118870196Y-97888727D01*
X118873796Y-97912996D01*
X118875000Y-97937500D01*
X118875000Y-98862500D01*
X118873796Y-98887004D01*
X118870196Y-98911273D01*
X118864235Y-98935071D01*
X118855970Y-98958171D01*
X118845480Y-98980349D01*
X118832867Y-99001393D01*
X118818253Y-99021098D01*
X118801777Y-99039277D01*
X118783598Y-99055753D01*
X118763893Y-99070367D01*
X118742849Y-99082980D01*
X118720671Y-99093470D01*
X118697571Y-99101735D01*
X118673773Y-99107696D01*
X118649504Y-99111296D01*
X118625000Y-99112500D01*
X117375000Y-99112500D01*
X117350496Y-99111296D01*
X117326227Y-99107696D01*
X117302429Y-99101735D01*
X117279329Y-99093470D01*
X117257151Y-99082980D01*
X117236107Y-99070367D01*
X117216402Y-99055753D01*
X117198223Y-99039277D01*
X117181747Y-99021098D01*
X117167133Y-99001393D01*
X117154520Y-98980349D01*
X117144030Y-98958171D01*
X117135765Y-98935071D01*
X117129804Y-98911273D01*
X117126204Y-98887004D01*
X117125000Y-98862500D01*
X117125000Y-97937500D01*
X117126204Y-97912996D01*
X117129804Y-97888727D01*
X117135765Y-97864929D01*
X117144030Y-97841829D01*
X117154520Y-97819651D01*
X117167133Y-97798607D01*
X117181747Y-97778902D01*
X117198223Y-97760723D01*
X117216402Y-97744247D01*
X117236107Y-97729633D01*
X117257151Y-97717020D01*
X117279329Y-97706530D01*
X117302429Y-97698265D01*
X117326227Y-97692304D01*
X117350496Y-97688704D01*
X117375000Y-97687500D01*
X118625000Y-97687500D01*
X118649504Y-97688704D01*
G37*
G36*
X118649504Y-100663704D02*
G01*
X118673773Y-100667304D01*
X118697571Y-100673265D01*
X118720671Y-100681530D01*
X118742849Y-100692020D01*
X118763893Y-100704633D01*
X118783598Y-100719247D01*
X118801777Y-100735723D01*
X118818253Y-100753902D01*
X118832867Y-100773607D01*
X118845480Y-100794651D01*
X118855970Y-100816829D01*
X118864235Y-100839929D01*
X118870196Y-100863727D01*
X118873796Y-100887996D01*
X118875000Y-100912500D01*
X118875000Y-101837500D01*
X118873796Y-101862004D01*
X118870196Y-101886273D01*
X118864235Y-101910071D01*
X118855970Y-101933171D01*
X118845480Y-101955349D01*
X118832867Y-101976393D01*
X118818253Y-101996098D01*
X118801777Y-102014277D01*
X118783598Y-102030753D01*
X118763893Y-102045367D01*
X118742849Y-102057980D01*
X118720671Y-102068470D01*
X118697571Y-102076735D01*
X118673773Y-102082696D01*
X118649504Y-102086296D01*
X118625000Y-102087500D01*
X117375000Y-102087500D01*
X117350496Y-102086296D01*
X117326227Y-102082696D01*
X117302429Y-102076735D01*
X117279329Y-102068470D01*
X117257151Y-102057980D01*
X117236107Y-102045367D01*
X117216402Y-102030753D01*
X117198223Y-102014277D01*
X117181747Y-101996098D01*
X117167133Y-101976393D01*
X117154520Y-101955349D01*
X117144030Y-101933171D01*
X117135765Y-101910071D01*
X117129804Y-101886273D01*
X117126204Y-101862004D01*
X117125000Y-101837500D01*
X117125000Y-100912500D01*
X117126204Y-100887996D01*
X117129804Y-100863727D01*
X117135765Y-100839929D01*
X117144030Y-100816829D01*
X117154520Y-100794651D01*
X117167133Y-100773607D01*
X117181747Y-100753902D01*
X117198223Y-100735723D01*
X117216402Y-100719247D01*
X117236107Y-100704633D01*
X117257151Y-100692020D01*
X117279329Y-100681530D01*
X117302429Y-100673265D01*
X117326227Y-100667304D01*
X117350496Y-100663704D01*
X117375000Y-100662500D01*
X118625000Y-100662500D01*
X118649504Y-100663704D01*
G37*
G36*
X160299504Y-91926204D02*
G01*
X160323773Y-91929804D01*
X160347571Y-91935765D01*
X160370671Y-91944030D01*
X160392849Y-91954520D01*
X160413893Y-91967133D01*
X160433598Y-91981747D01*
X160451777Y-91998223D01*
X160468253Y-92016402D01*
X160482867Y-92036107D01*
X160495480Y-92057151D01*
X160505970Y-92079329D01*
X160514235Y-92102429D01*
X160520196Y-92126227D01*
X160523796Y-92150496D01*
X160525000Y-92175000D01*
X160525000Y-93425000D01*
X160523796Y-93449504D01*
X160520196Y-93473773D01*
X160514235Y-93497571D01*
X160505970Y-93520671D01*
X160495480Y-93542849D01*
X160482867Y-93563893D01*
X160468253Y-93583598D01*
X160451777Y-93601777D01*
X160433598Y-93618253D01*
X160413893Y-93632867D01*
X160392849Y-93645480D01*
X160370671Y-93655970D01*
X160347571Y-93664235D01*
X160323773Y-93670196D01*
X160299504Y-93673796D01*
X160275000Y-93675000D01*
X159350000Y-93675000D01*
X159325496Y-93673796D01*
X159301227Y-93670196D01*
X159277429Y-93664235D01*
X159254329Y-93655970D01*
X159232151Y-93645480D01*
X159211107Y-93632867D01*
X159191402Y-93618253D01*
X159173223Y-93601777D01*
X159156747Y-93583598D01*
X159142133Y-93563893D01*
X159129520Y-93542849D01*
X159119030Y-93520671D01*
X159110765Y-93497571D01*
X159104804Y-93473773D01*
X159101204Y-93449504D01*
X159100000Y-93425000D01*
X159100000Y-92175000D01*
X159101204Y-92150496D01*
X159104804Y-92126227D01*
X159110765Y-92102429D01*
X159119030Y-92079329D01*
X159129520Y-92057151D01*
X159142133Y-92036107D01*
X159156747Y-92016402D01*
X159173223Y-91998223D01*
X159191402Y-91981747D01*
X159211107Y-91967133D01*
X159232151Y-91954520D01*
X159254329Y-91944030D01*
X159277429Y-91935765D01*
X159301227Y-91929804D01*
X159325496Y-91926204D01*
X159350000Y-91925000D01*
X160275000Y-91925000D01*
X160299504Y-91926204D01*
G37*
G36*
X163274504Y-91926204D02*
G01*
X163298773Y-91929804D01*
X163322571Y-91935765D01*
X163345671Y-91944030D01*
X163367849Y-91954520D01*
X163388893Y-91967133D01*
X163408598Y-91981747D01*
X163426777Y-91998223D01*
X163443253Y-92016402D01*
X163457867Y-92036107D01*
X163470480Y-92057151D01*
X163480970Y-92079329D01*
X163489235Y-92102429D01*
X163495196Y-92126227D01*
X163498796Y-92150496D01*
X163500000Y-92175000D01*
X163500000Y-93425000D01*
X163498796Y-93449504D01*
X163495196Y-93473773D01*
X163489235Y-93497571D01*
X163480970Y-93520671D01*
X163470480Y-93542849D01*
X163457867Y-93563893D01*
X163443253Y-93583598D01*
X163426777Y-93601777D01*
X163408598Y-93618253D01*
X163388893Y-93632867D01*
X163367849Y-93645480D01*
X163345671Y-93655970D01*
X163322571Y-93664235D01*
X163298773Y-93670196D01*
X163274504Y-93673796D01*
X163250000Y-93675000D01*
X162325000Y-93675000D01*
X162300496Y-93673796D01*
X162276227Y-93670196D01*
X162252429Y-93664235D01*
X162229329Y-93655970D01*
X162207151Y-93645480D01*
X162186107Y-93632867D01*
X162166402Y-93618253D01*
X162148223Y-93601777D01*
X162131747Y-93583598D01*
X162117133Y-93563893D01*
X162104520Y-93542849D01*
X162094030Y-93520671D01*
X162085765Y-93497571D01*
X162079804Y-93473773D01*
X162076204Y-93449504D01*
X162075000Y-93425000D01*
X162075000Y-92175000D01*
X162076204Y-92150496D01*
X162079804Y-92126227D01*
X162085765Y-92102429D01*
X162094030Y-92079329D01*
X162104520Y-92057151D01*
X162117133Y-92036107D01*
X162131747Y-92016402D01*
X162148223Y-91998223D01*
X162166402Y-91981747D01*
X162186107Y-91967133D01*
X162207151Y-91954520D01*
X162229329Y-91944030D01*
X162252429Y-91935765D01*
X162276227Y-91929804D01*
X162300496Y-91926204D01*
X162325000Y-91925000D01*
X163250000Y-91925000D01*
X163274504Y-91926204D01*
G37*
G36*
X168462004Y-91926204D02*
G01*
X168486273Y-91929804D01*
X168510071Y-91935765D01*
X168533171Y-91944030D01*
X168555349Y-91954520D01*
X168576393Y-91967133D01*
X168596098Y-91981747D01*
X168614277Y-91998223D01*
X168630753Y-92016402D01*
X168645367Y-92036107D01*
X168657980Y-92057151D01*
X168668470Y-92079329D01*
X168676735Y-92102429D01*
X168682696Y-92126227D01*
X168686296Y-92150496D01*
X168687500Y-92175000D01*
X168687500Y-93425000D01*
X168686296Y-93449504D01*
X168682696Y-93473773D01*
X168676735Y-93497571D01*
X168668470Y-93520671D01*
X168657980Y-93542849D01*
X168645367Y-93563893D01*
X168630753Y-93583598D01*
X168614277Y-93601777D01*
X168596098Y-93618253D01*
X168576393Y-93632867D01*
X168555349Y-93645480D01*
X168533171Y-93655970D01*
X168510071Y-93664235D01*
X168486273Y-93670196D01*
X168462004Y-93673796D01*
X168437500Y-93675000D01*
X167512500Y-93675000D01*
X167487996Y-93673796D01*
X167463727Y-93670196D01*
X167439929Y-93664235D01*
X167416829Y-93655970D01*
X167394651Y-93645480D01*
X167373607Y-93632867D01*
X167353902Y-93618253D01*
X167335723Y-93601777D01*
X167319247Y-93583598D01*
X167304633Y-93563893D01*
X167292020Y-93542849D01*
X167281530Y-93520671D01*
X167273265Y-93497571D01*
X167267304Y-93473773D01*
X167263704Y-93449504D01*
X167262500Y-93425000D01*
X167262500Y-92175000D01*
X167263704Y-92150496D01*
X167267304Y-92126227D01*
X167273265Y-92102429D01*
X167281530Y-92079329D01*
X167292020Y-92057151D01*
X167304633Y-92036107D01*
X167319247Y-92016402D01*
X167335723Y-91998223D01*
X167353902Y-91981747D01*
X167373607Y-91967133D01*
X167394651Y-91954520D01*
X167416829Y-91944030D01*
X167439929Y-91935765D01*
X167463727Y-91929804D01*
X167487996Y-91926204D01*
X167512500Y-91925000D01*
X168437500Y-91925000D01*
X168462004Y-91926204D01*
G37*
G36*
X165487004Y-91926204D02*
G01*
X165511273Y-91929804D01*
X165535071Y-91935765D01*
X165558171Y-91944030D01*
X165580349Y-91954520D01*
X165601393Y-91967133D01*
X165621098Y-91981747D01*
X165639277Y-91998223D01*
X165655753Y-92016402D01*
X165670367Y-92036107D01*
X165682980Y-92057151D01*
X165693470Y-92079329D01*
X165701735Y-92102429D01*
X165707696Y-92126227D01*
X165711296Y-92150496D01*
X165712500Y-92175000D01*
X165712500Y-93425000D01*
X165711296Y-93449504D01*
X165707696Y-93473773D01*
X165701735Y-93497571D01*
X165693470Y-93520671D01*
X165682980Y-93542849D01*
X165670367Y-93563893D01*
X165655753Y-93583598D01*
X165639277Y-93601777D01*
X165621098Y-93618253D01*
X165601393Y-93632867D01*
X165580349Y-93645480D01*
X165558171Y-93655970D01*
X165535071Y-93664235D01*
X165511273Y-93670196D01*
X165487004Y-93673796D01*
X165462500Y-93675000D01*
X164537500Y-93675000D01*
X164512996Y-93673796D01*
X164488727Y-93670196D01*
X164464929Y-93664235D01*
X164441829Y-93655970D01*
X164419651Y-93645480D01*
X164398607Y-93632867D01*
X164378902Y-93618253D01*
X164360723Y-93601777D01*
X164344247Y-93583598D01*
X164329633Y-93563893D01*
X164317020Y-93542849D01*
X164306530Y-93520671D01*
X164298265Y-93497571D01*
X164292304Y-93473773D01*
X164288704Y-93449504D01*
X164287500Y-93425000D01*
X164287500Y-92175000D01*
X164288704Y-92150496D01*
X164292304Y-92126227D01*
X164298265Y-92102429D01*
X164306530Y-92079329D01*
X164317020Y-92057151D01*
X164329633Y-92036107D01*
X164344247Y-92016402D01*
X164360723Y-91998223D01*
X164378902Y-91981747D01*
X164398607Y-91967133D01*
X164419651Y-91954520D01*
X164441829Y-91944030D01*
X164464929Y-91935765D01*
X164488727Y-91929804D01*
X164512996Y-91926204D01*
X164537500Y-91925000D01*
X165462500Y-91925000D01*
X165487004Y-91926204D01*
G37*
G36*
X162662004Y-114926204D02*
G01*
X162686273Y-114929804D01*
X162710071Y-114935765D01*
X162733171Y-114944030D01*
X162755349Y-114954520D01*
X162776393Y-114967133D01*
X162796098Y-114981747D01*
X162814277Y-114998223D01*
X162830753Y-115016402D01*
X162845367Y-115036107D01*
X162857980Y-115057151D01*
X162868470Y-115079329D01*
X162876735Y-115102429D01*
X162882696Y-115126227D01*
X162886296Y-115150496D01*
X162887500Y-115175000D01*
X162887500Y-116425000D01*
X162886296Y-116449504D01*
X162882696Y-116473773D01*
X162876735Y-116497571D01*
X162868470Y-116520671D01*
X162857980Y-116542849D01*
X162845367Y-116563893D01*
X162830753Y-116583598D01*
X162814277Y-116601777D01*
X162796098Y-116618253D01*
X162776393Y-116632867D01*
X162755349Y-116645480D01*
X162733171Y-116655970D01*
X162710071Y-116664235D01*
X162686273Y-116670196D01*
X162662004Y-116673796D01*
X162637500Y-116675000D01*
X161712500Y-116675000D01*
X161687996Y-116673796D01*
X161663727Y-116670196D01*
X161639929Y-116664235D01*
X161616829Y-116655970D01*
X161594651Y-116645480D01*
X161573607Y-116632867D01*
X161553902Y-116618253D01*
X161535723Y-116601777D01*
X161519247Y-116583598D01*
X161504633Y-116563893D01*
X161492020Y-116542849D01*
X161481530Y-116520671D01*
X161473265Y-116497571D01*
X161467304Y-116473773D01*
X161463704Y-116449504D01*
X161462500Y-116425000D01*
X161462500Y-115175000D01*
X161463704Y-115150496D01*
X161467304Y-115126227D01*
X161473265Y-115102429D01*
X161481530Y-115079329D01*
X161492020Y-115057151D01*
X161504633Y-115036107D01*
X161519247Y-115016402D01*
X161535723Y-114998223D01*
X161553902Y-114981747D01*
X161573607Y-114967133D01*
X161594651Y-114954520D01*
X161616829Y-114944030D01*
X161639929Y-114935765D01*
X161663727Y-114929804D01*
X161687996Y-114926204D01*
X161712500Y-114925000D01*
X162637500Y-114925000D01*
X162662004Y-114926204D01*
G37*
G36*
X159687004Y-114926204D02*
G01*
X159711273Y-114929804D01*
X159735071Y-114935765D01*
X159758171Y-114944030D01*
X159780349Y-114954520D01*
X159801393Y-114967133D01*
X159821098Y-114981747D01*
X159839277Y-114998223D01*
X159855753Y-115016402D01*
X159870367Y-115036107D01*
X159882980Y-115057151D01*
X159893470Y-115079329D01*
X159901735Y-115102429D01*
X159907696Y-115126227D01*
X159911296Y-115150496D01*
X159912500Y-115175000D01*
X159912500Y-116425000D01*
X159911296Y-116449504D01*
X159907696Y-116473773D01*
X159901735Y-116497571D01*
X159893470Y-116520671D01*
X159882980Y-116542849D01*
X159870367Y-116563893D01*
X159855753Y-116583598D01*
X159839277Y-116601777D01*
X159821098Y-116618253D01*
X159801393Y-116632867D01*
X159780349Y-116645480D01*
X159758171Y-116655970D01*
X159735071Y-116664235D01*
X159711273Y-116670196D01*
X159687004Y-116673796D01*
X159662500Y-116675000D01*
X158737500Y-116675000D01*
X158712996Y-116673796D01*
X158688727Y-116670196D01*
X158664929Y-116664235D01*
X158641829Y-116655970D01*
X158619651Y-116645480D01*
X158598607Y-116632867D01*
X158578902Y-116618253D01*
X158560723Y-116601777D01*
X158544247Y-116583598D01*
X158529633Y-116563893D01*
X158517020Y-116542849D01*
X158506530Y-116520671D01*
X158498265Y-116497571D01*
X158492304Y-116473773D01*
X158488704Y-116449504D01*
X158487500Y-116425000D01*
X158487500Y-115175000D01*
X158488704Y-115150496D01*
X158492304Y-115126227D01*
X158498265Y-115102429D01*
X158506530Y-115079329D01*
X158517020Y-115057151D01*
X158529633Y-115036107D01*
X158544247Y-115016402D01*
X158560723Y-114998223D01*
X158578902Y-114981747D01*
X158598607Y-114967133D01*
X158619651Y-114954520D01*
X158641829Y-114944030D01*
X158664929Y-114935765D01*
X158688727Y-114929804D01*
X158712996Y-114926204D01*
X158737500Y-114925000D01*
X159662500Y-114925000D01*
X159687004Y-114926204D01*
G37*
D11*
X153350000Y-92825000D03*
X157850000Y-92825000D03*
X157850000Y-100775000D03*
X153350000Y-100775000D03*
D12*
X150500000Y-95450000D03*
D13*
X144200000Y-95450000D03*
X144200000Y-97750000D03*
X144200000Y-93150000D03*
D14*
X175700000Y-95800000D03*
X173700000Y-95800000D03*
X171700000Y-95800000D03*
X169700000Y-95800000D03*
X167700000Y-95800000D03*
X165700000Y-95800000D03*
X163700000Y-95800000D03*
X161700000Y-95800000D03*
D15*
X160200000Y-98400000D03*
X160200000Y-100400000D03*
X160200000Y-102400000D03*
X160200000Y-104400000D03*
X160200000Y-106400000D03*
X160200000Y-108400000D03*
D14*
X161700000Y-111000000D03*
X163700000Y-111000000D03*
X165700000Y-111000000D03*
X167700000Y-111000000D03*
X169700000Y-111000000D03*
X171700000Y-111000000D03*
X173700000Y-111000000D03*
X175700000Y-111000000D03*
M02*
