G04 #@! TF.GenerationSoftware,KiCad,Pcbnew,(5.1.5-0-10_14)*
G04 #@! TF.CreationDate,2020-05-25T09:14:52+02:00*
G04 #@! TF.ProjectId,ESP8266-PowerMonitor,45535038-3236-4362-9d50-6f7765724d6f,rev?*
G04 #@! TF.SameCoordinates,Original*
G04 #@! TF.FileFunction,Other,Fab,Top*
%FSLAX46Y46*%
G04 Gerber Fmt 4.6, Leading zero omitted, Abs format (unit mm)*
G04 Created by KiCad (PCBNEW (5.1.5-0-10_14)) date 2020-05-25 09:14:52*
%MOMM*%
%LPD*%
G04 APERTURE LIST*
%ADD10C,0.100000*%
%ADD11C,0.120000*%
%ADD12C,0.150000*%
G04 APERTURE END LIST*
D10*
X156030000Y-102865000D02*
X156665000Y-102230000D01*
X156030000Y-112390000D02*
X156030000Y-102865000D01*
X158570000Y-112390000D02*
X156030000Y-112390000D01*
X158570000Y-102230000D02*
X158570000Y-112390000D01*
X156665000Y-102230000D02*
X158570000Y-102230000D01*
D11*
X184500000Y-97250000D02*
X184500000Y-113250000D01*
X184500000Y-113250000D02*
X160500000Y-113250000D01*
X160500000Y-113250000D02*
X160500000Y-97250000D01*
X160500000Y-97250000D02*
X175500000Y-97250000D01*
X175500000Y-97250000D02*
X176000000Y-97750000D01*
X176000000Y-97750000D02*
X176500000Y-97250000D01*
X176500000Y-97250000D02*
X184500000Y-97250000D01*
D10*
X163730000Y-116835000D02*
X163730000Y-114930000D01*
X163730000Y-114930000D02*
X176430000Y-114930000D01*
X176430000Y-114930000D02*
X176430000Y-117470000D01*
X176430000Y-117470000D02*
X164365000Y-117470000D01*
X164365000Y-117470000D02*
X163730000Y-116835000D01*
X159887500Y-94350000D02*
X159887500Y-92750000D01*
X159887500Y-92750000D02*
X163087500Y-92750000D01*
X163087500Y-92750000D02*
X163087500Y-94350000D01*
X163087500Y-94350000D02*
X159887500Y-94350000D01*
X173662500Y-94350000D02*
X170462500Y-94350000D01*
X173662500Y-92750000D02*
X173662500Y-94350000D01*
X170462500Y-92750000D02*
X173662500Y-92750000D01*
X170462500Y-94350000D02*
X170462500Y-92750000D01*
X168212500Y-92750000D02*
X168212500Y-94350000D01*
X168212500Y-94350000D02*
X165012500Y-94350000D01*
X165012500Y-94350000D02*
X165012500Y-92750000D01*
X165012500Y-92750000D02*
X168212500Y-92750000D01*
X162012500Y-116350000D02*
X158812500Y-116350000D01*
X162012500Y-114750000D02*
X162012500Y-116350000D01*
X158812500Y-114750000D02*
X162012500Y-114750000D01*
X158812500Y-116350000D02*
X158812500Y-114750000D01*
X158600000Y-93800000D02*
X152600000Y-93800000D01*
X152600000Y-93800000D02*
X152600000Y-99800000D01*
X152600000Y-99800000D02*
X158600000Y-99800000D01*
X158600000Y-99800000D02*
X158600000Y-93800000D01*
X157350714Y-96800000D02*
G75*
G03X157350714Y-96800000I-1750714J0D01*
G01*
X145000000Y-92950000D02*
X146000000Y-91950000D01*
X145000000Y-92950000D02*
X145000000Y-98650000D01*
X146000000Y-91950000D02*
X148700000Y-91950000D01*
X145000000Y-98650000D02*
X148700000Y-98650000D01*
X148700000Y-91950000D02*
X148700000Y-98650000D01*
X144320000Y-115415000D02*
X144320000Y-117320000D01*
X144320000Y-117320000D02*
X136700000Y-117320000D01*
X136700000Y-117320000D02*
X136700000Y-114780000D01*
X136700000Y-114780000D02*
X143685000Y-114780000D01*
X143685000Y-114780000D02*
X144320000Y-115415000D01*
X149100000Y-110100000D02*
G75*
G03X149100000Y-110100000I-2000000J0D01*
G01*
X149250000Y-112250000D02*
X144950000Y-112250000D01*
X149250000Y-108950000D02*
X149250000Y-112250000D01*
X144950000Y-108950000D02*
X144950000Y-112250000D01*
X148250000Y-107950000D02*
X145950000Y-107950000D01*
X148250000Y-107950000D02*
X149250000Y-108950000D01*
X145950000Y-107950000D02*
X144950000Y-108950000D01*
X148100000Y-108525227D02*
X148100000Y-108925227D01*
X148300000Y-108725227D02*
X147900000Y-108725227D01*
X151012500Y-101600000D02*
X147812500Y-101600000D01*
X151012500Y-100000000D02*
X151012500Y-101600000D01*
X147812500Y-100000000D02*
X151012500Y-100000000D01*
X147812500Y-101600000D02*
X147812500Y-100000000D01*
X151170000Y-115365000D02*
X151170000Y-117270000D01*
X151170000Y-117270000D02*
X146090000Y-117270000D01*
X146090000Y-117270000D02*
X146090000Y-114730000D01*
X146090000Y-114730000D02*
X150535000Y-114730000D01*
X150535000Y-114730000D02*
X151170000Y-115365000D01*
X140912500Y-113900000D02*
X137712500Y-113900000D01*
X140912500Y-112300000D02*
X140912500Y-113900000D01*
X137712500Y-112300000D02*
X140912500Y-112300000D01*
X137712500Y-113900000D02*
X137712500Y-112300000D01*
X117200000Y-98287500D02*
X118800000Y-98287500D01*
X118800000Y-98287500D02*
X118800000Y-101487500D01*
X118800000Y-101487500D02*
X117200000Y-101487500D01*
X117200000Y-101487500D02*
X117200000Y-98287500D01*
X121090000Y-116350000D02*
X130990000Y-116350000D01*
X121040000Y-110050000D02*
X121040000Y-117550000D01*
X121040000Y-117550000D02*
X131040000Y-117550000D01*
X131040000Y-117550000D02*
X131040000Y-110050000D01*
X131040000Y-110050000D02*
X121040000Y-110050000D01*
X107800000Y-110950000D02*
X141800000Y-110950000D01*
X141800000Y-110950000D02*
X141800000Y-90950000D01*
X107800000Y-110950000D02*
X107800000Y-99440000D01*
X107800000Y-90950000D02*
X141800000Y-90950000D01*
X108810000Y-98450000D02*
X107810000Y-99450000D01*
X107810000Y-97450000D02*
X108810000Y-98450000D01*
X107800000Y-97450000D02*
X107800000Y-90950000D01*
D12*
X116616666Y-114252380D02*
X116283333Y-113776190D01*
X116045238Y-114252380D02*
X116045238Y-113252380D01*
X116426190Y-113252380D01*
X116521428Y-113300000D01*
X116569047Y-113347619D01*
X116616666Y-113442857D01*
X116616666Y-113585714D01*
X116569047Y-113680952D01*
X116521428Y-113728571D01*
X116426190Y-113776190D01*
X116045238Y-113776190D01*
X117045238Y-113728571D02*
X117378571Y-113728571D01*
X117521428Y-114252380D02*
X117045238Y-114252380D01*
X117045238Y-113252380D01*
X117521428Y-113252380D01*
X118283333Y-113728571D02*
X117950000Y-113728571D01*
X117950000Y-114252380D02*
X117950000Y-113252380D01*
X118426190Y-113252380D01*
X118950000Y-113252380D02*
X118950000Y-113490476D01*
X118711904Y-113395238D02*
X118950000Y-113490476D01*
X119188095Y-113395238D01*
X118807142Y-113680952D02*
X118950000Y-113490476D01*
X119092857Y-113680952D01*
X119711904Y-113252380D02*
X119711904Y-113490476D01*
X119473809Y-113395238D02*
X119711904Y-113490476D01*
X119950000Y-113395238D01*
X119569047Y-113680952D02*
X119711904Y-113490476D01*
X119854761Y-113680952D01*
X156752380Y-107643333D02*
X157466666Y-107643333D01*
X157609523Y-107690952D01*
X157704761Y-107786190D01*
X157752380Y-107929047D01*
X157752380Y-108024285D01*
X156752380Y-106690952D02*
X156752380Y-107167142D01*
X157228571Y-107214761D01*
X157180952Y-107167142D01*
X157133333Y-107071904D01*
X157133333Y-106833809D01*
X157180952Y-106738571D01*
X157228571Y-106690952D01*
X157323809Y-106643333D01*
X157561904Y-106643333D01*
X157657142Y-106690952D01*
X157704761Y-106738571D01*
X157752380Y-106833809D01*
X157752380Y-107071904D01*
X157704761Y-107167142D01*
X157657142Y-107214761D01*
X172752380Y-106501904D02*
X173561904Y-106501904D01*
X173657142Y-106454285D01*
X173704761Y-106406666D01*
X173752380Y-106311428D01*
X173752380Y-106120952D01*
X173704761Y-106025714D01*
X173657142Y-105978095D01*
X173561904Y-105930476D01*
X172752380Y-105930476D01*
X172847619Y-105501904D02*
X172800000Y-105454285D01*
X172752380Y-105359047D01*
X172752380Y-105120952D01*
X172800000Y-105025714D01*
X172847619Y-104978095D01*
X172942857Y-104930476D01*
X173038095Y-104930476D01*
X173180952Y-104978095D01*
X173752380Y-105549523D01*
X173752380Y-104930476D01*
X169746666Y-115652380D02*
X169746666Y-116366666D01*
X169699047Y-116509523D01*
X169603809Y-116604761D01*
X169460952Y-116652380D01*
X169365714Y-116652380D01*
X170175238Y-115747619D02*
X170222857Y-115700000D01*
X170318095Y-115652380D01*
X170556190Y-115652380D01*
X170651428Y-115700000D01*
X170699047Y-115747619D01*
X170746666Y-115842857D01*
X170746666Y-115938095D01*
X170699047Y-116080952D01*
X170127619Y-116652380D01*
X170746666Y-116652380D01*
D11*
X161266666Y-94011904D02*
X161000000Y-93630952D01*
X160809523Y-94011904D02*
X160809523Y-93211904D01*
X161114285Y-93211904D01*
X161190476Y-93250000D01*
X161228571Y-93288095D01*
X161266666Y-93364285D01*
X161266666Y-93478571D01*
X161228571Y-93554761D01*
X161190476Y-93592857D01*
X161114285Y-93630952D01*
X160809523Y-93630952D01*
X162028571Y-94011904D02*
X161571428Y-94011904D01*
X161800000Y-94011904D02*
X161800000Y-93211904D01*
X161723809Y-93326190D01*
X161647619Y-93402380D01*
X161571428Y-93440476D01*
X171929166Y-93911904D02*
X171662500Y-93530952D01*
X171472023Y-93911904D02*
X171472023Y-93111904D01*
X171776785Y-93111904D01*
X171852976Y-93150000D01*
X171891071Y-93188095D01*
X171929166Y-93264285D01*
X171929166Y-93378571D01*
X171891071Y-93454761D01*
X171852976Y-93492857D01*
X171776785Y-93530952D01*
X171472023Y-93530952D01*
X172233928Y-93188095D02*
X172272023Y-93150000D01*
X172348214Y-93111904D01*
X172538690Y-93111904D01*
X172614880Y-93150000D01*
X172652976Y-93188095D01*
X172691071Y-93264285D01*
X172691071Y-93340476D01*
X172652976Y-93454761D01*
X172195833Y-93911904D01*
X172691071Y-93911904D01*
X154861904Y-115333333D02*
X154480952Y-115600000D01*
X154861904Y-115790476D02*
X154061904Y-115790476D01*
X154061904Y-115485714D01*
X154100000Y-115409523D01*
X154138095Y-115371428D01*
X154214285Y-115333333D01*
X154328571Y-115333333D01*
X154404761Y-115371428D01*
X154442857Y-115409523D01*
X154480952Y-115485714D01*
X154480952Y-115790476D01*
X154061904Y-115066666D02*
X154061904Y-114571428D01*
X154366666Y-114838095D01*
X154366666Y-114723809D01*
X154404761Y-114647619D01*
X154442857Y-114609523D01*
X154519047Y-114571428D01*
X154709523Y-114571428D01*
X154785714Y-114609523D01*
X154823809Y-114647619D01*
X154861904Y-114723809D01*
X154861904Y-114952380D01*
X154823809Y-115028571D01*
X154785714Y-115066666D01*
X166479166Y-93911904D02*
X166212500Y-93530952D01*
X166022023Y-93911904D02*
X166022023Y-93111904D01*
X166326785Y-93111904D01*
X166402976Y-93150000D01*
X166441071Y-93188095D01*
X166479166Y-93264285D01*
X166479166Y-93378571D01*
X166441071Y-93454761D01*
X166402976Y-93492857D01*
X166326785Y-93530952D01*
X166022023Y-93530952D01*
X167202976Y-93111904D02*
X166822023Y-93111904D01*
X166783928Y-93492857D01*
X166822023Y-93454761D01*
X166898214Y-93416666D01*
X167088690Y-93416666D01*
X167164880Y-93454761D01*
X167202976Y-93492857D01*
X167241071Y-93569047D01*
X167241071Y-93759523D01*
X167202976Y-93835714D01*
X167164880Y-93873809D01*
X167088690Y-93911904D01*
X166898214Y-93911904D01*
X166822023Y-93873809D01*
X166783928Y-93835714D01*
X160279166Y-115911904D02*
X160012500Y-115530952D01*
X159822023Y-115911904D02*
X159822023Y-115111904D01*
X160126785Y-115111904D01*
X160202976Y-115150000D01*
X160241071Y-115188095D01*
X160279166Y-115264285D01*
X160279166Y-115378571D01*
X160241071Y-115454761D01*
X160202976Y-115492857D01*
X160126785Y-115530952D01*
X159822023Y-115530952D01*
X160964880Y-115111904D02*
X160812500Y-115111904D01*
X160736309Y-115150000D01*
X160698214Y-115188095D01*
X160622023Y-115302380D01*
X160583928Y-115454761D01*
X160583928Y-115759523D01*
X160622023Y-115835714D01*
X160660119Y-115873809D01*
X160736309Y-115911904D01*
X160888690Y-115911904D01*
X160964880Y-115873809D01*
X161002976Y-115835714D01*
X161041071Y-115759523D01*
X161041071Y-115569047D01*
X161002976Y-115492857D01*
X160964880Y-115454761D01*
X160888690Y-115416666D01*
X160736309Y-115416666D01*
X160660119Y-115454761D01*
X160622023Y-115492857D01*
X160583928Y-115569047D01*
D12*
X160054761Y-98133333D02*
X160102380Y-97990476D01*
X160102380Y-97752380D01*
X160054761Y-97657142D01*
X160007142Y-97609523D01*
X159911904Y-97561904D01*
X159816666Y-97561904D01*
X159721428Y-97609523D01*
X159673809Y-97657142D01*
X159626190Y-97752380D01*
X159578571Y-97942857D01*
X159530952Y-98038095D01*
X159483333Y-98085714D01*
X159388095Y-98133333D01*
X159292857Y-98133333D01*
X159197619Y-98085714D01*
X159150000Y-98038095D01*
X159102380Y-97942857D01*
X159102380Y-97704761D01*
X159150000Y-97561904D01*
X159102380Y-97228571D02*
X160102380Y-96990476D01*
X159388095Y-96800000D01*
X160102380Y-96609523D01*
X159102380Y-96371428D01*
X160102380Y-95466666D02*
X160102380Y-96038095D01*
X160102380Y-95752380D02*
X159102380Y-95752380D01*
X159245238Y-95847619D01*
X159340476Y-95942857D01*
X159388095Y-96038095D01*
D11*
X146411904Y-95909523D02*
X147059523Y-95909523D01*
X147135714Y-95871428D01*
X147173809Y-95833333D01*
X147211904Y-95757142D01*
X147211904Y-95604761D01*
X147173809Y-95528571D01*
X147135714Y-95490476D01*
X147059523Y-95452380D01*
X146411904Y-95452380D01*
X147211904Y-94652380D02*
X147211904Y-95109523D01*
X147211904Y-94880952D02*
X146411904Y-94880952D01*
X146526190Y-94957142D01*
X146602380Y-95033333D01*
X146640476Y-95109523D01*
D12*
X140176666Y-115502380D02*
X140176666Y-116216666D01*
X140129047Y-116359523D01*
X140033809Y-116454761D01*
X139890952Y-116502380D01*
X139795714Y-116502380D01*
X141081428Y-115835714D02*
X141081428Y-116502380D01*
X140843333Y-115454761D02*
X140605238Y-116169047D01*
X141224285Y-116169047D01*
D11*
X147385714Y-110233333D02*
X147423809Y-110271428D01*
X147461904Y-110385714D01*
X147461904Y-110461904D01*
X147423809Y-110576190D01*
X147347619Y-110652380D01*
X147271428Y-110690476D01*
X147119047Y-110728571D01*
X147004761Y-110728571D01*
X146852380Y-110690476D01*
X146776190Y-110652380D01*
X146700000Y-110576190D01*
X146661904Y-110461904D01*
X146661904Y-110385714D01*
X146700000Y-110271428D01*
X146738095Y-110233333D01*
X146738095Y-109928571D02*
X146700000Y-109890476D01*
X146661904Y-109814285D01*
X146661904Y-109623809D01*
X146700000Y-109547619D01*
X146738095Y-109509523D01*
X146814285Y-109471428D01*
X146890476Y-109471428D01*
X147004761Y-109509523D01*
X147461904Y-109966666D01*
X147461904Y-109471428D01*
D12*
X148082380Y-116333333D02*
X148796666Y-116333333D01*
X148939523Y-116380952D01*
X149034761Y-116476190D01*
X149082380Y-116619047D01*
X149082380Y-116714285D01*
X149082380Y-115333333D02*
X149082380Y-115904761D01*
X149082380Y-115619047D02*
X148082380Y-115619047D01*
X148225238Y-115714285D01*
X148320476Y-115809523D01*
X148368095Y-115904761D01*
D11*
X139179166Y-113461904D02*
X138912500Y-113080952D01*
X138722023Y-113461904D02*
X138722023Y-112661904D01*
X139026785Y-112661904D01*
X139102976Y-112700000D01*
X139141071Y-112738095D01*
X139179166Y-112814285D01*
X139179166Y-112928571D01*
X139141071Y-113004761D01*
X139102976Y-113042857D01*
X139026785Y-113080952D01*
X138722023Y-113080952D01*
X139445833Y-112661904D02*
X139979166Y-112661904D01*
X139636309Y-113461904D01*
X117942857Y-100154166D02*
X117942857Y-100420833D01*
X118361904Y-100420833D02*
X117561904Y-100420833D01*
X117561904Y-100039880D01*
X118361904Y-99316071D02*
X118361904Y-99773214D01*
X118361904Y-99544642D02*
X117561904Y-99544642D01*
X117676190Y-99620833D01*
X117752380Y-99697023D01*
X117790476Y-99773214D01*
D12*
X126587619Y-113466666D02*
X125873333Y-113466666D01*
X125730476Y-113419047D01*
X125635238Y-113323809D01*
X125587619Y-113180952D01*
X125587619Y-113085714D01*
X126587619Y-113847619D02*
X126587619Y-114466666D01*
X126206666Y-114133333D01*
X126206666Y-114276190D01*
X126159047Y-114371428D01*
X126111428Y-114419047D01*
X126016190Y-114466666D01*
X125778095Y-114466666D01*
X125682857Y-114419047D01*
X125635238Y-114371428D01*
X125587619Y-114276190D01*
X125587619Y-113990476D01*
X125635238Y-113895238D01*
X125682857Y-113847619D01*
X123565714Y-100072380D02*
X123565714Y-99072380D01*
X123946666Y-99072380D01*
X124041904Y-99120000D01*
X124089523Y-99167619D01*
X124137142Y-99262857D01*
X124137142Y-99405714D01*
X124089523Y-99500952D01*
X124041904Y-99548571D01*
X123946666Y-99596190D01*
X123565714Y-99596190D01*
X124518095Y-100024761D02*
X124660952Y-100072380D01*
X124899047Y-100072380D01*
X124994285Y-100024761D01*
X125041904Y-99977142D01*
X125089523Y-99881904D01*
X125089523Y-99786666D01*
X125041904Y-99691428D01*
X124994285Y-99643809D01*
X124899047Y-99596190D01*
X124708571Y-99548571D01*
X124613333Y-99500952D01*
X124565714Y-99453333D01*
X124518095Y-99358095D01*
X124518095Y-99262857D01*
X124565714Y-99167619D01*
X124613333Y-99120000D01*
X124708571Y-99072380D01*
X124946666Y-99072380D01*
X125089523Y-99120000D01*
X126041904Y-100072380D02*
X125470476Y-100072380D01*
X125756190Y-100072380D02*
X125756190Y-99072380D01*
X125660952Y-99215238D01*
X125565714Y-99310476D01*
X125470476Y-99358095D01*
M02*
