G04 #@! TF.GenerationSoftware,KiCad,Pcbnew,(5.1.5-0-10_14)*
G04 #@! TF.CreationDate,2020-05-25T09:14:52+02:00*
G04 #@! TF.ProjectId,ESP8266-PowerMonitor,45535038-3236-4362-9d50-6f7765724d6f,rev?*
G04 #@! TF.SameCoordinates,Original*
G04 #@! TF.FileFunction,Legend,Bot*
G04 #@! TF.FilePolarity,Positive*
%FSLAX46Y46*%
G04 Gerber Fmt 4.6, Leading zero omitted, Abs format (unit mm)*
G04 Created by KiCad (PCBNEW (5.1.5-0-10_14)) date 2020-05-25 09:14:52*
%MOMM*%
%LPD*%
G04 APERTURE LIST*
%ADD10C,0.120000*%
%ADD11C,0.150000*%
G04 APERTURE END LIST*
D10*
X155314564Y-116460000D02*
X154110436Y-116460000D01*
X155314564Y-114640000D02*
X154110436Y-114640000D01*
X174239564Y-107740000D02*
X173035436Y-107740000D01*
X174239564Y-109560000D02*
X173035436Y-109560000D01*
X140310000Y-101502064D02*
X140310000Y-100297936D01*
X138490000Y-101502064D02*
X138490000Y-100297936D01*
D11*
X154879166Y-114182380D02*
X155212500Y-113706190D01*
X155450595Y-114182380D02*
X155450595Y-113182380D01*
X155069642Y-113182380D01*
X154974404Y-113230000D01*
X154926785Y-113277619D01*
X154879166Y-113372857D01*
X154879166Y-113515714D01*
X154926785Y-113610952D01*
X154974404Y-113658571D01*
X155069642Y-113706190D01*
X155450595Y-113706190D01*
X154545833Y-113182380D02*
X153926785Y-113182380D01*
X154260119Y-113563333D01*
X154117261Y-113563333D01*
X154022023Y-113610952D01*
X153974404Y-113658571D01*
X153926785Y-113753809D01*
X153926785Y-113991904D01*
X153974404Y-114087142D01*
X154022023Y-114134761D01*
X154117261Y-114182380D01*
X154402976Y-114182380D01*
X154498214Y-114134761D01*
X154545833Y-114087142D01*
X173804166Y-107282380D02*
X174137500Y-106806190D01*
X174375595Y-107282380D02*
X174375595Y-106282380D01*
X173994642Y-106282380D01*
X173899404Y-106330000D01*
X173851785Y-106377619D01*
X173804166Y-106472857D01*
X173804166Y-106615714D01*
X173851785Y-106710952D01*
X173899404Y-106758571D01*
X173994642Y-106806190D01*
X174375595Y-106806190D01*
X172947023Y-106615714D02*
X172947023Y-107282380D01*
X173185119Y-106234761D02*
X173423214Y-106949047D01*
X172804166Y-106949047D01*
X141577142Y-100733333D02*
X141624761Y-100685714D01*
X141672380Y-100542857D01*
X141672380Y-100447619D01*
X141624761Y-100304761D01*
X141529523Y-100209523D01*
X141434285Y-100161904D01*
X141243809Y-100114285D01*
X141100952Y-100114285D01*
X140910476Y-100161904D01*
X140815238Y-100209523D01*
X140720000Y-100304761D01*
X140672380Y-100447619D01*
X140672380Y-100542857D01*
X140720000Y-100685714D01*
X140767619Y-100733333D01*
X141672380Y-101685714D02*
X141672380Y-101114285D01*
X141672380Y-101400000D02*
X140672380Y-101400000D01*
X140815238Y-101304761D01*
X140910476Y-101209523D01*
X140958095Y-101114285D01*
M02*
