G04 #@! TF.GenerationSoftware,KiCad,Pcbnew,(5.1.5-0-10_14)*
G04 #@! TF.CreationDate,2020-05-25T09:14:52+02:00*
G04 #@! TF.ProjectId,ESP8266-PowerMonitor,45535038-3236-4362-9d50-6f7765724d6f,rev?*
G04 #@! TF.SameCoordinates,Original*
G04 #@! TF.FileFunction,Copper,L2,Bot*
G04 #@! TF.FilePolarity,Positive*
%FSLAX46Y46*%
G04 Gerber Fmt 4.6, Leading zero omitted, Abs format (unit mm)*
G04 Created by KiCad (PCBNEW (5.1.5-0-10_14)) date 2020-05-25 09:14:52*
%MOMM*%
%LPD*%
G04 APERTURE LIST*
%ADD10C,0.300000*%
%ADD11O,1.700000X1.700000*%
%ADD12R,1.700000X1.700000*%
%ADD13C,1.000000*%
%ADD14R,3.000000X3.000000*%
%ADD15C,3.000000*%
%ADD16C,2.300000*%
%ADD17R,2.300000X2.000000*%
%ADD18C,1.300000*%
%ADD19C,0.400000*%
G04 APERTURE END LIST*
D10*
X129378571Y-103528571D02*
X129378571Y-104742857D01*
X129450000Y-104885714D01*
X129521428Y-104957142D01*
X129664285Y-105028571D01*
X129878571Y-105028571D01*
X130021428Y-104957142D01*
X129378571Y-104457142D02*
X129521428Y-104528571D01*
X129807142Y-104528571D01*
X129950000Y-104457142D01*
X130021428Y-104385714D01*
X130092857Y-104242857D01*
X130092857Y-103814285D01*
X130021428Y-103671428D01*
X129950000Y-103600000D01*
X129807142Y-103528571D01*
X129521428Y-103528571D01*
X129378571Y-103600000D01*
X128664285Y-104528571D02*
X128664285Y-103528571D01*
X128664285Y-103028571D02*
X128735714Y-103100000D01*
X128664285Y-103171428D01*
X128592857Y-103100000D01*
X128664285Y-103028571D01*
X128664285Y-103171428D01*
X128164285Y-103528571D02*
X127592857Y-103528571D01*
X127950000Y-103028571D02*
X127950000Y-104314285D01*
X127878571Y-104457142D01*
X127735714Y-104528571D01*
X127592857Y-104528571D01*
X126878571Y-104528571D02*
X127021428Y-104457142D01*
X127092857Y-104314285D01*
X127092857Y-103028571D01*
X125664285Y-104528571D02*
X125664285Y-103742857D01*
X125735714Y-103600000D01*
X125878571Y-103528571D01*
X126164285Y-103528571D01*
X126307142Y-103600000D01*
X125664285Y-104457142D02*
X125807142Y-104528571D01*
X126164285Y-104528571D01*
X126307142Y-104457142D01*
X126378571Y-104314285D01*
X126378571Y-104171428D01*
X126307142Y-104028571D01*
X126164285Y-103957142D01*
X125807142Y-103957142D01*
X125664285Y-103885714D01*
X124950000Y-104528571D02*
X124950000Y-103028571D01*
X124950000Y-103600000D02*
X124807142Y-103528571D01*
X124521428Y-103528571D01*
X124378571Y-103600000D01*
X124307142Y-103671428D01*
X124235714Y-103814285D01*
X124235714Y-104242857D01*
X124307142Y-104385714D01*
X124378571Y-104457142D01*
X124521428Y-104528571D01*
X124807142Y-104528571D01*
X124950000Y-104457142D01*
X123592857Y-104385714D02*
X123521428Y-104457142D01*
X123592857Y-104528571D01*
X123664285Y-104457142D01*
X123592857Y-104385714D01*
X123592857Y-104528571D01*
X122235714Y-104457142D02*
X122378571Y-104528571D01*
X122664285Y-104528571D01*
X122807142Y-104457142D01*
X122878571Y-104385714D01*
X122950000Y-104242857D01*
X122950000Y-103814285D01*
X122878571Y-103671428D01*
X122807142Y-103600000D01*
X122664285Y-103528571D01*
X122378571Y-103528571D01*
X122235714Y-103600000D01*
X121378571Y-104528571D02*
X121521428Y-104457142D01*
X121592857Y-104385714D01*
X121664285Y-104242857D01*
X121664285Y-103814285D01*
X121592857Y-103671428D01*
X121521428Y-103600000D01*
X121378571Y-103528571D01*
X121164285Y-103528571D01*
X121021428Y-103600000D01*
X120950000Y-103671428D01*
X120878571Y-103814285D01*
X120878571Y-104242857D01*
X120950000Y-104385714D01*
X121021428Y-104457142D01*
X121164285Y-104528571D01*
X121378571Y-104528571D01*
X120235714Y-104528571D02*
X120235714Y-103528571D01*
X120235714Y-103671428D02*
X120164285Y-103600000D01*
X120021428Y-103528571D01*
X119807142Y-103528571D01*
X119664285Y-103600000D01*
X119592857Y-103742857D01*
X119592857Y-104528571D01*
X119592857Y-103742857D02*
X119521428Y-103600000D01*
X119378571Y-103528571D01*
X119164285Y-103528571D01*
X119021428Y-103600000D01*
X118950000Y-103742857D01*
X118950000Y-104528571D01*
X117164285Y-102957142D02*
X118450000Y-104885714D01*
X127378571Y-106078571D02*
X127378571Y-107364285D01*
X127450000Y-107507142D01*
X127592857Y-107578571D01*
X127664285Y-107578571D01*
X127378571Y-105578571D02*
X127450000Y-105650000D01*
X127378571Y-105721428D01*
X127307142Y-105650000D01*
X127378571Y-105578571D01*
X127378571Y-105721428D01*
X126021428Y-107078571D02*
X126021428Y-106292857D01*
X126092857Y-106150000D01*
X126235714Y-106078571D01*
X126521428Y-106078571D01*
X126664285Y-106150000D01*
X126021428Y-107007142D02*
X126164285Y-107078571D01*
X126521428Y-107078571D01*
X126664285Y-107007142D01*
X126735714Y-106864285D01*
X126735714Y-106721428D01*
X126664285Y-106578571D01*
X126521428Y-106507142D01*
X126164285Y-106507142D01*
X126021428Y-106435714D01*
X125378571Y-107007142D02*
X125235714Y-107078571D01*
X124950000Y-107078571D01*
X124807142Y-107007142D01*
X124735714Y-106864285D01*
X124735714Y-106792857D01*
X124807142Y-106650000D01*
X124950000Y-106578571D01*
X125164285Y-106578571D01*
X125307142Y-106507142D01*
X125378571Y-106364285D01*
X125378571Y-106292857D01*
X125307142Y-106150000D01*
X125164285Y-106078571D01*
X124950000Y-106078571D01*
X124807142Y-106150000D01*
X124092857Y-107078571D02*
X124092857Y-106078571D01*
X124092857Y-105578571D02*
X124164285Y-105650000D01*
X124092857Y-105721428D01*
X124021428Y-105650000D01*
X124092857Y-105578571D01*
X124092857Y-105721428D01*
X122807142Y-107007142D02*
X122950000Y-107078571D01*
X123235714Y-107078571D01*
X123378571Y-107007142D01*
X123450000Y-106864285D01*
X123450000Y-106292857D01*
X123378571Y-106150000D01*
X123235714Y-106078571D01*
X122950000Y-106078571D01*
X122807142Y-106150000D01*
X122735714Y-106292857D01*
X122735714Y-106435714D01*
X123450000Y-106578571D01*
X122092857Y-107078571D02*
X122092857Y-105578571D01*
X121950000Y-106507142D02*
X121521428Y-107078571D01*
X121521428Y-106078571D02*
X122092857Y-106650000D01*
X119807142Y-105507142D02*
X121092857Y-107435714D01*
X136735714Y-108842857D02*
X136235714Y-108842857D01*
X136021428Y-109628571D02*
X136735714Y-109628571D01*
X136735714Y-108128571D01*
X136021428Y-108128571D01*
X135450000Y-109557142D02*
X135235714Y-109628571D01*
X134878571Y-109628571D01*
X134735714Y-109557142D01*
X134664285Y-109485714D01*
X134592857Y-109342857D01*
X134592857Y-109200000D01*
X134664285Y-109057142D01*
X134735714Y-108985714D01*
X134878571Y-108914285D01*
X135164285Y-108842857D01*
X135307142Y-108771428D01*
X135378571Y-108700000D01*
X135450000Y-108557142D01*
X135450000Y-108414285D01*
X135378571Y-108271428D01*
X135307142Y-108200000D01*
X135164285Y-108128571D01*
X134807142Y-108128571D01*
X134592857Y-108200000D01*
X133950000Y-109628571D02*
X133950000Y-108128571D01*
X133378571Y-108128571D01*
X133235714Y-108200000D01*
X133164285Y-108271428D01*
X133092857Y-108414285D01*
X133092857Y-108628571D01*
X133164285Y-108771428D01*
X133235714Y-108842857D01*
X133378571Y-108914285D01*
X133950000Y-108914285D01*
X132235714Y-108771428D02*
X132378571Y-108700000D01*
X132450000Y-108628571D01*
X132521428Y-108485714D01*
X132521428Y-108414285D01*
X132450000Y-108271428D01*
X132378571Y-108200000D01*
X132235714Y-108128571D01*
X131950000Y-108128571D01*
X131807142Y-108200000D01*
X131735714Y-108271428D01*
X131664285Y-108414285D01*
X131664285Y-108485714D01*
X131735714Y-108628571D01*
X131807142Y-108700000D01*
X131950000Y-108771428D01*
X132235714Y-108771428D01*
X132378571Y-108842857D01*
X132450000Y-108914285D01*
X132521428Y-109057142D01*
X132521428Y-109342857D01*
X132450000Y-109485714D01*
X132378571Y-109557142D01*
X132235714Y-109628571D01*
X131950000Y-109628571D01*
X131807142Y-109557142D01*
X131735714Y-109485714D01*
X131664285Y-109342857D01*
X131664285Y-109057142D01*
X131735714Y-108914285D01*
X131807142Y-108842857D01*
X131950000Y-108771428D01*
X131092857Y-108271428D02*
X131021428Y-108200000D01*
X130878571Y-108128571D01*
X130521428Y-108128571D01*
X130378571Y-108200000D01*
X130307142Y-108271428D01*
X130235714Y-108414285D01*
X130235714Y-108557142D01*
X130307142Y-108771428D01*
X131164285Y-109628571D01*
X130235714Y-109628571D01*
X128950000Y-108128571D02*
X129235714Y-108128571D01*
X129378571Y-108200000D01*
X129450000Y-108271428D01*
X129592857Y-108485714D01*
X129664285Y-108771428D01*
X129664285Y-109342857D01*
X129592857Y-109485714D01*
X129521428Y-109557142D01*
X129378571Y-109628571D01*
X129092857Y-109628571D01*
X128950000Y-109557142D01*
X128878571Y-109485714D01*
X128807142Y-109342857D01*
X128807142Y-108985714D01*
X128878571Y-108842857D01*
X128950000Y-108771428D01*
X129092857Y-108700000D01*
X129378571Y-108700000D01*
X129521428Y-108771428D01*
X129592857Y-108842857D01*
X129664285Y-108985714D01*
X127521428Y-108128571D02*
X127807142Y-108128571D01*
X127950000Y-108200000D01*
X128021428Y-108271428D01*
X128164285Y-108485714D01*
X128235714Y-108771428D01*
X128235714Y-109342857D01*
X128164285Y-109485714D01*
X128092857Y-109557142D01*
X127950000Y-109628571D01*
X127664285Y-109628571D01*
X127521428Y-109557142D01*
X127450000Y-109485714D01*
X127378571Y-109342857D01*
X127378571Y-108985714D01*
X127450000Y-108842857D01*
X127521428Y-108771428D01*
X127664285Y-108700000D01*
X127950000Y-108700000D01*
X128092857Y-108771428D01*
X128164285Y-108842857D01*
X128235714Y-108985714D01*
X126735714Y-109057142D02*
X125592857Y-109057142D01*
X124878571Y-109628571D02*
X124878571Y-108128571D01*
X124307142Y-108128571D01*
X124164285Y-108200000D01*
X124092857Y-108271428D01*
X124021428Y-108414285D01*
X124021428Y-108628571D01*
X124092857Y-108771428D01*
X124164285Y-108842857D01*
X124307142Y-108914285D01*
X124878571Y-108914285D01*
X123164285Y-109628571D02*
X123307142Y-109557142D01*
X123378571Y-109485714D01*
X123450000Y-109342857D01*
X123450000Y-108914285D01*
X123378571Y-108771428D01*
X123307142Y-108700000D01*
X123164285Y-108628571D01*
X122950000Y-108628571D01*
X122807142Y-108700000D01*
X122735714Y-108771428D01*
X122664285Y-108914285D01*
X122664285Y-109342857D01*
X122735714Y-109485714D01*
X122807142Y-109557142D01*
X122950000Y-109628571D01*
X123164285Y-109628571D01*
X122164285Y-108628571D02*
X121878571Y-109628571D01*
X121592857Y-108914285D01*
X121307142Y-109628571D01*
X121021428Y-108628571D01*
X119878571Y-109557142D02*
X120021428Y-109628571D01*
X120307142Y-109628571D01*
X120450000Y-109557142D01*
X120521428Y-109414285D01*
X120521428Y-108842857D01*
X120450000Y-108700000D01*
X120307142Y-108628571D01*
X120021428Y-108628571D01*
X119878571Y-108700000D01*
X119807142Y-108842857D01*
X119807142Y-108985714D01*
X120521428Y-109128571D01*
X119164285Y-109628571D02*
X119164285Y-108628571D01*
X119164285Y-108914285D02*
X119092857Y-108771428D01*
X119021428Y-108700000D01*
X118878571Y-108628571D01*
X118735714Y-108628571D01*
X118235714Y-109628571D02*
X118235714Y-108128571D01*
X117735714Y-109200000D01*
X117235714Y-108128571D01*
X117235714Y-109628571D01*
X116307142Y-109628571D02*
X116450000Y-109557142D01*
X116521428Y-109485714D01*
X116592857Y-109342857D01*
X116592857Y-108914285D01*
X116521428Y-108771428D01*
X116450000Y-108700000D01*
X116307142Y-108628571D01*
X116092857Y-108628571D01*
X115950000Y-108700000D01*
X115878571Y-108771428D01*
X115807142Y-108914285D01*
X115807142Y-109342857D01*
X115878571Y-109485714D01*
X115950000Y-109557142D01*
X116092857Y-109628571D01*
X116307142Y-109628571D01*
X115164285Y-108628571D02*
X115164285Y-109628571D01*
X115164285Y-108771428D02*
X115092857Y-108700000D01*
X114950000Y-108628571D01*
X114735714Y-108628571D01*
X114592857Y-108700000D01*
X114521428Y-108842857D01*
X114521428Y-109628571D01*
X113807142Y-109628571D02*
X113807142Y-108628571D01*
X113807142Y-108128571D02*
X113878571Y-108200000D01*
X113807142Y-108271428D01*
X113735714Y-108200000D01*
X113807142Y-108128571D01*
X113807142Y-108271428D01*
X113307142Y-108628571D02*
X112735714Y-108628571D01*
X113092857Y-108128571D02*
X113092857Y-109414285D01*
X113021428Y-109557142D01*
X112878571Y-109628571D01*
X112735714Y-109628571D01*
X112021428Y-109628571D02*
X112164285Y-109557142D01*
X112235714Y-109485714D01*
X112307142Y-109342857D01*
X112307142Y-108914285D01*
X112235714Y-108771428D01*
X112164285Y-108700000D01*
X112021428Y-108628571D01*
X111807142Y-108628571D01*
X111664285Y-108700000D01*
X111592857Y-108771428D01*
X111521428Y-108914285D01*
X111521428Y-109342857D01*
X111592857Y-109485714D01*
X111664285Y-109557142D01*
X111807142Y-109628571D01*
X112021428Y-109628571D01*
X110878571Y-109628571D02*
X110878571Y-108628571D01*
X110878571Y-108914285D02*
X110807142Y-108771428D01*
X110735714Y-108700000D01*
X110592857Y-108628571D01*
X110450000Y-108628571D01*
D11*
X157300000Y-111120000D03*
X157300000Y-108580000D03*
X157300000Y-106040000D03*
D12*
X157300000Y-103500000D03*
X165000000Y-116200000D03*
D11*
X167540000Y-116200000D03*
X170080000Y-116200000D03*
X172620000Y-116200000D03*
X175160000Y-116200000D03*
G04 #@! TA.AperFunction,SMDPad,CuDef*
D13*
G36*
X153712004Y-114676204D02*
G01*
X153736273Y-114679804D01*
X153760071Y-114685765D01*
X153783171Y-114694030D01*
X153805349Y-114704520D01*
X153826393Y-114717133D01*
X153846098Y-114731747D01*
X153864277Y-114748223D01*
X153880753Y-114766402D01*
X153895367Y-114786107D01*
X153907980Y-114807151D01*
X153918470Y-114829329D01*
X153926735Y-114852429D01*
X153932696Y-114876227D01*
X153936296Y-114900496D01*
X153937500Y-114925000D01*
X153937500Y-116175000D01*
X153936296Y-116199504D01*
X153932696Y-116223773D01*
X153926735Y-116247571D01*
X153918470Y-116270671D01*
X153907980Y-116292849D01*
X153895367Y-116313893D01*
X153880753Y-116333598D01*
X153864277Y-116351777D01*
X153846098Y-116368253D01*
X153826393Y-116382867D01*
X153805349Y-116395480D01*
X153783171Y-116405970D01*
X153760071Y-116414235D01*
X153736273Y-116420196D01*
X153712004Y-116423796D01*
X153687500Y-116425000D01*
X152762500Y-116425000D01*
X152737996Y-116423796D01*
X152713727Y-116420196D01*
X152689929Y-116414235D01*
X152666829Y-116405970D01*
X152644651Y-116395480D01*
X152623607Y-116382867D01*
X152603902Y-116368253D01*
X152585723Y-116351777D01*
X152569247Y-116333598D01*
X152554633Y-116313893D01*
X152542020Y-116292849D01*
X152531530Y-116270671D01*
X152523265Y-116247571D01*
X152517304Y-116223773D01*
X152513704Y-116199504D01*
X152512500Y-116175000D01*
X152512500Y-114925000D01*
X152513704Y-114900496D01*
X152517304Y-114876227D01*
X152523265Y-114852429D01*
X152531530Y-114829329D01*
X152542020Y-114807151D01*
X152554633Y-114786107D01*
X152569247Y-114766402D01*
X152585723Y-114748223D01*
X152603902Y-114731747D01*
X152623607Y-114717133D01*
X152644651Y-114704520D01*
X152666829Y-114694030D01*
X152689929Y-114685765D01*
X152713727Y-114679804D01*
X152737996Y-114676204D01*
X152762500Y-114675000D01*
X153687500Y-114675000D01*
X153712004Y-114676204D01*
G37*
G04 #@! TD.AperFunction*
G04 #@! TA.AperFunction,SMDPad,CuDef*
G36*
X156687004Y-114676204D02*
G01*
X156711273Y-114679804D01*
X156735071Y-114685765D01*
X156758171Y-114694030D01*
X156780349Y-114704520D01*
X156801393Y-114717133D01*
X156821098Y-114731747D01*
X156839277Y-114748223D01*
X156855753Y-114766402D01*
X156870367Y-114786107D01*
X156882980Y-114807151D01*
X156893470Y-114829329D01*
X156901735Y-114852429D01*
X156907696Y-114876227D01*
X156911296Y-114900496D01*
X156912500Y-114925000D01*
X156912500Y-116175000D01*
X156911296Y-116199504D01*
X156907696Y-116223773D01*
X156901735Y-116247571D01*
X156893470Y-116270671D01*
X156882980Y-116292849D01*
X156870367Y-116313893D01*
X156855753Y-116333598D01*
X156839277Y-116351777D01*
X156821098Y-116368253D01*
X156801393Y-116382867D01*
X156780349Y-116395480D01*
X156758171Y-116405970D01*
X156735071Y-116414235D01*
X156711273Y-116420196D01*
X156687004Y-116423796D01*
X156662500Y-116425000D01*
X155737500Y-116425000D01*
X155712996Y-116423796D01*
X155688727Y-116420196D01*
X155664929Y-116414235D01*
X155641829Y-116405970D01*
X155619651Y-116395480D01*
X155598607Y-116382867D01*
X155578902Y-116368253D01*
X155560723Y-116351777D01*
X155544247Y-116333598D01*
X155529633Y-116313893D01*
X155517020Y-116292849D01*
X155506530Y-116270671D01*
X155498265Y-116247571D01*
X155492304Y-116223773D01*
X155488704Y-116199504D01*
X155487500Y-116175000D01*
X155487500Y-114925000D01*
X155488704Y-114900496D01*
X155492304Y-114876227D01*
X155498265Y-114852429D01*
X155506530Y-114829329D01*
X155517020Y-114807151D01*
X155529633Y-114786107D01*
X155544247Y-114766402D01*
X155560723Y-114748223D01*
X155578902Y-114731747D01*
X155598607Y-114717133D01*
X155619651Y-114704520D01*
X155641829Y-114694030D01*
X155664929Y-114685765D01*
X155688727Y-114679804D01*
X155712996Y-114676204D01*
X155737500Y-114675000D01*
X156662500Y-114675000D01*
X156687004Y-114676204D01*
G37*
G04 #@! TD.AperFunction*
D12*
X143050000Y-116050000D03*
D11*
X140510000Y-116050000D03*
X137970000Y-116050000D03*
G04 #@! TA.AperFunction,SMDPad,CuDef*
D13*
G36*
X175612004Y-107776204D02*
G01*
X175636273Y-107779804D01*
X175660071Y-107785765D01*
X175683171Y-107794030D01*
X175705349Y-107804520D01*
X175726393Y-107817133D01*
X175746098Y-107831747D01*
X175764277Y-107848223D01*
X175780753Y-107866402D01*
X175795367Y-107886107D01*
X175807980Y-107907151D01*
X175818470Y-107929329D01*
X175826735Y-107952429D01*
X175832696Y-107976227D01*
X175836296Y-108000496D01*
X175837500Y-108025000D01*
X175837500Y-109275000D01*
X175836296Y-109299504D01*
X175832696Y-109323773D01*
X175826735Y-109347571D01*
X175818470Y-109370671D01*
X175807980Y-109392849D01*
X175795367Y-109413893D01*
X175780753Y-109433598D01*
X175764277Y-109451777D01*
X175746098Y-109468253D01*
X175726393Y-109482867D01*
X175705349Y-109495480D01*
X175683171Y-109505970D01*
X175660071Y-109514235D01*
X175636273Y-109520196D01*
X175612004Y-109523796D01*
X175587500Y-109525000D01*
X174662500Y-109525000D01*
X174637996Y-109523796D01*
X174613727Y-109520196D01*
X174589929Y-109514235D01*
X174566829Y-109505970D01*
X174544651Y-109495480D01*
X174523607Y-109482867D01*
X174503902Y-109468253D01*
X174485723Y-109451777D01*
X174469247Y-109433598D01*
X174454633Y-109413893D01*
X174442020Y-109392849D01*
X174431530Y-109370671D01*
X174423265Y-109347571D01*
X174417304Y-109323773D01*
X174413704Y-109299504D01*
X174412500Y-109275000D01*
X174412500Y-108025000D01*
X174413704Y-108000496D01*
X174417304Y-107976227D01*
X174423265Y-107952429D01*
X174431530Y-107929329D01*
X174442020Y-107907151D01*
X174454633Y-107886107D01*
X174469247Y-107866402D01*
X174485723Y-107848223D01*
X174503902Y-107831747D01*
X174523607Y-107817133D01*
X174544651Y-107804520D01*
X174566829Y-107794030D01*
X174589929Y-107785765D01*
X174613727Y-107779804D01*
X174637996Y-107776204D01*
X174662500Y-107775000D01*
X175587500Y-107775000D01*
X175612004Y-107776204D01*
G37*
G04 #@! TD.AperFunction*
G04 #@! TA.AperFunction,SMDPad,CuDef*
G36*
X172637004Y-107776204D02*
G01*
X172661273Y-107779804D01*
X172685071Y-107785765D01*
X172708171Y-107794030D01*
X172730349Y-107804520D01*
X172751393Y-107817133D01*
X172771098Y-107831747D01*
X172789277Y-107848223D01*
X172805753Y-107866402D01*
X172820367Y-107886107D01*
X172832980Y-107907151D01*
X172843470Y-107929329D01*
X172851735Y-107952429D01*
X172857696Y-107976227D01*
X172861296Y-108000496D01*
X172862500Y-108025000D01*
X172862500Y-109275000D01*
X172861296Y-109299504D01*
X172857696Y-109323773D01*
X172851735Y-109347571D01*
X172843470Y-109370671D01*
X172832980Y-109392849D01*
X172820367Y-109413893D01*
X172805753Y-109433598D01*
X172789277Y-109451777D01*
X172771098Y-109468253D01*
X172751393Y-109482867D01*
X172730349Y-109495480D01*
X172708171Y-109505970D01*
X172685071Y-109514235D01*
X172661273Y-109520196D01*
X172637004Y-109523796D01*
X172612500Y-109525000D01*
X171687500Y-109525000D01*
X171662996Y-109523796D01*
X171638727Y-109520196D01*
X171614929Y-109514235D01*
X171591829Y-109505970D01*
X171569651Y-109495480D01*
X171548607Y-109482867D01*
X171528902Y-109468253D01*
X171510723Y-109451777D01*
X171494247Y-109433598D01*
X171479633Y-109413893D01*
X171467020Y-109392849D01*
X171456530Y-109370671D01*
X171448265Y-109347571D01*
X171442304Y-109323773D01*
X171438704Y-109299504D01*
X171437500Y-109275000D01*
X171437500Y-108025000D01*
X171438704Y-108000496D01*
X171442304Y-107976227D01*
X171448265Y-107952429D01*
X171456530Y-107929329D01*
X171467020Y-107907151D01*
X171479633Y-107886107D01*
X171494247Y-107866402D01*
X171510723Y-107848223D01*
X171528902Y-107831747D01*
X171548607Y-107817133D01*
X171569651Y-107804520D01*
X171591829Y-107794030D01*
X171614929Y-107785765D01*
X171638727Y-107779804D01*
X171662996Y-107776204D01*
X171687500Y-107775000D01*
X172612500Y-107775000D01*
X172637004Y-107776204D01*
G37*
G04 #@! TD.AperFunction*
G04 #@! TA.AperFunction,SMDPad,CuDef*
G36*
X140049504Y-101676204D02*
G01*
X140073773Y-101679804D01*
X140097571Y-101685765D01*
X140120671Y-101694030D01*
X140142849Y-101704520D01*
X140163893Y-101717133D01*
X140183598Y-101731747D01*
X140201777Y-101748223D01*
X140218253Y-101766402D01*
X140232867Y-101786107D01*
X140245480Y-101807151D01*
X140255970Y-101829329D01*
X140264235Y-101852429D01*
X140270196Y-101876227D01*
X140273796Y-101900496D01*
X140275000Y-101925000D01*
X140275000Y-102850000D01*
X140273796Y-102874504D01*
X140270196Y-102898773D01*
X140264235Y-102922571D01*
X140255970Y-102945671D01*
X140245480Y-102967849D01*
X140232867Y-102988893D01*
X140218253Y-103008598D01*
X140201777Y-103026777D01*
X140183598Y-103043253D01*
X140163893Y-103057867D01*
X140142849Y-103070480D01*
X140120671Y-103080970D01*
X140097571Y-103089235D01*
X140073773Y-103095196D01*
X140049504Y-103098796D01*
X140025000Y-103100000D01*
X138775000Y-103100000D01*
X138750496Y-103098796D01*
X138726227Y-103095196D01*
X138702429Y-103089235D01*
X138679329Y-103080970D01*
X138657151Y-103070480D01*
X138636107Y-103057867D01*
X138616402Y-103043253D01*
X138598223Y-103026777D01*
X138581747Y-103008598D01*
X138567133Y-102988893D01*
X138554520Y-102967849D01*
X138544030Y-102945671D01*
X138535765Y-102922571D01*
X138529804Y-102898773D01*
X138526204Y-102874504D01*
X138525000Y-102850000D01*
X138525000Y-101925000D01*
X138526204Y-101900496D01*
X138529804Y-101876227D01*
X138535765Y-101852429D01*
X138544030Y-101829329D01*
X138554520Y-101807151D01*
X138567133Y-101786107D01*
X138581747Y-101766402D01*
X138598223Y-101748223D01*
X138616402Y-101731747D01*
X138636107Y-101717133D01*
X138657151Y-101704520D01*
X138679329Y-101694030D01*
X138702429Y-101685765D01*
X138726227Y-101679804D01*
X138750496Y-101676204D01*
X138775000Y-101675000D01*
X140025000Y-101675000D01*
X140049504Y-101676204D01*
G37*
G04 #@! TD.AperFunction*
G04 #@! TA.AperFunction,SMDPad,CuDef*
G36*
X140049504Y-98701204D02*
G01*
X140073773Y-98704804D01*
X140097571Y-98710765D01*
X140120671Y-98719030D01*
X140142849Y-98729520D01*
X140163893Y-98742133D01*
X140183598Y-98756747D01*
X140201777Y-98773223D01*
X140218253Y-98791402D01*
X140232867Y-98811107D01*
X140245480Y-98832151D01*
X140255970Y-98854329D01*
X140264235Y-98877429D01*
X140270196Y-98901227D01*
X140273796Y-98925496D01*
X140275000Y-98950000D01*
X140275000Y-99875000D01*
X140273796Y-99899504D01*
X140270196Y-99923773D01*
X140264235Y-99947571D01*
X140255970Y-99970671D01*
X140245480Y-99992849D01*
X140232867Y-100013893D01*
X140218253Y-100033598D01*
X140201777Y-100051777D01*
X140183598Y-100068253D01*
X140163893Y-100082867D01*
X140142849Y-100095480D01*
X140120671Y-100105970D01*
X140097571Y-100114235D01*
X140073773Y-100120196D01*
X140049504Y-100123796D01*
X140025000Y-100125000D01*
X138775000Y-100125000D01*
X138750496Y-100123796D01*
X138726227Y-100120196D01*
X138702429Y-100114235D01*
X138679329Y-100105970D01*
X138657151Y-100095480D01*
X138636107Y-100082867D01*
X138616402Y-100068253D01*
X138598223Y-100051777D01*
X138581747Y-100033598D01*
X138567133Y-100013893D01*
X138554520Y-99992849D01*
X138544030Y-99970671D01*
X138535765Y-99947571D01*
X138529804Y-99923773D01*
X138526204Y-99899504D01*
X138525000Y-99875000D01*
X138525000Y-98950000D01*
X138526204Y-98925496D01*
X138529804Y-98901227D01*
X138535765Y-98877429D01*
X138544030Y-98854329D01*
X138554520Y-98832151D01*
X138567133Y-98811107D01*
X138581747Y-98791402D01*
X138598223Y-98773223D01*
X138616402Y-98756747D01*
X138636107Y-98742133D01*
X138657151Y-98729520D01*
X138679329Y-98719030D01*
X138702429Y-98710765D01*
X138726227Y-98704804D01*
X138750496Y-98701204D01*
X138775000Y-98700000D01*
X140025000Y-98700000D01*
X140049504Y-98701204D01*
G37*
G04 #@! TD.AperFunction*
D12*
X149900000Y-116000000D03*
D11*
X147360000Y-116000000D03*
D14*
X123500000Y-113800000D03*
D15*
X128580000Y-113800000D03*
D16*
X139500000Y-93250000D03*
D17*
X110100000Y-98450000D03*
D16*
X110100000Y-103450000D03*
X139500000Y-108650000D03*
D18*
X170550000Y-95400000D03*
X160050000Y-98050000D03*
X164000000Y-95450000D03*
X166000000Y-95400000D03*
D19*
X139400000Y-93350000D02*
X139500000Y-93250000D01*
X139400000Y-99412500D02*
X139400000Y-93350000D01*
X139400000Y-108550000D02*
X139500000Y-108650000D01*
X139400000Y-102387500D02*
X139400000Y-108550000D01*
X175125000Y-116165000D02*
X175160000Y-116200000D01*
X175125000Y-108650000D02*
X175125000Y-116165000D01*
X175125000Y-99975000D02*
X170550000Y-95400000D01*
X175125000Y-108650000D02*
X175125000Y-99975000D01*
X157300000Y-100800000D02*
X160050000Y-98050000D01*
X157300000Y-103500000D02*
X157300000Y-100800000D01*
X152775000Y-116000000D02*
X153225000Y-115550000D01*
X149900000Y-116000000D02*
X152775000Y-116000000D01*
X167540000Y-112547500D02*
X167540000Y-114997919D01*
X171437500Y-108650000D02*
X167540000Y-112547500D01*
X167540000Y-114997919D02*
X167540000Y-116200000D01*
X172150000Y-108650000D02*
X171437500Y-108650000D01*
X164000000Y-108462500D02*
X164000000Y-95450000D01*
X156912500Y-115550000D02*
X164000000Y-108462500D01*
X156200000Y-115550000D02*
X156912500Y-115550000D01*
X164999999Y-94399999D02*
X166000000Y-95400000D01*
X162160001Y-94399999D02*
X164999999Y-94399999D01*
X140510000Y-116050000D02*
X162160001Y-94399999D01*
M02*
