G04 #@! TF.GenerationSoftware,KiCad,Pcbnew,(5.1.5-0-10_14)*
G04 #@! TF.CreationDate,2020-04-24T15:56:46+02:00*
G04 #@! TF.ProjectId,ESP8266-PowerMonitor,45535038-3236-4362-9d50-6f7765724d6f,rev?*
G04 #@! TF.SameCoordinates,Original*
G04 #@! TF.FileFunction,Other,Fab,Top*
%FSLAX46Y46*%
G04 Gerber Fmt 4.6, Leading zero omitted, Abs format (unit mm)*
G04 Created by KiCad (PCBNEW (5.1.5-0-10_14)) date 2020-04-24 15:56:46*
%MOMM*%
%LPD*%
G04 APERTURE LIST*
%ADD10C,0.100000*%
%ADD11C,0.120000*%
%ADD12C,0.150000*%
G04 APERTURE END LIST*
D10*
X153500000Y-108000000D02*
G75*
G03X153500000Y-108000000I-2000000J0D01*
G01*
X153650000Y-105850000D02*
X153650000Y-110150000D01*
X150350000Y-105850000D02*
X153650000Y-105850000D01*
X150350000Y-110150000D02*
X153650000Y-110150000D01*
X149350000Y-106850000D02*
X149350000Y-109150000D01*
X149350000Y-106850000D02*
X150350000Y-105850000D01*
X149350000Y-109150000D02*
X150350000Y-110150000D01*
X149925227Y-107000000D02*
X150325227Y-107000000D01*
X150125227Y-106800000D02*
X150125227Y-107200000D01*
X151312500Y-101600000D02*
X148112500Y-101600000D01*
X151312500Y-100000000D02*
X151312500Y-101600000D01*
X148112500Y-100000000D02*
X151312500Y-100000000D01*
X148112500Y-101600000D02*
X148112500Y-100000000D01*
X117200000Y-98287500D02*
X118800000Y-98287500D01*
X118800000Y-98287500D02*
X118800000Y-101487500D01*
X118800000Y-101487500D02*
X117200000Y-101487500D01*
X117200000Y-101487500D02*
X117200000Y-98287500D01*
X151630000Y-116535000D02*
X151630000Y-114630000D01*
X151630000Y-114630000D02*
X156710000Y-114630000D01*
X156710000Y-114630000D02*
X156710000Y-117170000D01*
X156710000Y-117170000D02*
X152265000Y-117170000D01*
X152265000Y-117170000D02*
X151630000Y-116535000D01*
X164430000Y-116735000D02*
X164430000Y-114830000D01*
X164430000Y-114830000D02*
X177130000Y-114830000D01*
X177130000Y-114830000D02*
X177130000Y-117370000D01*
X177130000Y-117370000D02*
X165065000Y-117370000D01*
X165065000Y-117370000D02*
X164430000Y-116735000D01*
X121090000Y-116350000D02*
X130990000Y-116350000D01*
X121040000Y-110050000D02*
X121040000Y-117550000D01*
X121040000Y-117550000D02*
X131040000Y-117550000D01*
X131040000Y-117550000D02*
X131040000Y-110050000D01*
X131040000Y-110050000D02*
X121040000Y-110050000D01*
X107800000Y-110950000D02*
X141800000Y-110950000D01*
X141800000Y-110950000D02*
X141800000Y-90950000D01*
X107800000Y-110950000D02*
X107800000Y-99440000D01*
X107800000Y-90950000D02*
X141800000Y-90950000D01*
X108810000Y-98450000D02*
X107810000Y-99450000D01*
X107810000Y-97450000D02*
X108810000Y-98450000D01*
X107800000Y-97450000D02*
X107800000Y-90950000D01*
X159700000Y-93600000D02*
X159700000Y-92000000D01*
X159700000Y-92000000D02*
X162900000Y-92000000D01*
X162900000Y-92000000D02*
X162900000Y-93600000D01*
X162900000Y-93600000D02*
X159700000Y-93600000D01*
X168087500Y-93600000D02*
X164887500Y-93600000D01*
X168087500Y-92000000D02*
X168087500Y-93600000D01*
X164887500Y-92000000D02*
X168087500Y-92000000D01*
X164887500Y-93600000D02*
X164887500Y-92000000D01*
X162287500Y-116600000D02*
X159087500Y-116600000D01*
X162287500Y-115000000D02*
X162287500Y-116600000D01*
X159087500Y-115000000D02*
X162287500Y-115000000D01*
X159087500Y-116600000D02*
X159087500Y-115000000D01*
X158600000Y-93800000D02*
X152600000Y-93800000D01*
X152600000Y-93800000D02*
X152600000Y-99800000D01*
X152600000Y-99800000D02*
X158600000Y-99800000D01*
X158600000Y-99800000D02*
X158600000Y-93800000D01*
X157350714Y-96800000D02*
G75*
G03X157350714Y-96800000I-1750714J0D01*
G01*
X145500000Y-93100000D02*
X146500000Y-92100000D01*
X145500000Y-93100000D02*
X145500000Y-98800000D01*
X146500000Y-92100000D02*
X149200000Y-92100000D01*
X145500000Y-98800000D02*
X149200000Y-98800000D01*
X149200000Y-92100000D02*
X149200000Y-98800000D01*
D11*
X184200000Y-95400000D02*
X184200000Y-111400000D01*
X184200000Y-111400000D02*
X160200000Y-111400000D01*
X160200000Y-111400000D02*
X160200000Y-95400000D01*
X160200000Y-95400000D02*
X175200000Y-95400000D01*
X175200000Y-95400000D02*
X175700000Y-95900000D01*
X175700000Y-95900000D02*
X176200000Y-95400000D01*
X176200000Y-95400000D02*
X184200000Y-95400000D01*
D10*
X150370000Y-115265000D02*
X150370000Y-117170000D01*
X150370000Y-117170000D02*
X142750000Y-117170000D01*
X142750000Y-117170000D02*
X142750000Y-114630000D01*
X142750000Y-114630000D02*
X149735000Y-114630000D01*
X149735000Y-114630000D02*
X150370000Y-115265000D01*
D12*
X116566666Y-114152380D02*
X116233333Y-113676190D01*
X115995238Y-114152380D02*
X115995238Y-113152380D01*
X116376190Y-113152380D01*
X116471428Y-113200000D01*
X116519047Y-113247619D01*
X116566666Y-113342857D01*
X116566666Y-113485714D01*
X116519047Y-113580952D01*
X116471428Y-113628571D01*
X116376190Y-113676190D01*
X115995238Y-113676190D01*
X116995238Y-113628571D02*
X117328571Y-113628571D01*
X117471428Y-114152380D02*
X116995238Y-114152380D01*
X116995238Y-113152380D01*
X117471428Y-113152380D01*
X118233333Y-113628571D02*
X117900000Y-113628571D01*
X117900000Y-114152380D02*
X117900000Y-113152380D01*
X118376190Y-113152380D01*
X118900000Y-113152380D02*
X118900000Y-113390476D01*
X118661904Y-113295238D02*
X118900000Y-113390476D01*
X119138095Y-113295238D01*
X118757142Y-113580952D02*
X118900000Y-113390476D01*
X119042857Y-113580952D01*
X119661904Y-113152380D02*
X119661904Y-113390476D01*
X119423809Y-113295238D02*
X119661904Y-113390476D01*
X119900000Y-113295238D01*
X119519047Y-113580952D02*
X119661904Y-113390476D01*
X119804761Y-113580952D01*
D11*
X151366666Y-108285714D02*
X151328571Y-108323809D01*
X151214285Y-108361904D01*
X151138095Y-108361904D01*
X151023809Y-108323809D01*
X150947619Y-108247619D01*
X150909523Y-108171428D01*
X150871428Y-108019047D01*
X150871428Y-107904761D01*
X150909523Y-107752380D01*
X150947619Y-107676190D01*
X151023809Y-107600000D01*
X151138095Y-107561904D01*
X151214285Y-107561904D01*
X151328571Y-107600000D01*
X151366666Y-107638095D01*
X151671428Y-107638095D02*
X151709523Y-107600000D01*
X151785714Y-107561904D01*
X151976190Y-107561904D01*
X152052380Y-107600000D01*
X152090476Y-107638095D01*
X152128571Y-107714285D01*
X152128571Y-107790476D01*
X152090476Y-107904761D01*
X151633333Y-108361904D01*
X152128571Y-108361904D01*
X117942857Y-100154166D02*
X117942857Y-100420833D01*
X118361904Y-100420833D02*
X117561904Y-100420833D01*
X117561904Y-100039880D01*
X118361904Y-99316071D02*
X118361904Y-99773214D01*
X118361904Y-99544642D02*
X117561904Y-99544642D01*
X117676190Y-99620833D01*
X117752380Y-99697023D01*
X117790476Y-99773214D01*
D12*
X153622380Y-116233333D02*
X154336666Y-116233333D01*
X154479523Y-116280952D01*
X154574761Y-116376190D01*
X154622380Y-116519047D01*
X154622380Y-116614285D01*
X154622380Y-115233333D02*
X154622380Y-115804761D01*
X154622380Y-115519047D02*
X153622380Y-115519047D01*
X153765238Y-115614285D01*
X153860476Y-115709523D01*
X153908095Y-115804761D01*
X170446666Y-115552380D02*
X170446666Y-116266666D01*
X170399047Y-116409523D01*
X170303809Y-116504761D01*
X170160952Y-116552380D01*
X170065714Y-116552380D01*
X170875238Y-115647619D02*
X170922857Y-115600000D01*
X171018095Y-115552380D01*
X171256190Y-115552380D01*
X171351428Y-115600000D01*
X171399047Y-115647619D01*
X171446666Y-115742857D01*
X171446666Y-115838095D01*
X171399047Y-115980952D01*
X170827619Y-116552380D01*
X171446666Y-116552380D01*
X126587619Y-113466666D02*
X125873333Y-113466666D01*
X125730476Y-113419047D01*
X125635238Y-113323809D01*
X125587619Y-113180952D01*
X125587619Y-113085714D01*
X126587619Y-113847619D02*
X126587619Y-114466666D01*
X126206666Y-114133333D01*
X126206666Y-114276190D01*
X126159047Y-114371428D01*
X126111428Y-114419047D01*
X126016190Y-114466666D01*
X125778095Y-114466666D01*
X125682857Y-114419047D01*
X125635238Y-114371428D01*
X125587619Y-114276190D01*
X125587619Y-113990476D01*
X125635238Y-113895238D01*
X125682857Y-113847619D01*
X123565714Y-100072380D02*
X123565714Y-99072380D01*
X123946666Y-99072380D01*
X124041904Y-99120000D01*
X124089523Y-99167619D01*
X124137142Y-99262857D01*
X124137142Y-99405714D01*
X124089523Y-99500952D01*
X124041904Y-99548571D01*
X123946666Y-99596190D01*
X123565714Y-99596190D01*
X124518095Y-100024761D02*
X124660952Y-100072380D01*
X124899047Y-100072380D01*
X124994285Y-100024761D01*
X125041904Y-99977142D01*
X125089523Y-99881904D01*
X125089523Y-99786666D01*
X125041904Y-99691428D01*
X124994285Y-99643809D01*
X124899047Y-99596190D01*
X124708571Y-99548571D01*
X124613333Y-99500952D01*
X124565714Y-99453333D01*
X124518095Y-99358095D01*
X124518095Y-99262857D01*
X124565714Y-99167619D01*
X124613333Y-99120000D01*
X124708571Y-99072380D01*
X124946666Y-99072380D01*
X125089523Y-99120000D01*
X126041904Y-100072380D02*
X125470476Y-100072380D01*
X125756190Y-100072380D02*
X125756190Y-99072380D01*
X125660952Y-99215238D01*
X125565714Y-99310476D01*
X125470476Y-99358095D01*
D11*
X161079166Y-93261904D02*
X160812500Y-92880952D01*
X160622023Y-93261904D02*
X160622023Y-92461904D01*
X160926785Y-92461904D01*
X161002976Y-92500000D01*
X161041071Y-92538095D01*
X161079166Y-92614285D01*
X161079166Y-92728571D01*
X161041071Y-92804761D01*
X161002976Y-92842857D01*
X160926785Y-92880952D01*
X160622023Y-92880952D01*
X161841071Y-93261904D02*
X161383928Y-93261904D01*
X161612500Y-93261904D02*
X161612500Y-92461904D01*
X161536309Y-92576190D01*
X161460119Y-92652380D01*
X161383928Y-92690476D01*
X166354166Y-93161904D02*
X166087500Y-92780952D01*
X165897023Y-93161904D02*
X165897023Y-92361904D01*
X166201785Y-92361904D01*
X166277976Y-92400000D01*
X166316071Y-92438095D01*
X166354166Y-92514285D01*
X166354166Y-92628571D01*
X166316071Y-92704761D01*
X166277976Y-92742857D01*
X166201785Y-92780952D01*
X165897023Y-92780952D01*
X166658928Y-92438095D02*
X166697023Y-92400000D01*
X166773214Y-92361904D01*
X166963690Y-92361904D01*
X167039880Y-92400000D01*
X167077976Y-92438095D01*
X167116071Y-92514285D01*
X167116071Y-92590476D01*
X167077976Y-92704761D01*
X166620833Y-93161904D01*
X167116071Y-93161904D01*
X172161904Y-104333333D02*
X171780952Y-104600000D01*
X172161904Y-104790476D02*
X171361904Y-104790476D01*
X171361904Y-104485714D01*
X171400000Y-104409523D01*
X171438095Y-104371428D01*
X171514285Y-104333333D01*
X171628571Y-104333333D01*
X171704761Y-104371428D01*
X171742857Y-104409523D01*
X171780952Y-104485714D01*
X171780952Y-104790476D01*
X171361904Y-104066666D02*
X171361904Y-103571428D01*
X171666666Y-103838095D01*
X171666666Y-103723809D01*
X171704761Y-103647619D01*
X171742857Y-103609523D01*
X171819047Y-103571428D01*
X172009523Y-103571428D01*
X172085714Y-103609523D01*
X172123809Y-103647619D01*
X172161904Y-103723809D01*
X172161904Y-103952380D01*
X172123809Y-104028571D01*
X172085714Y-104066666D01*
X160554166Y-116161904D02*
X160287500Y-115780952D01*
X160097023Y-116161904D02*
X160097023Y-115361904D01*
X160401785Y-115361904D01*
X160477976Y-115400000D01*
X160516071Y-115438095D01*
X160554166Y-115514285D01*
X160554166Y-115628571D01*
X160516071Y-115704761D01*
X160477976Y-115742857D01*
X160401785Y-115780952D01*
X160097023Y-115780952D01*
X161239880Y-115361904D02*
X161087500Y-115361904D01*
X161011309Y-115400000D01*
X160973214Y-115438095D01*
X160897023Y-115552380D01*
X160858928Y-115704761D01*
X160858928Y-116009523D01*
X160897023Y-116085714D01*
X160935119Y-116123809D01*
X161011309Y-116161904D01*
X161163690Y-116161904D01*
X161239880Y-116123809D01*
X161277976Y-116085714D01*
X161316071Y-116009523D01*
X161316071Y-115819047D01*
X161277976Y-115742857D01*
X161239880Y-115704761D01*
X161163690Y-115666666D01*
X161011309Y-115666666D01*
X160935119Y-115704761D01*
X160897023Y-115742857D01*
X160858928Y-115819047D01*
D12*
X160054761Y-98133333D02*
X160102380Y-97990476D01*
X160102380Y-97752380D01*
X160054761Y-97657142D01*
X160007142Y-97609523D01*
X159911904Y-97561904D01*
X159816666Y-97561904D01*
X159721428Y-97609523D01*
X159673809Y-97657142D01*
X159626190Y-97752380D01*
X159578571Y-97942857D01*
X159530952Y-98038095D01*
X159483333Y-98085714D01*
X159388095Y-98133333D01*
X159292857Y-98133333D01*
X159197619Y-98085714D01*
X159150000Y-98038095D01*
X159102380Y-97942857D01*
X159102380Y-97704761D01*
X159150000Y-97561904D01*
X159102380Y-97228571D02*
X160102380Y-96990476D01*
X159388095Y-96800000D01*
X160102380Y-96609523D01*
X159102380Y-96371428D01*
X160102380Y-95466666D02*
X160102380Y-96038095D01*
X160102380Y-95752380D02*
X159102380Y-95752380D01*
X159245238Y-95847619D01*
X159340476Y-95942857D01*
X159388095Y-96038095D01*
D11*
X146911904Y-96059523D02*
X147559523Y-96059523D01*
X147635714Y-96021428D01*
X147673809Y-95983333D01*
X147711904Y-95907142D01*
X147711904Y-95754761D01*
X147673809Y-95678571D01*
X147635714Y-95640476D01*
X147559523Y-95602380D01*
X146911904Y-95602380D01*
X147711904Y-94802380D02*
X147711904Y-95259523D01*
X147711904Y-95030952D02*
X146911904Y-95030952D01*
X147026190Y-95107142D01*
X147102380Y-95183333D01*
X147140476Y-95259523D01*
D12*
X172452380Y-104651904D02*
X173261904Y-104651904D01*
X173357142Y-104604285D01*
X173404761Y-104556666D01*
X173452380Y-104461428D01*
X173452380Y-104270952D01*
X173404761Y-104175714D01*
X173357142Y-104128095D01*
X173261904Y-104080476D01*
X172452380Y-104080476D01*
X172547619Y-103651904D02*
X172500000Y-103604285D01*
X172452380Y-103509047D01*
X172452380Y-103270952D01*
X172500000Y-103175714D01*
X172547619Y-103128095D01*
X172642857Y-103080476D01*
X172738095Y-103080476D01*
X172880952Y-103128095D01*
X173452380Y-103699523D01*
X173452380Y-103080476D01*
X146226666Y-115352380D02*
X146226666Y-116066666D01*
X146179047Y-116209523D01*
X146083809Y-116304761D01*
X145940952Y-116352380D01*
X145845714Y-116352380D01*
X147131428Y-115685714D02*
X147131428Y-116352380D01*
X146893333Y-115304761D02*
X146655238Y-116019047D01*
X147274285Y-116019047D01*
M02*
