G04 #@! TF.GenerationSoftware,KiCad,Pcbnew,(5.1.5-0-10_14)*
G04 #@! TF.CreationDate,2020-05-25T09:14:52+02:00*
G04 #@! TF.ProjectId,ESP8266-PowerMonitor,45535038-3236-4362-9d50-6f7765724d6f,rev?*
G04 #@! TF.SameCoordinates,Original*
G04 #@! TF.FileFunction,OtherDrawing,Comment*
%FSLAX46Y46*%
G04 Gerber Fmt 4.6, Leading zero omitted, Abs format (unit mm)*
G04 Created by KiCad (PCBNEW (5.1.5-0-10_14)) date 2020-05-25 09:14:52*
%MOMM*%
%LPD*%
G04 APERTURE LIST*
%ADD10C,0.050000*%
%ADD11C,0.436306*%
%ADD12C,0.872612*%
%ADD13C,0.120000*%
G04 APERTURE END LIST*
D10*
X101838760Y-90032201D02*
X101773772Y-89991584D01*
X101838760Y-94347793D02*
X101838760Y-90032201D01*
X101838760Y-114105589D02*
X101838760Y-95152524D01*
X103572613Y-95152524D02*
X103868865Y-95152524D01*
X103572613Y-94347793D02*
X103868865Y-94347793D01*
X101773772Y-94347793D02*
X103572613Y-94347793D01*
X103572613Y-114105589D02*
X103572613Y-114996632D01*
X174864163Y-119289377D02*
X174864163Y-120200729D01*
X174441489Y-119375689D02*
X174864163Y-119289377D01*
X174441489Y-120284502D02*
X174441489Y-119375689D01*
X174800699Y-121256779D02*
X174441489Y-120284502D01*
X121786950Y-122231596D02*
X167777961Y-122231596D01*
X121786950Y-120200729D02*
X121786950Y-122231596D01*
X175160416Y-120200729D02*
X175160416Y-122231596D01*
X174800699Y-121256779D02*
X174800699Y-120200729D01*
X168137678Y-121256779D02*
X174800699Y-121256779D01*
X168137678Y-120200729D02*
X168137678Y-121256779D01*
X167777961Y-122231596D02*
X167777961Y-120200729D01*
X187811955Y-90032201D02*
X186097142Y-90095666D01*
X186097142Y-119078675D02*
X187811955Y-119121831D01*
X187811955Y-114128437D02*
X187811955Y-94875819D01*
X187811955Y-119121831D02*
X187811955Y-115037250D01*
X187832517Y-119162448D02*
X187811955Y-119121831D01*
X185992806Y-99574737D02*
X185992806Y-94875819D01*
X185992806Y-90159130D02*
X164689012Y-90159130D01*
X185992806Y-94073626D02*
X185992806Y-90159130D01*
X187832517Y-120073799D02*
X187832517Y-119162448D01*
X187875166Y-120137264D02*
X187832517Y-120073799D01*
X187875166Y-89082771D02*
X187875166Y-120137264D01*
X187832517Y-89143697D02*
X187875166Y-89082771D01*
X187832517Y-89991584D02*
X187832517Y-89143697D01*
X187811955Y-90032201D02*
X187832517Y-89991584D01*
X187811955Y-94073626D02*
X187811955Y-90032201D01*
X189715131Y-87029057D02*
X189715131Y-122231596D01*
X174800699Y-87958179D02*
X168137678Y-87958179D01*
X174800699Y-88996459D02*
X174800699Y-87958179D01*
X175160416Y-87029057D02*
X175160416Y-89016768D01*
X121490697Y-120200729D02*
X121427233Y-120200729D01*
X121490697Y-119289377D02*
X121490697Y-120200729D01*
X121068023Y-119375689D02*
X121490697Y-119289377D01*
X121068023Y-120284502D02*
X121068023Y-119375689D01*
X121427233Y-121256779D02*
X121068023Y-120284502D01*
X99743667Y-87029057D02*
X99743667Y-122231596D01*
X114382663Y-87029057D02*
X99743667Y-87029057D01*
X114382663Y-89016768D02*
X114382663Y-87029057D01*
X113261625Y-89082771D02*
X101689745Y-89082771D01*
X113261625Y-120137264D02*
X101689745Y-120137264D01*
X99743667Y-122231596D02*
X114382663Y-122231596D01*
X121427233Y-121256779D02*
X121427233Y-120200729D01*
X114762943Y-121256779D02*
X121427233Y-121256779D01*
X114762943Y-120200729D02*
X114762943Y-121256779D01*
X114382663Y-122231596D02*
X114382663Y-120200729D01*
X174864163Y-120200729D02*
X174800699Y-120200729D01*
X185992806Y-115037250D02*
X185992806Y-119015210D01*
X187832517Y-94875819D02*
X186119227Y-94875819D01*
X187832517Y-94073626D02*
X187832517Y-94875819D01*
X186119227Y-94073626D02*
X187832517Y-94073626D01*
X187832517Y-114128437D02*
X186119227Y-114128437D01*
X187832517Y-115037250D02*
X187832517Y-114128437D01*
X186119227Y-115037250D02*
X187832517Y-115037250D01*
X186097142Y-99635663D02*
X186097142Y-94875819D01*
X186097142Y-99574737D02*
X186097142Y-99635663D01*
X185992806Y-99574737D02*
X186097142Y-99574737D01*
X186097142Y-90095666D02*
X185992806Y-90159130D01*
X186097142Y-94073626D02*
X186097142Y-90095666D01*
X186097142Y-119078675D02*
X186097142Y-115037250D01*
X185992806Y-119015210D02*
X186097142Y-119078675D01*
X186097142Y-109685915D02*
X185992806Y-109685915D01*
X186097142Y-109622451D02*
X186097142Y-109685915D01*
X186097142Y-114128437D02*
X186097142Y-109622451D01*
X185992806Y-119015210D02*
X164689012Y-119015210D01*
X103572613Y-114996632D02*
X103868865Y-114996632D01*
X103572613Y-114105589D02*
X103868865Y-114105589D01*
X101773772Y-114105589D02*
X103572613Y-114105589D01*
X101773772Y-114996632D02*
X101773772Y-114105589D01*
X101773772Y-95152524D02*
X101773772Y-94347793D01*
X103572613Y-95152524D02*
X101773772Y-95152524D01*
X103572613Y-94347793D02*
X103572613Y-95152524D01*
X185992806Y-114128437D02*
X185992806Y-109685915D01*
X185843791Y-94073626D02*
X185843791Y-94073626D01*
X185843791Y-94875819D02*
X185843791Y-94073626D01*
X186119227Y-94875819D02*
X185843791Y-94875819D01*
X186119227Y-94073626D02*
X186119227Y-94875819D01*
X185843791Y-94073626D02*
X186119227Y-94073626D01*
X185843791Y-114128437D02*
X185843791Y-114128437D01*
X185843791Y-115037250D02*
X185843791Y-114128437D01*
X186119227Y-115037250D02*
X185843791Y-115037250D01*
X186119227Y-114128437D02*
X186119227Y-115037250D01*
X185843791Y-114128437D02*
X186119227Y-114128437D01*
X103721374Y-114105589D02*
X103721374Y-95152524D01*
X103721374Y-90159130D02*
X103593175Y-90075357D01*
X103721374Y-94347793D02*
X103721374Y-90159130D01*
X103868865Y-94347793D02*
X103868865Y-95152524D01*
X103868865Y-114105589D02*
X103868865Y-114996632D01*
X103593175Y-119078675D02*
X103593175Y-114996632D01*
X101838760Y-119142139D02*
X103593175Y-119078675D01*
X103593175Y-114105589D02*
X103593175Y-95152524D01*
X103593175Y-90075357D02*
X101838760Y-90032201D01*
X103593175Y-94347793D02*
X103593175Y-90075357D01*
X101838760Y-119142139D02*
X101838760Y-114996632D01*
X101773772Y-119162448D02*
X101838760Y-119142139D01*
X101773772Y-120073799D02*
X101773772Y-119162448D01*
X101689745Y-120137264D02*
X101773772Y-120073799D01*
X101689745Y-89082771D02*
X101689745Y-120137264D01*
X101773772Y-89143697D02*
X101689745Y-89082771D01*
X101773772Y-89991584D02*
X101773772Y-89143697D01*
X168074214Y-89864655D02*
X168074214Y-89016768D01*
X168496888Y-89778343D02*
X168074214Y-89864655D01*
X168496888Y-88932995D02*
X168496888Y-89778343D01*
X168137678Y-87958179D02*
X168496888Y-88932995D01*
X187875166Y-120137264D02*
X176303540Y-120137264D01*
X187875166Y-89082771D02*
X176303540Y-89082771D01*
X175160416Y-122231596D02*
X189715131Y-122231596D01*
X189715131Y-87029057D02*
X175160416Y-87029057D01*
X167777961Y-89016768D02*
X167777961Y-87029057D01*
X168137678Y-87958179D02*
X168137678Y-88996459D01*
X103572613Y-114996632D02*
X101773772Y-114996632D01*
X114762943Y-87958179D02*
X115123929Y-88932995D01*
X167777961Y-87029057D02*
X121786950Y-87029057D01*
X114762943Y-87958179D02*
X114762943Y-88996459D01*
X121427233Y-87958179D02*
X114762943Y-87958179D01*
X121427233Y-88996459D02*
X121427233Y-87958179D01*
X121786950Y-87029057D02*
X121786950Y-89016768D01*
X168074214Y-89016768D02*
X168137678Y-88996459D01*
X114699478Y-89016768D02*
X114762943Y-88996459D01*
X114699478Y-89864655D02*
X114699478Y-89016768D01*
X115123929Y-89778343D02*
X114699478Y-89864655D01*
X115123929Y-88932995D02*
X115123929Y-89778343D01*
X164689012Y-90159130D02*
X164541775Y-90055049D01*
X164541775Y-119098983D02*
X164689012Y-119015210D01*
X187028294Y-99635663D02*
X187028294Y-109622451D01*
X125108940Y-119098983D02*
X164541775Y-119098983D01*
X125108940Y-90055049D02*
X125108940Y-119098983D01*
X164541775Y-90055049D02*
X125108940Y-90055049D01*
X126863355Y-100250000D02*
X126863355Y-100250000D01*
X130312275Y-100250000D02*
X126863355Y-100250000D01*
X130312275Y-92403238D02*
X130312275Y-100250000D01*
X126863355Y-92403238D02*
X130312275Y-92403238D01*
X126863355Y-100250000D02*
X126863355Y-92403238D01*
X126863355Y-116750794D02*
X126863355Y-116750794D01*
X130312275Y-116750794D02*
X126863355Y-116750794D01*
X130312275Y-108904032D02*
X130312275Y-116750794D01*
X126863355Y-108904032D02*
X130312275Y-108904032D01*
X126863355Y-116750794D02*
X126863355Y-108904032D01*
X227687772Y-120073799D02*
X227687772Y-118570958D01*
X227687772Y-120073799D02*
X227285914Y-118570958D01*
X228090137Y-118570958D02*
X227687772Y-120073799D01*
X227687772Y-89166544D02*
X227687772Y-90646539D01*
X227687772Y-89166544D02*
X228090137Y-90646539D01*
X227285914Y-90646539D02*
X227687772Y-89166544D01*
X227687772Y-90646539D02*
X227687772Y-118570958D01*
X188445585Y-120073799D02*
X228682389Y-120073799D01*
X188445585Y-89166544D02*
X228682389Y-89166544D01*
X64288793Y-113790805D02*
X74272535Y-113790805D01*
X246178053Y-95429230D02*
X236171972Y-95429230D01*
X130312275Y-106934091D02*
X131814863Y-106934091D01*
X130312275Y-106934091D02*
X131814863Y-106535533D01*
X131814863Y-107337726D02*
X130312275Y-106934091D01*
X126863355Y-106934091D02*
X125362545Y-107337726D01*
X125362545Y-106934091D02*
X126863355Y-106934091D01*
X126863355Y-106934091D02*
X130312275Y-106934091D01*
X125362545Y-106535533D02*
X126863355Y-106934091D01*
X125362545Y-106934091D02*
X123859703Y-106934091D01*
X130312275Y-108289694D02*
X130312275Y-105941505D01*
X126863355Y-108289694D02*
X126863355Y-105941505D01*
X130312275Y-70063703D02*
X131814863Y-70063703D01*
X130312275Y-70063703D02*
X131814863Y-69660068D01*
X131814863Y-70464799D02*
X130312275Y-70063703D01*
X126863355Y-70063703D02*
X125362545Y-70464799D01*
X125362545Y-70063703D02*
X126863355Y-70063703D01*
X126863355Y-70063703D02*
X130312275Y-70063703D01*
X125362545Y-69660068D02*
X126863355Y-70063703D01*
X131814863Y-70063703D02*
X141079931Y-70063703D01*
X125362545Y-70063703D02*
X123859703Y-70063703D01*
X130312275Y-99635663D02*
X130312275Y-69068578D01*
X126863355Y-99635663D02*
X126863355Y-69068578D01*
X141271340Y-87049366D02*
X141271340Y-88552207D01*
X141271340Y-87049366D02*
X141671929Y-88552207D01*
X140868975Y-88552207D02*
X141271340Y-87049366D01*
X122421850Y-87049366D02*
X142264180Y-87049366D01*
X75817771Y-115016941D02*
X75817771Y-116496935D01*
X75817771Y-115016941D02*
X76220136Y-116496935D01*
X75415405Y-116496935D02*
X75817771Y-115016941D01*
X75817771Y-114105589D02*
X75415405Y-112605287D01*
X75817771Y-112605287D02*
X75817771Y-114105589D01*
X75817771Y-114105589D02*
X75817771Y-115016941D01*
X76220136Y-112605287D02*
X75817771Y-114105589D01*
X75817771Y-116496935D02*
X75817771Y-123818210D01*
X75817771Y-112605287D02*
X75817771Y-111102445D01*
X101160958Y-114105589D02*
X74823407Y-114105589D01*
X101160958Y-115016941D02*
X74823407Y-115016941D01*
X75817771Y-87049366D02*
X75817771Y-88552207D01*
X75817771Y-87049366D02*
X76220136Y-88552207D01*
X75415405Y-88552207D02*
X75817771Y-87049366D01*
X75817771Y-114105589D02*
X75817771Y-112605287D01*
X75817771Y-114105589D02*
X75415405Y-112605287D01*
X76220136Y-112605287D02*
X75817771Y-114105589D01*
X75817771Y-112605287D02*
X75817771Y-88552207D01*
X99129330Y-87049366D02*
X74823407Y-87049366D01*
X101160958Y-114105589D02*
X74823407Y-114105589D01*
X89758402Y-95172833D02*
X89758402Y-96675675D01*
X89758402Y-95172833D02*
X90160768Y-96675675D01*
X89356544Y-96675675D02*
X89758402Y-95172833D01*
X89758402Y-94370641D02*
X89356544Y-92867799D01*
X89758402Y-92867799D02*
X89758402Y-94370641D01*
X89758402Y-94370641D02*
X89758402Y-95172833D01*
X90160768Y-92867799D02*
X89758402Y-94370641D01*
X89758402Y-96675675D02*
X89758402Y-103974102D01*
X89758402Y-92867799D02*
X89758402Y-91364958D01*
X101160958Y-95172833D02*
X88764293Y-95172833D01*
X101160958Y-94370641D02*
X88764293Y-94370641D01*
X89758402Y-87049366D02*
X89758402Y-88552207D01*
X89758402Y-87049366D02*
X90160768Y-88552207D01*
X89356544Y-88552207D02*
X89758402Y-87049366D01*
X89758402Y-94370641D02*
X89758402Y-92867799D01*
X89758402Y-94370641D02*
X89356544Y-92867799D01*
X90160768Y-92867799D02*
X89758402Y-94370641D01*
X89758402Y-92867799D02*
X89758402Y-88552207D01*
X99129330Y-87049366D02*
X88764293Y-87049366D01*
X101160958Y-94370641D02*
X88764293Y-94370641D01*
X153878962Y-90075357D02*
X153878962Y-91578199D01*
X153878962Y-90075357D02*
X154280820Y-91578199D01*
X153476596Y-91578199D02*
X153878962Y-90075357D01*
X145459496Y-119098983D02*
X154893634Y-119098983D01*
X145459496Y-90075357D02*
X154893634Y-90075357D01*
X82777044Y-113684185D02*
X82777044Y-112181343D01*
X82777044Y-113684185D02*
X82375186Y-112181343D01*
X83179409Y-112181343D02*
X82777044Y-113684185D01*
X82777044Y-87049366D02*
X82777044Y-88552207D01*
X82777044Y-87049366D02*
X83179409Y-88552207D01*
X82375186Y-88552207D02*
X82777044Y-87049366D01*
X82777044Y-88552207D02*
X82777044Y-112181343D01*
X112034473Y-113684185D02*
X81761864Y-113684185D01*
X99129330Y-87049366D02*
X81761864Y-87049366D01*
X113282441Y-139217258D02*
X114785029Y-139217258D01*
X113282441Y-139217258D02*
X114785029Y-138816162D01*
X114785029Y-139620893D02*
X113282441Y-139217258D01*
X176281454Y-139217258D02*
X174780136Y-139217258D01*
X176281454Y-139217258D02*
X174780136Y-139620893D01*
X174780136Y-138816162D02*
X176281454Y-139217258D01*
X174780136Y-139217258D02*
X114785029Y-139217258D01*
X113282441Y-120815066D02*
X113282441Y-140212383D01*
X176281454Y-120815066D02*
X176281454Y-140212383D01*
X176281454Y-77065116D02*
X174780136Y-77065116D01*
X176281454Y-77065116D02*
X174780136Y-77466213D01*
X174780136Y-76661482D02*
X176281454Y-77065116D01*
X113282441Y-77065116D02*
X114785029Y-77065116D01*
X113282441Y-77065116D02*
X114785029Y-76661482D01*
X114785029Y-77466213D02*
X113282441Y-77065116D01*
X114785029Y-77065116D02*
X174780136Y-77065116D01*
X176281454Y-88404969D02*
X176281454Y-76049683D01*
X113282441Y-88404969D02*
X113282441Y-76049683D01*
X213683929Y-87049366D02*
X213683929Y-88552207D01*
X213683929Y-87049366D02*
X214086041Y-88552207D01*
X213281818Y-88552207D02*
X213683929Y-87049366D01*
X213683929Y-99635663D02*
X213683929Y-98135360D01*
X213683929Y-99635663D02*
X213281818Y-98135360D01*
X214086041Y-98135360D02*
X213683929Y-99635663D01*
X213683929Y-98135360D02*
X213683929Y-88552207D01*
X190327945Y-87049366D02*
X214699109Y-87049366D01*
X213683929Y-109642760D02*
X213683929Y-108142457D01*
X213683929Y-109642760D02*
X213281818Y-108142457D01*
X214086041Y-108142457D02*
X213683929Y-109642760D01*
X213683929Y-99635663D02*
X213683929Y-101138504D01*
X213683929Y-99635663D02*
X214086041Y-101138504D01*
X213281818Y-101138504D02*
X213683929Y-99635663D01*
X213683929Y-101138504D02*
X213683929Y-108142457D01*
X220685851Y-87049366D02*
X220685851Y-88552207D01*
X220685851Y-87049366D02*
X221088216Y-88552207D01*
X220283739Y-88552207D02*
X220685851Y-87049366D01*
X220685851Y-114128437D02*
X220685851Y-112625595D01*
X220685851Y-114128437D02*
X220283739Y-112625595D01*
X221088216Y-112625595D02*
X220685851Y-114128437D01*
X220685851Y-112625595D02*
X220685851Y-88552207D01*
X190327945Y-87049366D02*
X221680214Y-87049366D01*
X188445585Y-114128437D02*
X221680214Y-114128437D01*
X199700396Y-87049366D02*
X199700396Y-88552207D01*
X199700396Y-87049366D02*
X200102507Y-88552207D01*
X199298284Y-88552207D02*
X199700396Y-87049366D01*
X199700396Y-94093935D02*
X199700396Y-92591094D01*
X199700396Y-94093935D02*
X199298284Y-92591094D01*
X200102507Y-92591094D02*
X199700396Y-94093935D01*
X199700396Y-87049366D02*
X199700396Y-77806383D01*
X199700396Y-92591094D02*
X199700396Y-88552207D01*
X190327945Y-87049366D02*
X200695013Y-87049366D01*
X188445585Y-94093935D02*
X200695013Y-94093935D01*
X220685851Y-115037250D02*
X220685851Y-116540091D01*
X220685851Y-115037250D02*
X221088216Y-116540091D01*
X220283739Y-116540091D02*
X220685851Y-115037250D01*
X220685851Y-114128437D02*
X220283739Y-112625595D01*
X220685851Y-112625595D02*
X220685851Y-114128437D01*
X220685851Y-114128437D02*
X220685851Y-115037250D01*
X221088216Y-112625595D02*
X220685851Y-114128437D01*
X220685851Y-116540091D02*
X220685851Y-128006873D01*
X220685851Y-112625595D02*
X220685851Y-111145601D01*
X188445585Y-115037250D02*
X221680214Y-115037250D01*
X188445585Y-114128437D02*
X221680214Y-114128437D01*
X199700396Y-94898666D02*
X199700396Y-96401508D01*
X199700396Y-94898666D02*
X200102507Y-96401508D01*
X199298284Y-96401508D02*
X199700396Y-94898666D01*
X199700396Y-94093935D02*
X199298284Y-92591094D01*
X199700396Y-92591094D02*
X199700396Y-94093935D01*
X199700396Y-94093935D02*
X199700396Y-94898666D01*
X200102507Y-92591094D02*
X199700396Y-94093935D01*
X199700396Y-96401508D02*
X199700396Y-105306859D01*
X199700396Y-92591094D02*
X199700396Y-91090791D01*
X188445585Y-94898666D02*
X200695013Y-94898666D01*
X188445585Y-94093935D02*
X200695013Y-94093935D01*
X99764483Y-63059751D02*
X101267071Y-63059751D01*
X99764483Y-63059751D02*
X101267071Y-62658655D01*
X101267071Y-63463386D02*
X99764483Y-63059751D01*
X171839695Y-63059751D02*
X170337107Y-63059751D01*
X171839695Y-63059751D02*
X170337107Y-63463386D01*
X170337107Y-62658655D02*
X171839695Y-63059751D01*
X170337107Y-63059751D02*
X101267071Y-63059751D01*
X99764483Y-86414720D02*
X99764483Y-62067165D01*
X206702571Y-87049366D02*
X206702571Y-88552207D01*
X206702571Y-87049366D02*
X207104429Y-88552207D01*
X206300205Y-88552207D02*
X206702571Y-87049366D01*
X206702571Y-95429230D02*
X206702571Y-93926389D01*
X206702571Y-95429230D02*
X206300205Y-93926389D01*
X207104429Y-93926389D02*
X206702571Y-95429230D01*
X206702571Y-93926389D02*
X206702571Y-88552207D01*
X190327945Y-87049366D02*
X207696934Y-87049366D01*
X99764483Y-132215845D02*
X101267071Y-132215845D01*
X99764483Y-132215845D02*
X101267071Y-131814749D01*
X101267071Y-132616941D02*
X99764483Y-132215845D01*
X117639920Y-132215845D02*
X116138601Y-132215845D01*
X117639920Y-132215845D02*
X116138601Y-132616941D01*
X116138601Y-131814749D02*
X117639920Y-132215845D01*
X116138601Y-132215845D02*
X101267071Y-132215845D01*
X99764483Y-122843394D02*
X99764483Y-133231278D01*
X117639920Y-114361986D02*
X117639920Y-133231278D01*
X112647287Y-113684185D02*
X122654638Y-113790805D01*
X117682568Y-108733947D02*
X117598795Y-118738504D01*
X99764483Y-70063703D02*
X101267071Y-70063703D01*
X99764483Y-70063703D02*
X101267071Y-69660068D01*
X101267071Y-70464799D02*
X99764483Y-70063703D01*
X126863355Y-70063703D02*
X125362545Y-70063703D01*
X126863355Y-70063703D02*
X125362545Y-70464799D01*
X125362545Y-69660068D02*
X126863355Y-70063703D01*
X125362545Y-70063703D02*
X101267071Y-70063703D01*
X99764483Y-86414720D02*
X99764483Y-69068578D01*
X126863355Y-91788901D02*
X126863355Y-69068578D01*
X136023834Y-87049366D02*
X136023834Y-88552207D01*
X136023834Y-87049366D02*
X136426200Y-88552207D01*
X135621469Y-88552207D02*
X136023834Y-87049366D01*
X136023834Y-87049366D02*
X136023834Y-77783536D01*
X136023834Y-90920706D02*
X136023834Y-88552207D01*
X122421850Y-87049366D02*
X137018197Y-87049366D01*
X105371199Y-119015210D02*
X105371199Y-117512369D01*
X105371199Y-119015210D02*
X104969087Y-117512369D01*
X105772041Y-117512369D02*
X105371199Y-119015210D01*
X105371199Y-90159130D02*
X105371199Y-91661972D01*
X105371199Y-90159130D02*
X105772041Y-91661972D01*
X104969087Y-91661972D02*
X105371199Y-90159130D01*
X105371199Y-91661972D02*
X105371199Y-117512369D01*
X104355004Y-119015210D02*
X106386125Y-119015210D01*
X104355004Y-90159130D02*
X106386125Y-90159130D01*
X189694822Y-56058337D02*
X188212543Y-56058337D01*
X189694822Y-56058337D02*
X188212543Y-56459433D01*
X188212543Y-55657241D02*
X189694822Y-56058337D01*
X99764483Y-56058337D02*
X101267071Y-56058337D01*
X99764483Y-56058337D02*
X101267071Y-55657241D01*
X101267071Y-56459433D02*
X99764483Y-56058337D01*
X101267071Y-56058337D02*
X188212543Y-56058337D01*
X189694822Y-86414720D02*
X189694822Y-55063212D01*
X99764483Y-86414720D02*
X99764483Y-55063212D01*
X234669385Y-122231596D02*
X234669385Y-120728754D01*
X234669385Y-122231596D02*
X234267273Y-120728754D01*
X235071750Y-120728754D02*
X234669385Y-122231596D01*
X234669385Y-87049366D02*
X234669385Y-88552207D01*
X234669385Y-87049366D02*
X235071750Y-88552207D01*
X234267273Y-88552207D02*
X234669385Y-87049366D01*
X234669385Y-88552207D02*
X234669385Y-120728754D01*
X190327945Y-122231596D02*
X235684310Y-122231596D01*
X190327945Y-87049366D02*
X235684310Y-87049366D01*
X103593175Y-119078675D02*
X103721374Y-119015210D01*
X124960179Y-119015210D02*
X125108940Y-119098983D01*
X125108940Y-90055049D02*
X124960179Y-90159130D01*
X113261625Y-89991584D02*
X101773772Y-89991584D01*
X113261625Y-89143697D02*
X101773772Y-89143697D01*
X187832517Y-89143697D02*
X176303540Y-89143697D01*
X187832517Y-89991584D02*
X176303540Y-89991584D01*
X113261625Y-119162448D02*
X101773772Y-119162448D01*
X187832517Y-119162448D02*
X176303540Y-119162448D01*
X113261625Y-120073799D02*
X101773772Y-120073799D01*
X187832517Y-120073799D02*
X176303540Y-120073799D01*
X176303540Y-89864655D02*
X176303540Y-89991584D01*
X113261625Y-119289377D02*
X113261625Y-119162448D01*
X174441489Y-119375689D02*
X168496888Y-119375689D01*
X121068023Y-119375689D02*
X115123929Y-119375689D01*
X174441489Y-89778343D02*
X168496888Y-89778343D01*
X121068023Y-89778343D02*
X115123929Y-89778343D01*
X113261625Y-89991584D02*
X113261625Y-89864655D01*
X176303540Y-119162448D02*
X176303540Y-119289377D01*
X121068023Y-89778343D02*
X121068023Y-88932995D01*
X121490697Y-89864655D02*
X121068023Y-89778343D01*
X168137678Y-120200729D02*
X168074214Y-120200729D01*
X168496888Y-119375689D02*
X168496888Y-120284502D01*
X168074214Y-119289377D02*
X168496888Y-119375689D01*
X121490697Y-89864655D02*
X121490697Y-89016768D01*
X168074214Y-89864655D02*
X121490697Y-89864655D01*
X168074214Y-120200729D02*
X121490697Y-120200729D01*
X168074214Y-119289377D02*
X168074214Y-120200729D01*
X121490697Y-119289377D02*
X168074214Y-119289377D01*
X113261625Y-119289377D02*
X114699478Y-119289377D01*
X113261625Y-120200729D02*
X113261625Y-119289377D01*
X114699478Y-120200729D02*
X113261625Y-120200729D01*
X115123929Y-119375689D02*
X115123929Y-120284502D01*
X114699478Y-119289377D02*
X115123929Y-119375689D01*
X114699478Y-120200729D02*
X114699478Y-119289377D01*
X114762943Y-120200729D02*
X114699478Y-120200729D01*
X113261625Y-89864655D02*
X113261625Y-89016768D01*
X114699478Y-89864655D02*
X113261625Y-89864655D01*
X176303540Y-120200729D02*
X174864163Y-120200729D01*
X176303540Y-119289377D02*
X176303540Y-120200729D01*
X174864163Y-119289377D02*
X176303540Y-119289377D01*
X176303540Y-89864655D02*
X174864163Y-89864655D01*
X176303540Y-89016768D02*
X176303540Y-89864655D01*
X174441489Y-89778343D02*
X174441489Y-88932995D01*
X174864163Y-89864655D02*
X174441489Y-89778343D01*
X174864163Y-89016768D02*
X174864163Y-89864655D01*
X174441489Y-88932995D02*
X168496888Y-88932995D01*
X174800699Y-87958179D02*
X174441489Y-88932995D01*
X174864163Y-89016768D02*
X176303540Y-89016768D01*
X174800699Y-88996459D02*
X174864163Y-89016768D01*
X121490697Y-89016768D02*
X168074214Y-89016768D01*
X121427233Y-88996459D02*
X121490697Y-89016768D01*
X113261625Y-89016768D02*
X114699478Y-89016768D01*
X121068023Y-88932995D02*
X121427233Y-87958179D01*
X115123929Y-88932995D02*
X121068023Y-88932995D01*
X168496888Y-120284502D02*
X168137678Y-121256779D01*
X174441489Y-120284502D02*
X168496888Y-120284502D01*
X115123929Y-120284502D02*
X114762943Y-121256779D01*
X121068023Y-120284502D02*
X115123929Y-120284502D01*
X129042476Y-100250000D02*
X129042476Y-92403238D01*
X126926820Y-100250000D02*
X126926820Y-92403238D01*
X129042476Y-108904032D02*
X129042476Y-116750794D01*
X126926820Y-108904032D02*
X126926820Y-116750794D01*
X103721374Y-119015210D02*
X103721374Y-114996632D01*
X124960179Y-119015210D02*
X103721374Y-119015210D01*
X124960179Y-90159130D02*
X124960179Y-119015210D01*
X103721374Y-90159130D02*
X124960179Y-90159130D01*
X120645349Y-113714648D02*
X120645349Y-113714648D01*
X120645349Y-114006585D02*
X120645349Y-113714648D01*
X120411291Y-114879857D02*
X120645349Y-114006585D01*
X119767760Y-115831826D02*
X120411291Y-114879857D01*
X118816045Y-116474088D02*
X119767760Y-115831826D01*
X117943027Y-116710176D02*
X118816045Y-116474088D01*
X117651089Y-116710176D02*
X117943027Y-116710176D01*
X117360422Y-116710176D02*
X117651089Y-116710176D01*
X116487403Y-116474088D02*
X117360422Y-116710176D01*
X115535688Y-115831826D02*
X116487403Y-116474088D01*
X114893680Y-114879857D02*
X115535688Y-115831826D01*
X114658099Y-114006585D02*
X114893680Y-114879857D01*
X114658099Y-113714648D02*
X114658099Y-114006585D01*
X114658099Y-113422710D02*
X114658099Y-113714648D01*
X114893680Y-112549438D02*
X114658099Y-113422710D01*
X115535688Y-111597469D02*
X114893680Y-112549438D01*
X116487403Y-110957746D02*
X115535688Y-111597469D01*
X117360422Y-110721658D02*
X116487403Y-110957746D01*
X117651089Y-110721658D02*
X117360422Y-110721658D01*
X117943027Y-110721658D02*
X117651089Y-110721658D01*
X118816045Y-110957746D02*
X117943027Y-110721658D01*
X119767760Y-111597469D02*
X118816045Y-110957746D01*
X120411291Y-112549438D02*
X119767760Y-111597469D01*
X120645349Y-113422710D02*
X120411291Y-112549438D01*
X120645349Y-113714648D02*
X120645349Y-113422710D01*
X116477502Y-113714648D02*
X116477502Y-113714648D01*
X116477502Y-113600411D02*
X116477502Y-113714648D01*
X116569907Y-113257703D02*
X116477502Y-113600411D01*
X116821988Y-112884531D02*
X116569907Y-113257703D01*
X117195414Y-112633211D02*
X116821988Y-112884531D01*
X117538122Y-112541822D02*
X117195414Y-112633211D01*
X117651089Y-112541822D02*
X117538122Y-112541822D01*
X117765326Y-112541822D02*
X117651089Y-112541822D01*
X118108034Y-112633211D02*
X117765326Y-112541822D01*
X118482983Y-112884531D02*
X118108034Y-112633211D01*
X118733541Y-113257703D02*
X118482983Y-112884531D01*
X118825946Y-113600411D02*
X118733541Y-113257703D01*
X118825946Y-113714648D02*
X118825946Y-113600411D01*
X118825946Y-113828884D02*
X118825946Y-113714648D01*
X118733541Y-114171593D02*
X118825946Y-113828884D01*
X118482983Y-114544764D02*
X118733541Y-114171593D01*
X118108034Y-114796084D02*
X118482983Y-114544764D01*
X117765326Y-114890012D02*
X118108034Y-114796084D01*
X117651089Y-114890012D02*
X117765326Y-114890012D01*
X117538122Y-114890012D02*
X117651089Y-114890012D01*
X117195414Y-114796084D02*
X117538122Y-114890012D01*
X116821988Y-114544764D02*
X117195414Y-114796084D01*
X116569907Y-114171593D02*
X116821988Y-114544764D01*
X116477502Y-113828884D02*
X116569907Y-114171593D01*
X116477502Y-113714648D02*
X116477502Y-113828884D01*
D11*
X214526927Y-105275240D02*
X214526927Y-103480151D01*
X214526927Y-104377696D02*
X218017377Y-104377696D01*
X217518742Y-104078514D01*
X217186318Y-103779333D01*
X217020106Y-103480151D01*
X218017377Y-107219919D02*
X218017377Y-107519101D01*
X217851166Y-107818282D01*
X217684954Y-107967873D01*
X217352530Y-108117463D01*
X216687682Y-108267054D01*
X215856623Y-108267054D01*
X215191775Y-108117463D01*
X214859351Y-107967873D01*
X214693139Y-107818282D01*
X214526927Y-107519101D01*
X214526927Y-107219919D01*
X214693139Y-106920738D01*
X214859351Y-106771147D01*
X215191775Y-106621556D01*
X215856623Y-106471966D01*
X216687682Y-106471966D01*
X217352530Y-106621556D01*
X217684954Y-106771147D01*
X217851166Y-106920738D01*
X218017377Y-107219919D01*
X225131381Y-98339519D02*
X225297593Y-98489110D01*
X225463804Y-98788291D01*
X225463804Y-99536245D01*
X225297593Y-99835426D01*
X225131381Y-99985017D01*
X224798957Y-100134608D01*
X224466533Y-100134608D01*
X223967897Y-99985017D01*
X221973354Y-98189929D01*
X221973354Y-100134608D01*
X225463804Y-101181743D02*
X225463804Y-103276013D01*
X221973354Y-101929696D01*
X222139566Y-104622329D02*
X221973354Y-104622329D01*
X221640931Y-104472739D01*
X221474719Y-104323148D01*
X221973354Y-107614144D02*
X221973354Y-105819055D01*
X221973354Y-106716599D02*
X225463804Y-106716599D01*
X224965169Y-106417418D01*
X224632745Y-106118236D01*
X224466533Y-105819055D01*
X204478095Y-79003315D02*
X204478095Y-81097585D01*
X200987645Y-79751268D01*
X201153857Y-82443901D02*
X200987645Y-82443901D01*
X200655222Y-82294310D01*
X200489010Y-82144720D01*
X204478095Y-84388580D02*
X204478095Y-84687762D01*
X204311884Y-84986943D01*
X204145672Y-85136534D01*
X203813248Y-85286125D01*
X203148400Y-85435715D01*
X202317341Y-85435715D01*
X201652493Y-85286125D01*
X201320069Y-85136534D01*
X201153857Y-84986943D01*
X200987645Y-84687762D01*
X200987645Y-84388580D01*
X201153857Y-84089399D01*
X201320069Y-83939808D01*
X201652493Y-83790217D01*
X202317341Y-83640627D01*
X203148400Y-83640627D01*
X203813248Y-83790217D01*
X204145672Y-83939808D01*
X204311884Y-84089399D01*
X204478095Y-84388580D01*
X204478095Y-88277939D02*
X204478095Y-86782032D01*
X202815976Y-86632441D01*
X202982188Y-86782032D01*
X203148400Y-87081213D01*
X203148400Y-87829167D01*
X202982188Y-88128348D01*
X202815976Y-88277939D01*
X202483553Y-88427530D01*
X201652493Y-88427530D01*
X201320069Y-88277939D01*
X201153857Y-88128348D01*
X200987645Y-87829167D01*
X200987645Y-87081213D01*
X201153857Y-86782032D01*
X201320069Y-86632441D01*
X225463804Y-124305763D02*
X225463804Y-124604944D01*
X225297593Y-124904126D01*
X225131381Y-125053716D01*
X224798957Y-125203307D01*
X224134109Y-125352898D01*
X223303050Y-125352898D01*
X222638202Y-125203307D01*
X222305778Y-125053716D01*
X222139566Y-124904126D01*
X221973354Y-124604944D01*
X221973354Y-124305763D01*
X222139566Y-124006581D01*
X222305778Y-123856991D01*
X222638202Y-123707400D01*
X223303050Y-123557809D01*
X224134109Y-123557809D01*
X224798957Y-123707400D01*
X225131381Y-123856991D01*
X225297593Y-124006581D01*
X225463804Y-124305763D01*
X222139566Y-126848805D02*
X221973354Y-126848805D01*
X221640931Y-126699214D01*
X221474719Y-126549624D01*
X221973354Y-128344712D02*
X221973354Y-128943075D01*
X222139566Y-129242256D01*
X222305778Y-129391847D01*
X222804414Y-129691029D01*
X223469262Y-129840619D01*
X224798957Y-129840619D01*
X225131381Y-129691029D01*
X225297593Y-129541438D01*
X225463804Y-129242256D01*
X225463804Y-128643894D01*
X225297593Y-128344712D01*
X225131381Y-128195121D01*
X224798957Y-128045531D01*
X223967897Y-128045531D01*
X223635473Y-128195121D01*
X223469262Y-128344712D01*
X223303050Y-128643894D01*
X223303050Y-129242256D01*
X223469262Y-129541438D01*
X223635473Y-129691029D01*
X223967897Y-129840619D01*
X204478095Y-101605748D02*
X204478095Y-101904929D01*
X204311884Y-102204111D01*
X204145672Y-102353701D01*
X203813248Y-102503292D01*
X203148400Y-102652883D01*
X202317341Y-102652883D01*
X201652493Y-102503292D01*
X201320069Y-102353701D01*
X201153857Y-102204111D01*
X200987645Y-101904929D01*
X200987645Y-101605748D01*
X201153857Y-101306566D01*
X201320069Y-101156976D01*
X201652493Y-101007385D01*
X202317341Y-100857794D01*
X203148400Y-100857794D01*
X203813248Y-101007385D01*
X204145672Y-101156976D01*
X204311884Y-101306566D01*
X204478095Y-101605748D01*
X201153857Y-104148790D02*
X200987645Y-104148790D01*
X200655222Y-103999199D01*
X200489010Y-103849609D01*
X202982188Y-105943879D02*
X203148400Y-105644697D01*
X203314612Y-105495106D01*
X203647036Y-105345516D01*
X203813248Y-105345516D01*
X204145672Y-105495106D01*
X204311884Y-105644697D01*
X204478095Y-105943879D01*
X204478095Y-106542241D01*
X204311884Y-106841423D01*
X204145672Y-106991014D01*
X203813248Y-107140604D01*
X203647036Y-107140604D01*
X203314612Y-106991014D01*
X203148400Y-106841423D01*
X202982188Y-106542241D01*
X202982188Y-105943879D01*
X202815976Y-105644697D01*
X202649764Y-105495106D01*
X202317341Y-105345516D01*
X201652493Y-105345516D01*
X201320069Y-105495106D01*
X201153857Y-105644697D01*
X200987645Y-105943879D01*
X200987645Y-106542241D01*
X201153857Y-106841423D01*
X201320069Y-106991014D01*
X201652493Y-107140604D01*
X202317341Y-107140604D01*
X202649764Y-106991014D01*
X202815976Y-106841423D01*
X202982188Y-106542241D01*
X133371766Y-58283573D02*
X135466036Y-58283573D01*
X134119719Y-61774023D01*
X136513171Y-58615996D02*
X136662761Y-58449785D01*
X136961943Y-58283573D01*
X137709896Y-58283573D01*
X138009078Y-58449785D01*
X138158668Y-58615996D01*
X138308259Y-58948420D01*
X138308259Y-59280844D01*
X138158668Y-59779480D01*
X136363580Y-61774023D01*
X138308259Y-61774023D01*
X139804166Y-61607811D02*
X139804166Y-61774023D01*
X139654576Y-62106446D01*
X139504985Y-62272658D01*
X142795981Y-61774023D02*
X141000892Y-61774023D01*
X141898436Y-61774023D02*
X141898436Y-58283573D01*
X141599255Y-58782208D01*
X141300073Y-59114632D01*
X141000892Y-59280844D01*
X209963293Y-90306698D02*
X210129505Y-90007517D01*
X210295717Y-89857926D01*
X210628141Y-89708335D01*
X210794353Y-89708335D01*
X211126777Y-89857926D01*
X211292989Y-90007517D01*
X211459200Y-90306698D01*
X211459200Y-90905061D01*
X211292989Y-91204242D01*
X211126777Y-91353833D01*
X210794353Y-91503424D01*
X210628141Y-91503424D01*
X210295717Y-91353833D01*
X210129505Y-91204242D01*
X209963293Y-90905061D01*
X209963293Y-90306698D01*
X209797081Y-90007517D01*
X209630869Y-89857926D01*
X209298446Y-89708335D01*
X208633598Y-89708335D01*
X208301174Y-89857926D01*
X208134962Y-90007517D01*
X207968750Y-90306698D01*
X207968750Y-90905061D01*
X208134962Y-91204242D01*
X208301174Y-91353833D01*
X208633598Y-91503424D01*
X209298446Y-91503424D01*
X209630869Y-91353833D01*
X209797081Y-91204242D01*
X209963293Y-90905061D01*
X208134962Y-92999331D02*
X207968750Y-92999331D01*
X207636327Y-92849740D01*
X207470115Y-92700150D01*
X210295717Y-95691964D02*
X207968750Y-95691964D01*
X211625412Y-94944010D02*
X209132234Y-94196057D01*
X209132234Y-96140736D01*
X107878672Y-130927579D02*
X106083583Y-130927579D01*
X106981128Y-130927579D02*
X106981128Y-127437129D01*
X106681946Y-127935764D01*
X106382765Y-128268188D01*
X106083583Y-128434400D01*
X108925807Y-127437129D02*
X111020077Y-127437129D01*
X109673760Y-130927579D01*
X112366393Y-130761367D02*
X112366393Y-130927579D01*
X112216803Y-131260002D01*
X112067212Y-131426214D01*
X113862300Y-130927579D02*
X114460663Y-130927579D01*
X114759845Y-130761367D01*
X114909435Y-130595155D01*
X115208617Y-130096519D01*
X115358208Y-129431671D01*
X115358208Y-128101976D01*
X115208617Y-127769552D01*
X115059026Y-127603341D01*
X114759845Y-127437129D01*
X114161482Y-127437129D01*
X113862300Y-127603341D01*
X113712710Y-127769552D01*
X113563119Y-128101976D01*
X113563119Y-128933036D01*
X113712710Y-129265460D01*
X113862300Y-129431671D01*
X114161482Y-129597883D01*
X114759845Y-129597883D01*
X115059026Y-129431671D01*
X115208617Y-129265460D01*
X115358208Y-128933036D01*
X109849064Y-65617410D02*
X109998655Y-65451199D01*
X110297836Y-65284987D01*
X111045790Y-65284987D01*
X111344971Y-65451199D01*
X111494562Y-65617410D01*
X111644153Y-65949834D01*
X111644153Y-66282258D01*
X111494562Y-66780894D01*
X109699474Y-68775437D01*
X111644153Y-68775437D01*
X112691288Y-65284987D02*
X114785558Y-65284987D01*
X113439241Y-68775437D01*
X116131874Y-68609225D02*
X116131874Y-68775437D01*
X115982284Y-69107860D01*
X115832693Y-69274072D01*
X119123689Y-68775437D02*
X117328600Y-68775437D01*
X118226144Y-68775437D02*
X118226144Y-65284987D01*
X117926963Y-65783622D01*
X117627781Y-66116046D01*
X117328600Y-66282258D01*
X121965912Y-65284987D02*
X120470005Y-65284987D01*
X120320414Y-66947106D01*
X120470005Y-66780894D01*
X120769186Y-66614682D01*
X121517140Y-66614682D01*
X121816321Y-66780894D01*
X121965912Y-66947106D01*
X122115503Y-67279529D01*
X122115503Y-68110589D01*
X121965912Y-68443013D01*
X121816321Y-68609225D01*
X121517140Y-68775437D01*
X120769186Y-68775437D01*
X120470005Y-68609225D01*
X120320414Y-68443013D01*
X140802041Y-80798403D02*
X140802041Y-79302496D01*
X139139922Y-79152905D01*
X139306134Y-79302496D01*
X139472346Y-79601677D01*
X139472346Y-80349631D01*
X139306134Y-80648812D01*
X139139922Y-80798403D01*
X138807499Y-80947994D01*
X137976439Y-80947994D01*
X137644015Y-80798403D01*
X137477803Y-80648812D01*
X137311591Y-80349631D01*
X137311591Y-79601677D01*
X137477803Y-79302496D01*
X137644015Y-79152905D01*
X137477803Y-82443901D02*
X137311591Y-82443901D01*
X136979168Y-82294310D01*
X136812956Y-82144720D01*
X140802041Y-83491036D02*
X140802041Y-85435715D01*
X139472346Y-84388580D01*
X139472346Y-84837352D01*
X139306134Y-85136534D01*
X139139922Y-85286125D01*
X138807499Y-85435715D01*
X137976439Y-85435715D01*
X137644015Y-85286125D01*
X137477803Y-85136534D01*
X137311591Y-84837352D01*
X137311591Y-83939808D01*
X137477803Y-83640627D01*
X137644015Y-83491036D01*
X140802041Y-88277939D02*
X140802041Y-86782032D01*
X139139922Y-86632441D01*
X139306134Y-86782032D01*
X139472346Y-87081213D01*
X139472346Y-87829167D01*
X139306134Y-88128348D01*
X139139922Y-88277939D01*
X138807499Y-88427530D01*
X137976439Y-88427530D01*
X137644015Y-88277939D01*
X137477803Y-88128348D01*
X137311591Y-87829167D01*
X137311591Y-87081213D01*
X137477803Y-86782032D01*
X137644015Y-86632441D01*
X109816222Y-101131961D02*
X109982434Y-101281552D01*
X110148645Y-101580733D01*
X110148645Y-102328687D01*
X109982434Y-102627868D01*
X109816222Y-102777459D01*
X109483798Y-102927050D01*
X109151374Y-102927050D01*
X108652738Y-102777459D01*
X106658195Y-100982371D01*
X106658195Y-102927050D01*
X108652738Y-104722138D02*
X108818950Y-104422957D01*
X108985162Y-104273366D01*
X109317586Y-104123776D01*
X109483798Y-104123776D01*
X109816222Y-104273366D01*
X109982434Y-104422957D01*
X110148645Y-104722138D01*
X110148645Y-105320501D01*
X109982434Y-105619683D01*
X109816222Y-105769273D01*
X109483798Y-105918864D01*
X109317586Y-105918864D01*
X108985162Y-105769273D01*
X108818950Y-105619683D01*
X108652738Y-105320501D01*
X108652738Y-104722138D01*
X108486526Y-104422957D01*
X108320314Y-104273366D01*
X107987891Y-104123776D01*
X107323043Y-104123776D01*
X106990619Y-104273366D01*
X106824407Y-104422957D01*
X106658195Y-104722138D01*
X106658195Y-105320501D01*
X106824407Y-105619683D01*
X106990619Y-105769273D01*
X107323043Y-105918864D01*
X107987891Y-105918864D01*
X108320314Y-105769273D01*
X108486526Y-105619683D01*
X108652738Y-105320501D01*
X106824407Y-107414771D02*
X106658195Y-107414771D01*
X106325772Y-107265181D01*
X106159560Y-107115590D01*
X108652738Y-109209860D02*
X108818950Y-108910678D01*
X108985162Y-108761088D01*
X109317586Y-108611497D01*
X109483798Y-108611497D01*
X109816222Y-108761088D01*
X109982434Y-108910678D01*
X110148645Y-109209860D01*
X110148645Y-109808223D01*
X109982434Y-110107404D01*
X109816222Y-110256995D01*
X109483798Y-110406586D01*
X109317586Y-110406586D01*
X108985162Y-110256995D01*
X108818950Y-110107404D01*
X108652738Y-109808223D01*
X108652738Y-109209860D01*
X108486526Y-108910678D01*
X108320314Y-108761088D01*
X107987891Y-108611497D01*
X107323043Y-108611497D01*
X106990619Y-108761088D01*
X106824407Y-108910678D01*
X106658195Y-109209860D01*
X106658195Y-109808223D01*
X106824407Y-110107404D01*
X106990619Y-110256995D01*
X107323043Y-110406586D01*
X107987891Y-110406586D01*
X108320314Y-110256995D01*
X108486526Y-110107404D01*
X108652738Y-109808223D01*
X110148645Y-113248809D02*
X110148645Y-111752902D01*
X108486526Y-111603311D01*
X108652738Y-111752902D01*
X108818950Y-112052083D01*
X108818950Y-112800037D01*
X108652738Y-113099218D01*
X108486526Y-113248809D01*
X108154103Y-113398400D01*
X107323043Y-113398400D01*
X106990619Y-113248809D01*
X106824407Y-113099218D01*
X106658195Y-112800037D01*
X106658195Y-112052083D01*
X106824407Y-111752902D01*
X106990619Y-111603311D01*
X143974872Y-55237171D02*
X144573235Y-55237171D01*
X144872416Y-55070959D01*
X145022007Y-54904747D01*
X145321188Y-54406111D01*
X145470779Y-53741263D01*
X145470779Y-52411568D01*
X145321188Y-52079144D01*
X145171597Y-51912933D01*
X144872416Y-51746721D01*
X144274053Y-51746721D01*
X143974872Y-51912933D01*
X143825281Y-52079144D01*
X143675690Y-52411568D01*
X143675690Y-53242628D01*
X143825281Y-53575052D01*
X143974872Y-53741263D01*
X144274053Y-53907475D01*
X144872416Y-53907475D01*
X145171597Y-53741263D01*
X145321188Y-53575052D01*
X145470779Y-53242628D01*
X147415458Y-51746721D02*
X147714640Y-51746721D01*
X148013821Y-51912933D01*
X148163412Y-52079144D01*
X148313002Y-52411568D01*
X148462593Y-53076416D01*
X148462593Y-53907475D01*
X148313002Y-54572323D01*
X148163412Y-54904747D01*
X148013821Y-55070959D01*
X147714640Y-55237171D01*
X147415458Y-55237171D01*
X147116277Y-55070959D01*
X146966686Y-54904747D01*
X146817095Y-54572323D01*
X146667505Y-53907475D01*
X146667505Y-53076416D01*
X146817095Y-52411568D01*
X146966686Y-52079144D01*
X147116277Y-51912933D01*
X147415458Y-51746721D01*
X239447084Y-101997805D02*
X239447084Y-103942484D01*
X238117389Y-102895349D01*
X238117389Y-103344121D01*
X237951177Y-103643302D01*
X237784965Y-103792893D01*
X237452542Y-103942484D01*
X236621482Y-103942484D01*
X236289058Y-103792893D01*
X236122846Y-103643302D01*
X235956634Y-103344121D01*
X235956634Y-102446577D01*
X236122846Y-102147395D01*
X236289058Y-101997805D01*
X239447084Y-106784707D02*
X239447084Y-105288800D01*
X237784965Y-105139210D01*
X237951177Y-105288800D01*
X238117389Y-105587982D01*
X238117389Y-106335935D01*
X237951177Y-106635117D01*
X237784965Y-106784707D01*
X237452542Y-106934298D01*
X236621482Y-106934298D01*
X236289058Y-106784707D01*
X236122846Y-106635117D01*
X235956634Y-106335935D01*
X235956634Y-105587982D01*
X236122846Y-105288800D01*
X236289058Y-105139210D01*
X236122846Y-108430205D02*
X235956634Y-108430205D01*
X235624211Y-108280615D01*
X235457999Y-108131024D01*
X239114661Y-109626931D02*
X239280873Y-109776522D01*
X239447084Y-110075703D01*
X239447084Y-110823657D01*
X239280873Y-111122838D01*
X239114661Y-111272429D01*
X238782237Y-111422020D01*
X238449813Y-111422020D01*
X237951177Y-111272429D01*
X235956634Y-109477340D01*
X235956634Y-111422020D01*
X94536356Y-100272992D02*
X94536356Y-100572173D01*
X94370145Y-100871355D01*
X94203933Y-101020945D01*
X93871509Y-101170536D01*
X93206661Y-101320127D01*
X92375602Y-101320127D01*
X91710754Y-101170536D01*
X91378330Y-101020945D01*
X91212118Y-100871355D01*
X91045906Y-100572173D01*
X91045906Y-100272992D01*
X91212118Y-99973810D01*
X91378330Y-99824220D01*
X91710754Y-99674629D01*
X92375602Y-99525038D01*
X93206661Y-99525038D01*
X93871509Y-99674629D01*
X94203933Y-99824220D01*
X94370145Y-99973810D01*
X94536356Y-100272992D01*
X91212118Y-102816034D02*
X91045906Y-102816034D01*
X90713483Y-102666443D01*
X90547271Y-102516853D01*
X93040449Y-104611123D02*
X93206661Y-104311941D01*
X93372873Y-104162350D01*
X93705297Y-104012760D01*
X93871509Y-104012760D01*
X94203933Y-104162350D01*
X94370145Y-104311941D01*
X94536356Y-104611123D01*
X94536356Y-105209485D01*
X94370145Y-105508667D01*
X94203933Y-105658258D01*
X93871509Y-105807848D01*
X93705297Y-105807848D01*
X93372873Y-105658258D01*
X93206661Y-105508667D01*
X93040449Y-105209485D01*
X93040449Y-104611123D01*
X92874237Y-104311941D01*
X92708025Y-104162350D01*
X92375602Y-104012760D01*
X91710754Y-104012760D01*
X91378330Y-104162350D01*
X91212118Y-104311941D01*
X91045906Y-104611123D01*
X91045906Y-105209485D01*
X91212118Y-105508667D01*
X91378330Y-105658258D01*
X91710754Y-105807848D01*
X92375602Y-105807848D01*
X92708025Y-105658258D01*
X92874237Y-105508667D01*
X93040449Y-105209485D01*
X142802337Y-72286400D02*
X142203975Y-72286400D01*
X141904793Y-72452612D01*
X141755202Y-72618823D01*
X141456021Y-73117459D01*
X141306430Y-73782307D01*
X141306430Y-75112002D01*
X141456021Y-75444426D01*
X141605612Y-75610638D01*
X141904793Y-75776850D01*
X142503156Y-75776850D01*
X142802337Y-75610638D01*
X142951928Y-75444426D01*
X143101519Y-75112002D01*
X143101519Y-74280942D01*
X142951928Y-73948519D01*
X142802337Y-73782307D01*
X142503156Y-73616095D01*
X141904793Y-73616095D01*
X141605612Y-73782307D01*
X141456021Y-73948519D01*
X141306430Y-74280942D01*
X144148654Y-72286400D02*
X146093333Y-72286400D01*
X145046198Y-73616095D01*
X145494970Y-73616095D01*
X145794152Y-73782307D01*
X145943742Y-73948519D01*
X146093333Y-74280942D01*
X146093333Y-75112002D01*
X145943742Y-75444426D01*
X145794152Y-75610638D01*
X145494970Y-75776850D01*
X144597426Y-75776850D01*
X144298245Y-75610638D01*
X144148654Y-75444426D01*
X147589240Y-75610638D02*
X147589240Y-75776850D01*
X147439650Y-76109273D01*
X147290059Y-76275485D01*
X149533920Y-72286400D02*
X149833101Y-72286400D01*
X150132282Y-72452612D01*
X150281873Y-72618823D01*
X150431464Y-72951247D01*
X150581055Y-73616095D01*
X150581055Y-74447154D01*
X150431464Y-75112002D01*
X150281873Y-75444426D01*
X150132282Y-75610638D01*
X149833101Y-75776850D01*
X149533920Y-75776850D01*
X149234738Y-75610638D01*
X149085147Y-75444426D01*
X148935557Y-75112002D01*
X148785966Y-74447154D01*
X148785966Y-73616095D01*
X148935557Y-72951247D01*
X149085147Y-72618823D01*
X149234738Y-72452612D01*
X149533920Y-72286400D01*
X153423278Y-72286400D02*
X151927371Y-72286400D01*
X151777780Y-73948519D01*
X151927371Y-73782307D01*
X152226552Y-73616095D01*
X152974506Y-73616095D01*
X153273687Y-73782307D01*
X153423278Y-73948519D01*
X153572869Y-74280942D01*
X153572869Y-75112002D01*
X153423278Y-75444426D01*
X153273687Y-75610638D01*
X152974506Y-75776850D01*
X152226552Y-75776850D01*
X151927371Y-75610638D01*
X151777780Y-75444426D01*
X80262793Y-98339519D02*
X80429005Y-98489110D01*
X80595216Y-98788291D01*
X80595216Y-99536245D01*
X80429005Y-99835426D01*
X80262793Y-99985017D01*
X79930369Y-100134608D01*
X79597945Y-100134608D01*
X79099309Y-99985017D01*
X77104766Y-98189929D01*
X77104766Y-100134608D01*
X80595216Y-101181743D02*
X80595216Y-103276013D01*
X77104766Y-101929696D01*
X77270978Y-104622329D02*
X77104766Y-104622329D01*
X76772343Y-104472739D01*
X76606131Y-104323148D01*
X77104766Y-107614144D02*
X77104766Y-105819055D01*
X77104766Y-106716599D02*
X80595216Y-106716599D01*
X80096581Y-106417418D01*
X79764157Y-106118236D01*
X79597945Y-105819055D01*
X142802337Y-134441081D02*
X142203975Y-134441081D01*
X141904793Y-134607293D01*
X141755202Y-134773504D01*
X141456021Y-135272140D01*
X141306430Y-135936988D01*
X141306430Y-137266683D01*
X141456021Y-137599107D01*
X141605612Y-137765319D01*
X141904793Y-137931531D01*
X142503156Y-137931531D01*
X142802337Y-137765319D01*
X142951928Y-137599107D01*
X143101519Y-137266683D01*
X143101519Y-136435623D01*
X142951928Y-136103200D01*
X142802337Y-135936988D01*
X142503156Y-135770776D01*
X141904793Y-135770776D01*
X141605612Y-135936988D01*
X141456021Y-136103200D01*
X141306430Y-136435623D01*
X144148654Y-134441081D02*
X146093333Y-134441081D01*
X145046198Y-135770776D01*
X145494970Y-135770776D01*
X145794152Y-135936988D01*
X145943742Y-136103200D01*
X146093333Y-136435623D01*
X146093333Y-137266683D01*
X145943742Y-137599107D01*
X145794152Y-137765319D01*
X145494970Y-137931531D01*
X144597426Y-137931531D01*
X144298245Y-137765319D01*
X144148654Y-137599107D01*
X147589240Y-137765319D02*
X147589240Y-137931531D01*
X147439650Y-138263954D01*
X147290059Y-138430166D01*
X149533920Y-134441081D02*
X149833101Y-134441081D01*
X150132282Y-134607293D01*
X150281873Y-134773504D01*
X150431464Y-135105928D01*
X150581055Y-135770776D01*
X150581055Y-136601835D01*
X150431464Y-137266683D01*
X150281873Y-137599107D01*
X150132282Y-137765319D01*
X149833101Y-137931531D01*
X149533920Y-137931531D01*
X149234738Y-137765319D01*
X149085147Y-137599107D01*
X148935557Y-137266683D01*
X148785966Y-136601835D01*
X148785966Y-135770776D01*
X148935557Y-135105928D01*
X149085147Y-134773504D01*
X149234738Y-134607293D01*
X149533920Y-134441081D01*
X153423278Y-134441081D02*
X151927371Y-134441081D01*
X151777780Y-136103200D01*
X151927371Y-135936988D01*
X152226552Y-135770776D01*
X152974506Y-135770776D01*
X153273687Y-135936988D01*
X153423278Y-136103200D01*
X153572869Y-136435623D01*
X153572869Y-137266683D01*
X153423278Y-137599107D01*
X153273687Y-137765319D01*
X152974506Y-137931531D01*
X152226552Y-137931531D01*
X151927371Y-137765319D01*
X151777780Y-137599107D01*
X134535198Y-65284987D02*
X136479877Y-65284987D01*
X135432742Y-66614682D01*
X135881514Y-66614682D01*
X136180695Y-66780894D01*
X136330286Y-66947106D01*
X136479877Y-67279529D01*
X136479877Y-68110589D01*
X136330286Y-68443013D01*
X136180695Y-68609225D01*
X135881514Y-68775437D01*
X134983970Y-68775437D01*
X134684788Y-68609225D01*
X134535198Y-68443013D01*
X137975784Y-68609225D02*
X137975784Y-68775437D01*
X137826193Y-69107860D01*
X137676603Y-69274072D01*
X140668417Y-66448470D02*
X140668417Y-68775437D01*
X139920463Y-65118775D02*
X139172510Y-67611953D01*
X141117189Y-67611953D01*
X143809822Y-65284987D02*
X142313915Y-65284987D01*
X142164324Y-66947106D01*
X142313915Y-66780894D01*
X142613096Y-66614682D01*
X143361050Y-66614682D01*
X143660231Y-66780894D01*
X143809822Y-66947106D01*
X143959413Y-67279529D01*
X143959413Y-68110589D01*
X143809822Y-68443013D01*
X143660231Y-68609225D01*
X143361050Y-68775437D01*
X142613096Y-68775437D01*
X142313915Y-68609225D01*
X142164324Y-68443013D01*
X94536356Y-88035595D02*
X94536356Y-90129865D01*
X91045906Y-88783548D01*
X91212118Y-91476181D02*
X91045906Y-91476181D01*
X90713483Y-91326590D01*
X90547271Y-91177000D01*
X94536356Y-92523316D02*
X94536356Y-94467995D01*
X93206661Y-93420860D01*
X93206661Y-93869632D01*
X93040449Y-94168814D01*
X92874237Y-94318405D01*
X92541814Y-94467995D01*
X91710754Y-94467995D01*
X91378330Y-94318405D01*
X91212118Y-94168814D01*
X91045906Y-93869632D01*
X91045906Y-92972088D01*
X91212118Y-92672907D01*
X91378330Y-92523316D01*
X94536356Y-97310219D02*
X94536356Y-95814312D01*
X92874237Y-95664721D01*
X93040449Y-95814312D01*
X93206661Y-96113493D01*
X93206661Y-96861447D01*
X93040449Y-97160628D01*
X92874237Y-97310219D01*
X92541814Y-97459810D01*
X91710754Y-97459810D01*
X91378330Y-97310219D01*
X91212118Y-97160628D01*
X91045906Y-96861447D01*
X91045906Y-96113493D01*
X91212118Y-95814312D01*
X91378330Y-95664721D01*
D12*
X240994621Y-90019116D02*
X240994621Y-93010931D01*
X239000077Y-89420753D02*
X245980978Y-91515024D01*
X239000077Y-93609294D01*
D11*
X87201758Y-96902681D02*
X87367970Y-97052272D01*
X87534181Y-97351453D01*
X87534181Y-98099407D01*
X87367970Y-98398588D01*
X87201758Y-98548179D01*
X86869334Y-98697770D01*
X86536910Y-98697770D01*
X86038274Y-98548179D01*
X84043731Y-96753091D01*
X84043731Y-98697770D01*
X87534181Y-101390403D02*
X87534181Y-100792040D01*
X87367970Y-100492858D01*
X87201758Y-100343268D01*
X86703122Y-100044086D01*
X86038274Y-99894496D01*
X84708579Y-99894496D01*
X84376155Y-100044086D01*
X84209943Y-100193677D01*
X84043731Y-100492858D01*
X84043731Y-101091221D01*
X84209943Y-101390403D01*
X84376155Y-101539993D01*
X84708579Y-101689584D01*
X85539639Y-101689584D01*
X85872062Y-101539993D01*
X86038274Y-101390403D01*
X86204486Y-101091221D01*
X86204486Y-100492858D01*
X86038274Y-100193677D01*
X85872062Y-100044086D01*
X85539639Y-99894496D01*
X84209943Y-103185491D02*
X84043731Y-103185491D01*
X83711308Y-103035901D01*
X83545096Y-102886310D01*
X87534181Y-105878124D02*
X87534181Y-105279761D01*
X87367970Y-104980580D01*
X87201758Y-104830989D01*
X86703122Y-104531808D01*
X86038274Y-104382217D01*
X84708579Y-104382217D01*
X84376155Y-104531808D01*
X84209943Y-104681398D01*
X84043731Y-104980580D01*
X84043731Y-105578943D01*
X84209943Y-105878124D01*
X84376155Y-106027715D01*
X84708579Y-106177306D01*
X85539639Y-106177306D01*
X85872062Y-106027715D01*
X86038274Y-105878124D01*
X86204486Y-105578943D01*
X86204486Y-104980580D01*
X86038274Y-104681398D01*
X85872062Y-104531808D01*
X85539639Y-104382217D01*
X87534181Y-109019529D02*
X87534181Y-107523622D01*
X85872062Y-107374031D01*
X86038274Y-107523622D01*
X86204486Y-107822803D01*
X86204486Y-108570757D01*
X86038274Y-108869938D01*
X85872062Y-109019529D01*
X85539639Y-109169120D01*
X84708579Y-109169120D01*
X84376155Y-109019529D01*
X84209943Y-108869938D01*
X84043731Y-108570757D01*
X84043731Y-107822803D01*
X84209943Y-107523622D01*
X84376155Y-107374031D01*
D12*
X69111188Y-108383229D02*
X69111188Y-111375044D01*
X67116644Y-107784866D02*
X74097545Y-109879137D01*
X67116644Y-111973407D01*
D11*
X80595216Y-120117100D02*
X80595216Y-120416281D01*
X80429005Y-120715463D01*
X80262793Y-120865053D01*
X79930369Y-121014644D01*
X79265521Y-121164235D01*
X78434462Y-121164235D01*
X77769614Y-121014644D01*
X77437190Y-120865053D01*
X77270978Y-120715463D01*
X77104766Y-120416281D01*
X77104766Y-120117100D01*
X77270978Y-119817918D01*
X77437190Y-119668328D01*
X77769614Y-119518737D01*
X78434462Y-119369146D01*
X79265521Y-119369146D01*
X79930369Y-119518737D01*
X80262793Y-119668328D01*
X80429005Y-119817918D01*
X80595216Y-120117100D01*
X77270978Y-122660142D02*
X77104766Y-122660142D01*
X76772343Y-122510551D01*
X76606131Y-122360961D01*
X77104766Y-124156049D02*
X77104766Y-124754412D01*
X77270978Y-125053593D01*
X77437190Y-125203184D01*
X77935826Y-125502366D01*
X78600674Y-125651956D01*
X79930369Y-125651956D01*
X80262793Y-125502366D01*
X80429005Y-125352775D01*
X80595216Y-125053593D01*
X80595216Y-124455231D01*
X80429005Y-124156049D01*
X80262793Y-124006458D01*
X79930369Y-123856868D01*
X79099309Y-123856868D01*
X78766885Y-124006458D01*
X78600674Y-124156049D01*
X78434462Y-124455231D01*
X78434462Y-125053593D01*
X78600674Y-125352775D01*
X78766885Y-125502366D01*
X79099309Y-125651956D01*
X232465979Y-100982371D02*
X232465979Y-102927050D01*
X231136284Y-101879915D01*
X231136284Y-102328687D01*
X230970072Y-102627868D01*
X230803860Y-102777459D01*
X230471437Y-102927050D01*
X229640377Y-102927050D01*
X229307953Y-102777459D01*
X229141741Y-102627868D01*
X228975529Y-102328687D01*
X228975529Y-101431143D01*
X229141741Y-101131961D01*
X229307953Y-100982371D01*
X232465979Y-104871729D02*
X232465979Y-105170911D01*
X232299768Y-105470092D01*
X232133556Y-105619683D01*
X231801132Y-105769273D01*
X231136284Y-105918864D01*
X230305225Y-105918864D01*
X229640377Y-105769273D01*
X229307953Y-105619683D01*
X229141741Y-105470092D01*
X228975529Y-105170911D01*
X228975529Y-104871729D01*
X229141741Y-104572548D01*
X229307953Y-104422957D01*
X229640377Y-104273366D01*
X230305225Y-104123776D01*
X231136284Y-104123776D01*
X231801132Y-104273366D01*
X232133556Y-104422957D01*
X232299768Y-104572548D01*
X232465979Y-104871729D01*
X229141741Y-107414771D02*
X228975529Y-107414771D01*
X228643106Y-107265181D01*
X228476894Y-107115590D01*
X228975529Y-108910678D02*
X228975529Y-109509041D01*
X229141741Y-109808223D01*
X229307953Y-109957813D01*
X229806589Y-110256995D01*
X230471437Y-110406586D01*
X231801132Y-110406586D01*
X232133556Y-110256995D01*
X232299768Y-110107404D01*
X232465979Y-109808223D01*
X232465979Y-109209860D01*
X232299768Y-108910678D01*
X232133556Y-108761088D01*
X231801132Y-108611497D01*
X230970072Y-108611497D01*
X230637648Y-108761088D01*
X230471437Y-108910678D01*
X230305225Y-109209860D01*
X230305225Y-109808223D01*
X230471437Y-110107404D01*
X230637648Y-110256995D01*
X230970072Y-110406586D01*
X232465979Y-113248809D02*
X232465979Y-111752902D01*
X230803860Y-111603311D01*
X230970072Y-111752902D01*
X231136284Y-112052083D01*
X231136284Y-112800037D01*
X230970072Y-113099218D01*
X230803860Y-113248809D01*
X230471437Y-113398400D01*
X229640377Y-113398400D01*
X229307953Y-113248809D01*
X229141741Y-113099218D01*
X228975529Y-112800037D01*
X228975529Y-112052083D01*
X229141741Y-111752902D01*
X229307953Y-111603311D01*
X214971179Y-92518858D02*
X214971179Y-90723769D01*
X214971179Y-91621314D02*
X218461629Y-91621314D01*
X217962994Y-91322132D01*
X217630570Y-91022951D01*
X217464358Y-90723769D01*
X218129206Y-93715584D02*
X218295418Y-93865174D01*
X218461629Y-94164356D01*
X218461629Y-94912309D01*
X218295418Y-95211491D01*
X218129206Y-95361081D01*
X217796782Y-95510672D01*
X217464358Y-95510672D01*
X216965722Y-95361081D01*
X214971179Y-93565993D01*
X214971179Y-95510672D01*
X215137391Y-97006579D02*
X214971179Y-97006579D01*
X214638756Y-96856989D01*
X214472544Y-96707398D01*
X218461629Y-99699212D02*
X218461629Y-99100849D01*
X218295418Y-98801668D01*
X218129206Y-98652077D01*
X217630570Y-98352896D01*
X216965722Y-98203305D01*
X215636027Y-98203305D01*
X215303603Y-98352896D01*
X215137391Y-98502486D01*
X214971179Y-98801668D01*
X214971179Y-99400031D01*
X215137391Y-99699212D01*
X215303603Y-99848803D01*
X215636027Y-99998394D01*
X216467087Y-99998394D01*
X216799510Y-99848803D01*
X216965722Y-99699212D01*
X217131934Y-99400031D01*
X217131934Y-98801668D01*
X216965722Y-98502486D01*
X216799510Y-98352896D01*
X216467087Y-98203305D01*
D13*
X184620000Y-97130000D02*
X184620000Y-113370000D01*
X184620000Y-113370000D02*
X177300000Y-113370000D01*
X177300000Y-113370000D02*
X177300000Y-97130000D01*
X177300000Y-97130000D02*
X184620000Y-97130000D01*
X181620000Y-97130000D02*
X184620000Y-100130000D01*
X178620000Y-97130000D02*
X184620000Y-103130000D01*
X177300000Y-98810000D02*
X184620000Y-106130000D01*
X177300000Y-101810000D02*
X184620000Y-109130000D01*
X177300000Y-104810000D02*
X184620000Y-112130000D01*
X177300000Y-107810000D02*
X182860000Y-113370000D01*
X177300000Y-110810000D02*
X179860000Y-113370000D01*
M02*
