G04 #@! TF.GenerationSoftware,KiCad,Pcbnew,(5.1.5-0-10_14)*
G04 #@! TF.CreationDate,2020-04-27T10:05:46+02:00*
G04 #@! TF.ProjectId,ESP8266-PowerMonitor,45535038-3236-4362-9d50-6f7765724d6f,rev?*
G04 #@! TF.SameCoordinates,Original*
G04 #@! TF.FileFunction,Soldermask,Top*
G04 #@! TF.FilePolarity,Negative*
%FSLAX46Y46*%
G04 Gerber Fmt 4.6, Leading zero omitted, Abs format (unit mm)*
G04 Created by KiCad (PCBNEW (5.1.5-0-10_14)) date 2020-04-27 10:05:46*
%MOMM*%
%LPD*%
G04 APERTURE LIST*
%ADD10R,1.400000X2.900000*%
%ADD11R,2.200000X1.400000*%
%ADD12O,2.100000X2.100000*%
%ADD13R,2.100000X2.100000*%
%ADD14C,1.000000*%
%ADD15R,3.400000X3.400000*%
%ADD16C,3.400000*%
%ADD17C,2.700000*%
%ADD18R,2.700000X2.400000*%
%ADD19R,1.700000X1.950000*%
%ADD20R,2.400000X4.200000*%
%ADD21R,2.400000X1.900000*%
G04 APERTURE END LIST*
D10*
X175700000Y-95800000D03*
X173700000Y-95800000D03*
X171700000Y-95800000D03*
X169700000Y-95800000D03*
X167700000Y-95800000D03*
X165700000Y-95800000D03*
X163700000Y-95800000D03*
X161700000Y-95800000D03*
D11*
X160200000Y-98400000D03*
X160200000Y-100400000D03*
X160200000Y-102400000D03*
X160200000Y-104400000D03*
X160200000Y-106400000D03*
X160200000Y-108400000D03*
D10*
X161700000Y-111000000D03*
X163700000Y-111000000D03*
X165700000Y-111000000D03*
X167700000Y-111000000D03*
X169700000Y-111000000D03*
X171700000Y-111000000D03*
X173700000Y-111000000D03*
X175700000Y-111000000D03*
D12*
X157300000Y-111120000D03*
X157300000Y-108580000D03*
X157300000Y-106040000D03*
D13*
X157300000Y-103500000D03*
D14*
G36*
X147818130Y-106801505D02*
G01*
X147848466Y-106806005D01*
X147878214Y-106813456D01*
X147907089Y-106823788D01*
X147934811Y-106836900D01*
X147961116Y-106852666D01*
X147985748Y-106870934D01*
X148008471Y-106891529D01*
X148029066Y-106914252D01*
X148047334Y-106938884D01*
X148063100Y-106965189D01*
X148076212Y-106992911D01*
X148086544Y-107021786D01*
X148093995Y-107051534D01*
X148098495Y-107081870D01*
X148100000Y-107112500D01*
X148100000Y-109487500D01*
X148098495Y-109518130D01*
X148093995Y-109548466D01*
X148086544Y-109578214D01*
X148076212Y-109607089D01*
X148063100Y-109634811D01*
X148047334Y-109661116D01*
X148029066Y-109685748D01*
X148008471Y-109708471D01*
X147985748Y-109729066D01*
X147961116Y-109747334D01*
X147934811Y-109763100D01*
X147907089Y-109776212D01*
X147878214Y-109786544D01*
X147848466Y-109793995D01*
X147818130Y-109798495D01*
X147787500Y-109800000D01*
X146412500Y-109800000D01*
X146381870Y-109798495D01*
X146351534Y-109793995D01*
X146321786Y-109786544D01*
X146292911Y-109776212D01*
X146265189Y-109763100D01*
X146238884Y-109747334D01*
X146214252Y-109729066D01*
X146191529Y-109708471D01*
X146170934Y-109685748D01*
X146152666Y-109661116D01*
X146136900Y-109634811D01*
X146123788Y-109607089D01*
X146113456Y-109578214D01*
X146106005Y-109548466D01*
X146101505Y-109518130D01*
X146100000Y-109487500D01*
X146100000Y-107112500D01*
X146101505Y-107081870D01*
X146106005Y-107051534D01*
X146113456Y-107021786D01*
X146123788Y-106992911D01*
X146136900Y-106965189D01*
X146152666Y-106938884D01*
X146170934Y-106914252D01*
X146191529Y-106891529D01*
X146214252Y-106870934D01*
X146238884Y-106852666D01*
X146265189Y-106836900D01*
X146292911Y-106823788D01*
X146321786Y-106813456D01*
X146351534Y-106806005D01*
X146381870Y-106801505D01*
X146412500Y-106800000D01*
X147787500Y-106800000D01*
X147818130Y-106801505D01*
G37*
G36*
X147818130Y-110401505D02*
G01*
X147848466Y-110406005D01*
X147878214Y-110413456D01*
X147907089Y-110423788D01*
X147934811Y-110436900D01*
X147961116Y-110452666D01*
X147985748Y-110470934D01*
X148008471Y-110491529D01*
X148029066Y-110514252D01*
X148047334Y-110538884D01*
X148063100Y-110565189D01*
X148076212Y-110592911D01*
X148086544Y-110621786D01*
X148093995Y-110651534D01*
X148098495Y-110681870D01*
X148100000Y-110712500D01*
X148100000Y-113087500D01*
X148098495Y-113118130D01*
X148093995Y-113148466D01*
X148086544Y-113178214D01*
X148076212Y-113207089D01*
X148063100Y-113234811D01*
X148047334Y-113261116D01*
X148029066Y-113285748D01*
X148008471Y-113308471D01*
X147985748Y-113329066D01*
X147961116Y-113347334D01*
X147934811Y-113363100D01*
X147907089Y-113376212D01*
X147878214Y-113386544D01*
X147848466Y-113393995D01*
X147818130Y-113398495D01*
X147787500Y-113400000D01*
X146412500Y-113400000D01*
X146381870Y-113398495D01*
X146351534Y-113393995D01*
X146321786Y-113386544D01*
X146292911Y-113376212D01*
X146265189Y-113363100D01*
X146238884Y-113347334D01*
X146214252Y-113329066D01*
X146191529Y-113308471D01*
X146170934Y-113285748D01*
X146152666Y-113261116D01*
X146136900Y-113234811D01*
X146123788Y-113207089D01*
X146113456Y-113178214D01*
X146106005Y-113148466D01*
X146101505Y-113118130D01*
X146100000Y-113087500D01*
X146100000Y-110712500D01*
X146101505Y-110681870D01*
X146106005Y-110651534D01*
X146113456Y-110621786D01*
X146123788Y-110592911D01*
X146136900Y-110565189D01*
X146152666Y-110538884D01*
X146170934Y-110514252D01*
X146191529Y-110491529D01*
X146214252Y-110470934D01*
X146238884Y-110452666D01*
X146265189Y-110436900D01*
X146292911Y-110423788D01*
X146321786Y-110413456D01*
X146351534Y-110406005D01*
X146381870Y-110401505D01*
X146412500Y-110400000D01*
X147787500Y-110400000D01*
X147818130Y-110401505D01*
G37*
G36*
X151823707Y-99726542D02*
G01*
X151854787Y-99731152D01*
X151885266Y-99738787D01*
X151914850Y-99749372D01*
X151943254Y-99762806D01*
X151970204Y-99778959D01*
X151995442Y-99797677D01*
X152018723Y-99818777D01*
X152039823Y-99842058D01*
X152058541Y-99867296D01*
X152074694Y-99894246D01*
X152088128Y-99922650D01*
X152098713Y-99952234D01*
X152106348Y-99982713D01*
X152110958Y-100013793D01*
X152112500Y-100045176D01*
X152112500Y-101554824D01*
X152110958Y-101586207D01*
X152106348Y-101617287D01*
X152098713Y-101647766D01*
X152088128Y-101677350D01*
X152074694Y-101705754D01*
X152058541Y-101732704D01*
X152039823Y-101757942D01*
X152018723Y-101781223D01*
X151995442Y-101802323D01*
X151970204Y-101821041D01*
X151943254Y-101837194D01*
X151914850Y-101850628D01*
X151885266Y-101861213D01*
X151854787Y-101868848D01*
X151823707Y-101873458D01*
X151792324Y-101875000D01*
X150607676Y-101875000D01*
X150576293Y-101873458D01*
X150545213Y-101868848D01*
X150514734Y-101861213D01*
X150485150Y-101850628D01*
X150456746Y-101837194D01*
X150429796Y-101821041D01*
X150404558Y-101802323D01*
X150381277Y-101781223D01*
X150360177Y-101757942D01*
X150341459Y-101732704D01*
X150325306Y-101705754D01*
X150311872Y-101677350D01*
X150301287Y-101647766D01*
X150293652Y-101617287D01*
X150289042Y-101586207D01*
X150287500Y-101554824D01*
X150287500Y-100045176D01*
X150289042Y-100013793D01*
X150293652Y-99982713D01*
X150301287Y-99952234D01*
X150311872Y-99922650D01*
X150325306Y-99894246D01*
X150341459Y-99867296D01*
X150360177Y-99842058D01*
X150381277Y-99818777D01*
X150404558Y-99797677D01*
X150429796Y-99778959D01*
X150456746Y-99762806D01*
X150485150Y-99749372D01*
X150514734Y-99738787D01*
X150545213Y-99731152D01*
X150576293Y-99726542D01*
X150607676Y-99725000D01*
X151792324Y-99725000D01*
X151823707Y-99726542D01*
G37*
G36*
X148848707Y-99726542D02*
G01*
X148879787Y-99731152D01*
X148910266Y-99738787D01*
X148939850Y-99749372D01*
X148968254Y-99762806D01*
X148995204Y-99778959D01*
X149020442Y-99797677D01*
X149043723Y-99818777D01*
X149064823Y-99842058D01*
X149083541Y-99867296D01*
X149099694Y-99894246D01*
X149113128Y-99922650D01*
X149123713Y-99952234D01*
X149131348Y-99982713D01*
X149135958Y-100013793D01*
X149137500Y-100045176D01*
X149137500Y-101554824D01*
X149135958Y-101586207D01*
X149131348Y-101617287D01*
X149123713Y-101647766D01*
X149113128Y-101677350D01*
X149099694Y-101705754D01*
X149083541Y-101732704D01*
X149064823Y-101757942D01*
X149043723Y-101781223D01*
X149020442Y-101802323D01*
X148995204Y-101821041D01*
X148968254Y-101837194D01*
X148939850Y-101850628D01*
X148910266Y-101861213D01*
X148879787Y-101868848D01*
X148848707Y-101873458D01*
X148817324Y-101875000D01*
X147632676Y-101875000D01*
X147601293Y-101873458D01*
X147570213Y-101868848D01*
X147539734Y-101861213D01*
X147510150Y-101850628D01*
X147481746Y-101837194D01*
X147454796Y-101821041D01*
X147429558Y-101802323D01*
X147406277Y-101781223D01*
X147385177Y-101757942D01*
X147366459Y-101732704D01*
X147350306Y-101705754D01*
X147336872Y-101677350D01*
X147326287Y-101647766D01*
X147318652Y-101617287D01*
X147314042Y-101586207D01*
X147312500Y-101554824D01*
X147312500Y-100045176D01*
X147314042Y-100013793D01*
X147318652Y-99982713D01*
X147326287Y-99952234D01*
X147336872Y-99922650D01*
X147350306Y-99894246D01*
X147366459Y-99867296D01*
X147385177Y-99842058D01*
X147406277Y-99818777D01*
X147429558Y-99797677D01*
X147454796Y-99778959D01*
X147481746Y-99762806D01*
X147510150Y-99749372D01*
X147539734Y-99738787D01*
X147570213Y-99731152D01*
X147601293Y-99726542D01*
X147632676Y-99725000D01*
X148817324Y-99725000D01*
X148848707Y-99726542D01*
G37*
G36*
X118786207Y-97489042D02*
G01*
X118817287Y-97493652D01*
X118847766Y-97501287D01*
X118877350Y-97511872D01*
X118905754Y-97525306D01*
X118932704Y-97541459D01*
X118957942Y-97560177D01*
X118981223Y-97581277D01*
X119002323Y-97604558D01*
X119021041Y-97629796D01*
X119037194Y-97656746D01*
X119050628Y-97685150D01*
X119061213Y-97714734D01*
X119068848Y-97745213D01*
X119073458Y-97776293D01*
X119075000Y-97807676D01*
X119075000Y-98992324D01*
X119073458Y-99023707D01*
X119068848Y-99054787D01*
X119061213Y-99085266D01*
X119050628Y-99114850D01*
X119037194Y-99143254D01*
X119021041Y-99170204D01*
X119002323Y-99195442D01*
X118981223Y-99218723D01*
X118957942Y-99239823D01*
X118932704Y-99258541D01*
X118905754Y-99274694D01*
X118877350Y-99288128D01*
X118847766Y-99298713D01*
X118817287Y-99306348D01*
X118786207Y-99310958D01*
X118754824Y-99312500D01*
X117245176Y-99312500D01*
X117213793Y-99310958D01*
X117182713Y-99306348D01*
X117152234Y-99298713D01*
X117122650Y-99288128D01*
X117094246Y-99274694D01*
X117067296Y-99258541D01*
X117042058Y-99239823D01*
X117018777Y-99218723D01*
X116997677Y-99195442D01*
X116978959Y-99170204D01*
X116962806Y-99143254D01*
X116949372Y-99114850D01*
X116938787Y-99085266D01*
X116931152Y-99054787D01*
X116926542Y-99023707D01*
X116925000Y-98992324D01*
X116925000Y-97807676D01*
X116926542Y-97776293D01*
X116931152Y-97745213D01*
X116938787Y-97714734D01*
X116949372Y-97685150D01*
X116962806Y-97656746D01*
X116978959Y-97629796D01*
X116997677Y-97604558D01*
X117018777Y-97581277D01*
X117042058Y-97560177D01*
X117067296Y-97541459D01*
X117094246Y-97525306D01*
X117122650Y-97511872D01*
X117152234Y-97501287D01*
X117182713Y-97493652D01*
X117213793Y-97489042D01*
X117245176Y-97487500D01*
X118754824Y-97487500D01*
X118786207Y-97489042D01*
G37*
G36*
X118786207Y-100464042D02*
G01*
X118817287Y-100468652D01*
X118847766Y-100476287D01*
X118877350Y-100486872D01*
X118905754Y-100500306D01*
X118932704Y-100516459D01*
X118957942Y-100535177D01*
X118981223Y-100556277D01*
X119002323Y-100579558D01*
X119021041Y-100604796D01*
X119037194Y-100631746D01*
X119050628Y-100660150D01*
X119061213Y-100689734D01*
X119068848Y-100720213D01*
X119073458Y-100751293D01*
X119075000Y-100782676D01*
X119075000Y-101967324D01*
X119073458Y-101998707D01*
X119068848Y-102029787D01*
X119061213Y-102060266D01*
X119050628Y-102089850D01*
X119037194Y-102118254D01*
X119021041Y-102145204D01*
X119002323Y-102170442D01*
X118981223Y-102193723D01*
X118957942Y-102214823D01*
X118932704Y-102233541D01*
X118905754Y-102249694D01*
X118877350Y-102263128D01*
X118847766Y-102273713D01*
X118817287Y-102281348D01*
X118786207Y-102285958D01*
X118754824Y-102287500D01*
X117245176Y-102287500D01*
X117213793Y-102285958D01*
X117182713Y-102281348D01*
X117152234Y-102273713D01*
X117122650Y-102263128D01*
X117094246Y-102249694D01*
X117067296Y-102233541D01*
X117042058Y-102214823D01*
X117018777Y-102193723D01*
X116997677Y-102170442D01*
X116978959Y-102145204D01*
X116962806Y-102118254D01*
X116949372Y-102089850D01*
X116938787Y-102060266D01*
X116931152Y-102029787D01*
X116926542Y-101998707D01*
X116925000Y-101967324D01*
X116925000Y-100782676D01*
X116926542Y-100751293D01*
X116931152Y-100720213D01*
X116938787Y-100689734D01*
X116949372Y-100660150D01*
X116962806Y-100631746D01*
X116978959Y-100604796D01*
X116997677Y-100579558D01*
X117018777Y-100556277D01*
X117042058Y-100535177D01*
X117067296Y-100516459D01*
X117094246Y-100500306D01*
X117122650Y-100486872D01*
X117152234Y-100476287D01*
X117182713Y-100468652D01*
X117213793Y-100464042D01*
X117245176Y-100462500D01*
X118754824Y-100462500D01*
X118786207Y-100464042D01*
G37*
D13*
X153200000Y-116200000D03*
D12*
X155740000Y-116200000D03*
D13*
X165000000Y-116200000D03*
D12*
X167540000Y-116200000D03*
X170080000Y-116200000D03*
X172620000Y-116200000D03*
X175160000Y-116200000D03*
D15*
X123500000Y-113800000D03*
D16*
X128580000Y-113800000D03*
D14*
G36*
X145739018Y-103353843D02*
G01*
X145776537Y-103365224D01*
X145811114Y-103383706D01*
X145841421Y-103408579D01*
X145866294Y-103438886D01*
X145884776Y-103473463D01*
X145896157Y-103510982D01*
X145900000Y-103550000D01*
X145900000Y-105050000D01*
X145896157Y-105089018D01*
X145884776Y-105126537D01*
X145866294Y-105161114D01*
X145841421Y-105191421D01*
X145811114Y-105216294D01*
X145776537Y-105234776D01*
X145739018Y-105246157D01*
X145700000Y-105250000D01*
X144550000Y-105250000D01*
X144510982Y-105246157D01*
X144473463Y-105234776D01*
X144438886Y-105216294D01*
X144408579Y-105191421D01*
X144383706Y-105161114D01*
X144365224Y-105126537D01*
X144353843Y-105089018D01*
X144350000Y-105050000D01*
X144353843Y-105010982D01*
X144365224Y-104973463D01*
X144383590Y-104939060D01*
X144809630Y-104300000D01*
X144383590Y-103660940D01*
X144365144Y-103626343D01*
X144353802Y-103588813D01*
X144350000Y-103549791D01*
X144353884Y-103510777D01*
X144365304Y-103473270D01*
X144383822Y-103438712D01*
X144408727Y-103408431D01*
X144439060Y-103383590D01*
X144473657Y-103365144D01*
X144511187Y-103353802D01*
X144550000Y-103350000D01*
X145700000Y-103350000D01*
X145739018Y-103353843D01*
G37*
G36*
X144289018Y-103353843D02*
G01*
X144326537Y-103365224D01*
X144361114Y-103383706D01*
X144391421Y-103408579D01*
X144416410Y-103439060D01*
X144916410Y-104189060D01*
X144934856Y-104223657D01*
X144946198Y-104261187D01*
X144950000Y-104300209D01*
X144946116Y-104339223D01*
X144934696Y-104376730D01*
X144916410Y-104410940D01*
X144416410Y-105160940D01*
X144391569Y-105191273D01*
X144361288Y-105216178D01*
X144326730Y-105234696D01*
X144289223Y-105246116D01*
X144250000Y-105250000D01*
X143250000Y-105250000D01*
X143210982Y-105246157D01*
X143173463Y-105234776D01*
X143138886Y-105216294D01*
X143108579Y-105191421D01*
X143083706Y-105161114D01*
X143065224Y-105126537D01*
X143053843Y-105089018D01*
X143050000Y-105050000D01*
X143050000Y-103550000D01*
X143053843Y-103510982D01*
X143065224Y-103473463D01*
X143083706Y-103438886D01*
X143108579Y-103408579D01*
X143138886Y-103383706D01*
X143173463Y-103365224D01*
X143210982Y-103353843D01*
X143250000Y-103350000D01*
X144250000Y-103350000D01*
X144289018Y-103353843D01*
G37*
D17*
X139500000Y-93250000D03*
D18*
X110100000Y-98450000D03*
D17*
X110100000Y-103450000D03*
X139500000Y-108650000D03*
D14*
G36*
X160436207Y-91726542D02*
G01*
X160467287Y-91731152D01*
X160497766Y-91738787D01*
X160527350Y-91749372D01*
X160555754Y-91762806D01*
X160582704Y-91778959D01*
X160607942Y-91797677D01*
X160631223Y-91818777D01*
X160652323Y-91842058D01*
X160671041Y-91867296D01*
X160687194Y-91894246D01*
X160700628Y-91922650D01*
X160711213Y-91952234D01*
X160718848Y-91982713D01*
X160723458Y-92013793D01*
X160725000Y-92045176D01*
X160725000Y-93554824D01*
X160723458Y-93586207D01*
X160718848Y-93617287D01*
X160711213Y-93647766D01*
X160700628Y-93677350D01*
X160687194Y-93705754D01*
X160671041Y-93732704D01*
X160652323Y-93757942D01*
X160631223Y-93781223D01*
X160607942Y-93802323D01*
X160582704Y-93821041D01*
X160555754Y-93837194D01*
X160527350Y-93850628D01*
X160497766Y-93861213D01*
X160467287Y-93868848D01*
X160436207Y-93873458D01*
X160404824Y-93875000D01*
X159220176Y-93875000D01*
X159188793Y-93873458D01*
X159157713Y-93868848D01*
X159127234Y-93861213D01*
X159097650Y-93850628D01*
X159069246Y-93837194D01*
X159042296Y-93821041D01*
X159017058Y-93802323D01*
X158993777Y-93781223D01*
X158972677Y-93757942D01*
X158953959Y-93732704D01*
X158937806Y-93705754D01*
X158924372Y-93677350D01*
X158913787Y-93647766D01*
X158906152Y-93617287D01*
X158901542Y-93586207D01*
X158900000Y-93554824D01*
X158900000Y-92045176D01*
X158901542Y-92013793D01*
X158906152Y-91982713D01*
X158913787Y-91952234D01*
X158924372Y-91922650D01*
X158937806Y-91894246D01*
X158953959Y-91867296D01*
X158972677Y-91842058D01*
X158993777Y-91818777D01*
X159017058Y-91797677D01*
X159042296Y-91778959D01*
X159069246Y-91762806D01*
X159097650Y-91749372D01*
X159127234Y-91738787D01*
X159157713Y-91731152D01*
X159188793Y-91726542D01*
X159220176Y-91725000D01*
X160404824Y-91725000D01*
X160436207Y-91726542D01*
G37*
G36*
X163411207Y-91726542D02*
G01*
X163442287Y-91731152D01*
X163472766Y-91738787D01*
X163502350Y-91749372D01*
X163530754Y-91762806D01*
X163557704Y-91778959D01*
X163582942Y-91797677D01*
X163606223Y-91818777D01*
X163627323Y-91842058D01*
X163646041Y-91867296D01*
X163662194Y-91894246D01*
X163675628Y-91922650D01*
X163686213Y-91952234D01*
X163693848Y-91982713D01*
X163698458Y-92013793D01*
X163700000Y-92045176D01*
X163700000Y-93554824D01*
X163698458Y-93586207D01*
X163693848Y-93617287D01*
X163686213Y-93647766D01*
X163675628Y-93677350D01*
X163662194Y-93705754D01*
X163646041Y-93732704D01*
X163627323Y-93757942D01*
X163606223Y-93781223D01*
X163582942Y-93802323D01*
X163557704Y-93821041D01*
X163530754Y-93837194D01*
X163502350Y-93850628D01*
X163472766Y-93861213D01*
X163442287Y-93868848D01*
X163411207Y-93873458D01*
X163379824Y-93875000D01*
X162195176Y-93875000D01*
X162163793Y-93873458D01*
X162132713Y-93868848D01*
X162102234Y-93861213D01*
X162072650Y-93850628D01*
X162044246Y-93837194D01*
X162017296Y-93821041D01*
X161992058Y-93802323D01*
X161968777Y-93781223D01*
X161947677Y-93757942D01*
X161928959Y-93732704D01*
X161912806Y-93705754D01*
X161899372Y-93677350D01*
X161888787Y-93647766D01*
X161881152Y-93617287D01*
X161876542Y-93586207D01*
X161875000Y-93554824D01*
X161875000Y-92045176D01*
X161876542Y-92013793D01*
X161881152Y-91982713D01*
X161888787Y-91952234D01*
X161899372Y-91922650D01*
X161912806Y-91894246D01*
X161928959Y-91867296D01*
X161947677Y-91842058D01*
X161968777Y-91818777D01*
X161992058Y-91797677D01*
X162017296Y-91778959D01*
X162044246Y-91762806D01*
X162072650Y-91749372D01*
X162102234Y-91738787D01*
X162132713Y-91731152D01*
X162163793Y-91726542D01*
X162195176Y-91725000D01*
X163379824Y-91725000D01*
X163411207Y-91726542D01*
G37*
G36*
X168598707Y-91726542D02*
G01*
X168629787Y-91731152D01*
X168660266Y-91738787D01*
X168689850Y-91749372D01*
X168718254Y-91762806D01*
X168745204Y-91778959D01*
X168770442Y-91797677D01*
X168793723Y-91818777D01*
X168814823Y-91842058D01*
X168833541Y-91867296D01*
X168849694Y-91894246D01*
X168863128Y-91922650D01*
X168873713Y-91952234D01*
X168881348Y-91982713D01*
X168885958Y-92013793D01*
X168887500Y-92045176D01*
X168887500Y-93554824D01*
X168885958Y-93586207D01*
X168881348Y-93617287D01*
X168873713Y-93647766D01*
X168863128Y-93677350D01*
X168849694Y-93705754D01*
X168833541Y-93732704D01*
X168814823Y-93757942D01*
X168793723Y-93781223D01*
X168770442Y-93802323D01*
X168745204Y-93821041D01*
X168718254Y-93837194D01*
X168689850Y-93850628D01*
X168660266Y-93861213D01*
X168629787Y-93868848D01*
X168598707Y-93873458D01*
X168567324Y-93875000D01*
X167382676Y-93875000D01*
X167351293Y-93873458D01*
X167320213Y-93868848D01*
X167289734Y-93861213D01*
X167260150Y-93850628D01*
X167231746Y-93837194D01*
X167204796Y-93821041D01*
X167179558Y-93802323D01*
X167156277Y-93781223D01*
X167135177Y-93757942D01*
X167116459Y-93732704D01*
X167100306Y-93705754D01*
X167086872Y-93677350D01*
X167076287Y-93647766D01*
X167068652Y-93617287D01*
X167064042Y-93586207D01*
X167062500Y-93554824D01*
X167062500Y-92045176D01*
X167064042Y-92013793D01*
X167068652Y-91982713D01*
X167076287Y-91952234D01*
X167086872Y-91922650D01*
X167100306Y-91894246D01*
X167116459Y-91867296D01*
X167135177Y-91842058D01*
X167156277Y-91818777D01*
X167179558Y-91797677D01*
X167204796Y-91778959D01*
X167231746Y-91762806D01*
X167260150Y-91749372D01*
X167289734Y-91738787D01*
X167320213Y-91731152D01*
X167351293Y-91726542D01*
X167382676Y-91725000D01*
X168567324Y-91725000D01*
X168598707Y-91726542D01*
G37*
G36*
X165623707Y-91726542D02*
G01*
X165654787Y-91731152D01*
X165685266Y-91738787D01*
X165714850Y-91749372D01*
X165743254Y-91762806D01*
X165770204Y-91778959D01*
X165795442Y-91797677D01*
X165818723Y-91818777D01*
X165839823Y-91842058D01*
X165858541Y-91867296D01*
X165874694Y-91894246D01*
X165888128Y-91922650D01*
X165898713Y-91952234D01*
X165906348Y-91982713D01*
X165910958Y-92013793D01*
X165912500Y-92045176D01*
X165912500Y-93554824D01*
X165910958Y-93586207D01*
X165906348Y-93617287D01*
X165898713Y-93647766D01*
X165888128Y-93677350D01*
X165874694Y-93705754D01*
X165858541Y-93732704D01*
X165839823Y-93757942D01*
X165818723Y-93781223D01*
X165795442Y-93802323D01*
X165770204Y-93821041D01*
X165743254Y-93837194D01*
X165714850Y-93850628D01*
X165685266Y-93861213D01*
X165654787Y-93868848D01*
X165623707Y-93873458D01*
X165592324Y-93875000D01*
X164407676Y-93875000D01*
X164376293Y-93873458D01*
X164345213Y-93868848D01*
X164314734Y-93861213D01*
X164285150Y-93850628D01*
X164256746Y-93837194D01*
X164229796Y-93821041D01*
X164204558Y-93802323D01*
X164181277Y-93781223D01*
X164160177Y-93757942D01*
X164141459Y-93732704D01*
X164125306Y-93705754D01*
X164111872Y-93677350D01*
X164101287Y-93647766D01*
X164093652Y-93617287D01*
X164089042Y-93586207D01*
X164087500Y-93554824D01*
X164087500Y-92045176D01*
X164089042Y-92013793D01*
X164093652Y-91982713D01*
X164101287Y-91952234D01*
X164111872Y-91922650D01*
X164125306Y-91894246D01*
X164141459Y-91867296D01*
X164160177Y-91842058D01*
X164181277Y-91818777D01*
X164204558Y-91797677D01*
X164229796Y-91778959D01*
X164256746Y-91762806D01*
X164285150Y-91749372D01*
X164314734Y-91738787D01*
X164345213Y-91731152D01*
X164376293Y-91726542D01*
X164407676Y-91725000D01*
X165592324Y-91725000D01*
X165623707Y-91726542D01*
G37*
G36*
X162423707Y-113226542D02*
G01*
X162454787Y-113231152D01*
X162485266Y-113238787D01*
X162514850Y-113249372D01*
X162543254Y-113262806D01*
X162570204Y-113278959D01*
X162595442Y-113297677D01*
X162618723Y-113318777D01*
X162639823Y-113342058D01*
X162658541Y-113367296D01*
X162674694Y-113394246D01*
X162688128Y-113422650D01*
X162698713Y-113452234D01*
X162706348Y-113482713D01*
X162710958Y-113513793D01*
X162712500Y-113545176D01*
X162712500Y-115054824D01*
X162710958Y-115086207D01*
X162706348Y-115117287D01*
X162698713Y-115147766D01*
X162688128Y-115177350D01*
X162674694Y-115205754D01*
X162658541Y-115232704D01*
X162639823Y-115257942D01*
X162618723Y-115281223D01*
X162595442Y-115302323D01*
X162570204Y-115321041D01*
X162543254Y-115337194D01*
X162514850Y-115350628D01*
X162485266Y-115361213D01*
X162454787Y-115368848D01*
X162423707Y-115373458D01*
X162392324Y-115375000D01*
X161207676Y-115375000D01*
X161176293Y-115373458D01*
X161145213Y-115368848D01*
X161114734Y-115361213D01*
X161085150Y-115350628D01*
X161056746Y-115337194D01*
X161029796Y-115321041D01*
X161004558Y-115302323D01*
X160981277Y-115281223D01*
X160960177Y-115257942D01*
X160941459Y-115232704D01*
X160925306Y-115205754D01*
X160911872Y-115177350D01*
X160901287Y-115147766D01*
X160893652Y-115117287D01*
X160889042Y-115086207D01*
X160887500Y-115054824D01*
X160887500Y-113545176D01*
X160889042Y-113513793D01*
X160893652Y-113482713D01*
X160901287Y-113452234D01*
X160911872Y-113422650D01*
X160925306Y-113394246D01*
X160941459Y-113367296D01*
X160960177Y-113342058D01*
X160981277Y-113318777D01*
X161004558Y-113297677D01*
X161029796Y-113278959D01*
X161056746Y-113262806D01*
X161085150Y-113249372D01*
X161114734Y-113238787D01*
X161145213Y-113231152D01*
X161176293Y-113226542D01*
X161207676Y-113225000D01*
X162392324Y-113225000D01*
X162423707Y-113226542D01*
G37*
G36*
X159448707Y-113226542D02*
G01*
X159479787Y-113231152D01*
X159510266Y-113238787D01*
X159539850Y-113249372D01*
X159568254Y-113262806D01*
X159595204Y-113278959D01*
X159620442Y-113297677D01*
X159643723Y-113318777D01*
X159664823Y-113342058D01*
X159683541Y-113367296D01*
X159699694Y-113394246D01*
X159713128Y-113422650D01*
X159723713Y-113452234D01*
X159731348Y-113482713D01*
X159735958Y-113513793D01*
X159737500Y-113545176D01*
X159737500Y-115054824D01*
X159735958Y-115086207D01*
X159731348Y-115117287D01*
X159723713Y-115147766D01*
X159713128Y-115177350D01*
X159699694Y-115205754D01*
X159683541Y-115232704D01*
X159664823Y-115257942D01*
X159643723Y-115281223D01*
X159620442Y-115302323D01*
X159595204Y-115321041D01*
X159568254Y-115337194D01*
X159539850Y-115350628D01*
X159510266Y-115361213D01*
X159479787Y-115368848D01*
X159448707Y-115373458D01*
X159417324Y-115375000D01*
X158232676Y-115375000D01*
X158201293Y-115373458D01*
X158170213Y-115368848D01*
X158139734Y-115361213D01*
X158110150Y-115350628D01*
X158081746Y-115337194D01*
X158054796Y-115321041D01*
X158029558Y-115302323D01*
X158006277Y-115281223D01*
X157985177Y-115257942D01*
X157966459Y-115232704D01*
X157950306Y-115205754D01*
X157936872Y-115177350D01*
X157926287Y-115147766D01*
X157918652Y-115117287D01*
X157914042Y-115086207D01*
X157912500Y-115054824D01*
X157912500Y-113545176D01*
X157914042Y-113513793D01*
X157918652Y-113482713D01*
X157926287Y-113452234D01*
X157936872Y-113422650D01*
X157950306Y-113394246D01*
X157966459Y-113367296D01*
X157985177Y-113342058D01*
X158006277Y-113318777D01*
X158029558Y-113297677D01*
X158054796Y-113278959D01*
X158081746Y-113262806D01*
X158110150Y-113249372D01*
X158139734Y-113238787D01*
X158170213Y-113231152D01*
X158201293Y-113226542D01*
X158232676Y-113225000D01*
X159417324Y-113225000D01*
X159448707Y-113226542D01*
G37*
D19*
X153350000Y-92825000D03*
X157850000Y-92825000D03*
X157850000Y-100775000D03*
X153350000Y-100775000D03*
D20*
X150500000Y-95450000D03*
D21*
X144200000Y-95450000D03*
X144200000Y-97750000D03*
X144200000Y-93150000D03*
D13*
X149600000Y-116200000D03*
D12*
X147060000Y-116200000D03*
X144520000Y-116200000D03*
M02*
