G04 #@! TF.GenerationSoftware,KiCad,Pcbnew,(5.1.5-0-10_14)*
G04 #@! TF.CreationDate,2020-04-27T10:05:46+02:00*
G04 #@! TF.ProjectId,ESP8266-PowerMonitor,45535038-3236-4362-9d50-6f7765724d6f,rev?*
G04 #@! TF.SameCoordinates,Original*
G04 #@! TF.FileFunction,Other,Fab,Top*
%FSLAX46Y46*%
G04 Gerber Fmt 4.6, Leading zero omitted, Abs format (unit mm)*
G04 Created by KiCad (PCBNEW (5.1.5-0-10_14)) date 2020-04-27 10:05:46*
%MOMM*%
%LPD*%
G04 APERTURE LIST*
%ADD10C,0.120000*%
%ADD11C,0.100000*%
%ADD12C,0.150000*%
G04 APERTURE END LIST*
D10*
X184200000Y-95400000D02*
X184200000Y-111400000D01*
X184200000Y-111400000D02*
X160200000Y-111400000D01*
X160200000Y-111400000D02*
X160200000Y-95400000D01*
X160200000Y-95400000D02*
X175200000Y-95400000D01*
X175200000Y-95400000D02*
X175700000Y-95900000D01*
X175700000Y-95900000D02*
X176200000Y-95400000D01*
X176200000Y-95400000D02*
X184200000Y-95400000D01*
D11*
X156030000Y-102865000D02*
X156665000Y-102230000D01*
X156030000Y-112390000D02*
X156030000Y-102865000D01*
X158570000Y-112390000D02*
X156030000Y-112390000D01*
X158570000Y-102230000D02*
X158570000Y-112390000D01*
X156665000Y-102230000D02*
X158570000Y-102230000D01*
X149100000Y-110100000D02*
G75*
G03X149100000Y-110100000I-2000000J0D01*
G01*
X149250000Y-112250000D02*
X144950000Y-112250000D01*
X149250000Y-108950000D02*
X149250000Y-112250000D01*
X144950000Y-108950000D02*
X144950000Y-112250000D01*
X148250000Y-107950000D02*
X145950000Y-107950000D01*
X148250000Y-107950000D02*
X149250000Y-108950000D01*
X145950000Y-107950000D02*
X144950000Y-108950000D01*
X148100000Y-108525227D02*
X148100000Y-108925227D01*
X148300000Y-108725227D02*
X147900000Y-108725227D01*
X151312500Y-101600000D02*
X148112500Y-101600000D01*
X151312500Y-100000000D02*
X151312500Y-101600000D01*
X148112500Y-100000000D02*
X151312500Y-100000000D01*
X148112500Y-101600000D02*
X148112500Y-100000000D01*
X117200000Y-98287500D02*
X118800000Y-98287500D01*
X118800000Y-98287500D02*
X118800000Y-101487500D01*
X118800000Y-101487500D02*
X117200000Y-101487500D01*
X117200000Y-101487500D02*
X117200000Y-98287500D01*
X151930000Y-116835000D02*
X151930000Y-114930000D01*
X151930000Y-114930000D02*
X157010000Y-114930000D01*
X157010000Y-114930000D02*
X157010000Y-117470000D01*
X157010000Y-117470000D02*
X152565000Y-117470000D01*
X152565000Y-117470000D02*
X151930000Y-116835000D01*
X163730000Y-116835000D02*
X163730000Y-114930000D01*
X163730000Y-114930000D02*
X176430000Y-114930000D01*
X176430000Y-114930000D02*
X176430000Y-117470000D01*
X176430000Y-117470000D02*
X164365000Y-117470000D01*
X164365000Y-117470000D02*
X163730000Y-116835000D01*
X121090000Y-116350000D02*
X130990000Y-116350000D01*
X121040000Y-110050000D02*
X121040000Y-117550000D01*
X121040000Y-117550000D02*
X131040000Y-117550000D01*
X131040000Y-117550000D02*
X131040000Y-110050000D01*
X131040000Y-110050000D02*
X121040000Y-110050000D01*
X107800000Y-110950000D02*
X141800000Y-110950000D01*
X141800000Y-110950000D02*
X141800000Y-90950000D01*
X107800000Y-110950000D02*
X107800000Y-99440000D01*
X107800000Y-90950000D02*
X141800000Y-90950000D01*
X108810000Y-98450000D02*
X107810000Y-99450000D01*
X107810000Y-97450000D02*
X108810000Y-98450000D01*
X107800000Y-97450000D02*
X107800000Y-90950000D01*
X159700000Y-93600000D02*
X159700000Y-92000000D01*
X159700000Y-92000000D02*
X162900000Y-92000000D01*
X162900000Y-92000000D02*
X162900000Y-93600000D01*
X162900000Y-93600000D02*
X159700000Y-93600000D01*
X168087500Y-93600000D02*
X164887500Y-93600000D01*
X168087500Y-92000000D02*
X168087500Y-93600000D01*
X164887500Y-92000000D02*
X168087500Y-92000000D01*
X164887500Y-93600000D02*
X164887500Y-92000000D01*
X161912500Y-115100000D02*
X158712500Y-115100000D01*
X161912500Y-113500000D02*
X161912500Y-115100000D01*
X158712500Y-113500000D02*
X161912500Y-113500000D01*
X158712500Y-115100000D02*
X158712500Y-113500000D01*
X158600000Y-93800000D02*
X152600000Y-93800000D01*
X152600000Y-93800000D02*
X152600000Y-99800000D01*
X152600000Y-99800000D02*
X158600000Y-99800000D01*
X158600000Y-99800000D02*
X158600000Y-93800000D01*
X157350714Y-96800000D02*
G75*
G03X157350714Y-96800000I-1750714J0D01*
G01*
X145500000Y-93100000D02*
X146500000Y-92100000D01*
X145500000Y-93100000D02*
X145500000Y-98800000D01*
X146500000Y-92100000D02*
X149200000Y-92100000D01*
X145500000Y-98800000D02*
X149200000Y-98800000D01*
X149200000Y-92100000D02*
X149200000Y-98800000D01*
X150870000Y-115565000D02*
X150870000Y-117470000D01*
X150870000Y-117470000D02*
X143250000Y-117470000D01*
X143250000Y-117470000D02*
X143250000Y-114930000D01*
X143250000Y-114930000D02*
X150235000Y-114930000D01*
X150235000Y-114930000D02*
X150870000Y-115565000D01*
D12*
X172452380Y-104651904D02*
X173261904Y-104651904D01*
X173357142Y-104604285D01*
X173404761Y-104556666D01*
X173452380Y-104461428D01*
X173452380Y-104270952D01*
X173404761Y-104175714D01*
X173357142Y-104128095D01*
X173261904Y-104080476D01*
X172452380Y-104080476D01*
X172547619Y-103651904D02*
X172500000Y-103604285D01*
X172452380Y-103509047D01*
X172452380Y-103270952D01*
X172500000Y-103175714D01*
X172547619Y-103128095D01*
X172642857Y-103080476D01*
X172738095Y-103080476D01*
X172880952Y-103128095D01*
X173452380Y-103699523D01*
X173452380Y-103080476D01*
X156752380Y-107643333D02*
X157466666Y-107643333D01*
X157609523Y-107690952D01*
X157704761Y-107786190D01*
X157752380Y-107929047D01*
X157752380Y-108024285D01*
X156752380Y-106690952D02*
X156752380Y-107167142D01*
X157228571Y-107214761D01*
X157180952Y-107167142D01*
X157133333Y-107071904D01*
X157133333Y-106833809D01*
X157180952Y-106738571D01*
X157228571Y-106690952D01*
X157323809Y-106643333D01*
X157561904Y-106643333D01*
X157657142Y-106690952D01*
X157704761Y-106738571D01*
X157752380Y-106833809D01*
X157752380Y-107071904D01*
X157704761Y-107167142D01*
X157657142Y-107214761D01*
D10*
X147385714Y-110233333D02*
X147423809Y-110271428D01*
X147461904Y-110385714D01*
X147461904Y-110461904D01*
X147423809Y-110576190D01*
X147347619Y-110652380D01*
X147271428Y-110690476D01*
X147119047Y-110728571D01*
X147004761Y-110728571D01*
X146852380Y-110690476D01*
X146776190Y-110652380D01*
X146700000Y-110576190D01*
X146661904Y-110461904D01*
X146661904Y-110385714D01*
X146700000Y-110271428D01*
X146738095Y-110233333D01*
X146738095Y-109928571D02*
X146700000Y-109890476D01*
X146661904Y-109814285D01*
X146661904Y-109623809D01*
X146700000Y-109547619D01*
X146738095Y-109509523D01*
X146814285Y-109471428D01*
X146890476Y-109471428D01*
X147004761Y-109509523D01*
X147461904Y-109966666D01*
X147461904Y-109471428D01*
X117942857Y-100154166D02*
X117942857Y-100420833D01*
X118361904Y-100420833D02*
X117561904Y-100420833D01*
X117561904Y-100039880D01*
X118361904Y-99316071D02*
X118361904Y-99773214D01*
X118361904Y-99544642D02*
X117561904Y-99544642D01*
X117676190Y-99620833D01*
X117752380Y-99697023D01*
X117790476Y-99773214D01*
D12*
X153922380Y-116533333D02*
X154636666Y-116533333D01*
X154779523Y-116580952D01*
X154874761Y-116676190D01*
X154922380Y-116819047D01*
X154922380Y-116914285D01*
X154922380Y-115533333D02*
X154922380Y-116104761D01*
X154922380Y-115819047D02*
X153922380Y-115819047D01*
X154065238Y-115914285D01*
X154160476Y-116009523D01*
X154208095Y-116104761D01*
X169746666Y-115652380D02*
X169746666Y-116366666D01*
X169699047Y-116509523D01*
X169603809Y-116604761D01*
X169460952Y-116652380D01*
X169365714Y-116652380D01*
X170175238Y-115747619D02*
X170222857Y-115700000D01*
X170318095Y-115652380D01*
X170556190Y-115652380D01*
X170651428Y-115700000D01*
X170699047Y-115747619D01*
X170746666Y-115842857D01*
X170746666Y-115938095D01*
X170699047Y-116080952D01*
X170127619Y-116652380D01*
X170746666Y-116652380D01*
X126587619Y-113466666D02*
X125873333Y-113466666D01*
X125730476Y-113419047D01*
X125635238Y-113323809D01*
X125587619Y-113180952D01*
X125587619Y-113085714D01*
X126587619Y-113847619D02*
X126587619Y-114466666D01*
X126206666Y-114133333D01*
X126206666Y-114276190D01*
X126159047Y-114371428D01*
X126111428Y-114419047D01*
X126016190Y-114466666D01*
X125778095Y-114466666D01*
X125682857Y-114419047D01*
X125635238Y-114371428D01*
X125587619Y-114276190D01*
X125587619Y-113990476D01*
X125635238Y-113895238D01*
X125682857Y-113847619D01*
X123565714Y-100072380D02*
X123565714Y-99072380D01*
X123946666Y-99072380D01*
X124041904Y-99120000D01*
X124089523Y-99167619D01*
X124137142Y-99262857D01*
X124137142Y-99405714D01*
X124089523Y-99500952D01*
X124041904Y-99548571D01*
X123946666Y-99596190D01*
X123565714Y-99596190D01*
X124518095Y-100024761D02*
X124660952Y-100072380D01*
X124899047Y-100072380D01*
X124994285Y-100024761D01*
X125041904Y-99977142D01*
X125089523Y-99881904D01*
X125089523Y-99786666D01*
X125041904Y-99691428D01*
X124994285Y-99643809D01*
X124899047Y-99596190D01*
X124708571Y-99548571D01*
X124613333Y-99500952D01*
X124565714Y-99453333D01*
X124518095Y-99358095D01*
X124518095Y-99262857D01*
X124565714Y-99167619D01*
X124613333Y-99120000D01*
X124708571Y-99072380D01*
X124946666Y-99072380D01*
X125089523Y-99120000D01*
X126041904Y-100072380D02*
X125470476Y-100072380D01*
X125756190Y-100072380D02*
X125756190Y-99072380D01*
X125660952Y-99215238D01*
X125565714Y-99310476D01*
X125470476Y-99358095D01*
D10*
X161079166Y-93261904D02*
X160812500Y-92880952D01*
X160622023Y-93261904D02*
X160622023Y-92461904D01*
X160926785Y-92461904D01*
X161002976Y-92500000D01*
X161041071Y-92538095D01*
X161079166Y-92614285D01*
X161079166Y-92728571D01*
X161041071Y-92804761D01*
X161002976Y-92842857D01*
X160926785Y-92880952D01*
X160622023Y-92880952D01*
X161841071Y-93261904D02*
X161383928Y-93261904D01*
X161612500Y-93261904D02*
X161612500Y-92461904D01*
X161536309Y-92576190D01*
X161460119Y-92652380D01*
X161383928Y-92690476D01*
X166354166Y-93161904D02*
X166087500Y-92780952D01*
X165897023Y-93161904D02*
X165897023Y-92361904D01*
X166201785Y-92361904D01*
X166277976Y-92400000D01*
X166316071Y-92438095D01*
X166354166Y-92514285D01*
X166354166Y-92628571D01*
X166316071Y-92704761D01*
X166277976Y-92742857D01*
X166201785Y-92780952D01*
X165897023Y-92780952D01*
X166658928Y-92438095D02*
X166697023Y-92400000D01*
X166773214Y-92361904D01*
X166963690Y-92361904D01*
X167039880Y-92400000D01*
X167077976Y-92438095D01*
X167116071Y-92514285D01*
X167116071Y-92590476D01*
X167077976Y-92704761D01*
X166620833Y-93161904D01*
X167116071Y-93161904D01*
X163761904Y-104358333D02*
X163380952Y-104625000D01*
X163761904Y-104815476D02*
X162961904Y-104815476D01*
X162961904Y-104510714D01*
X163000000Y-104434523D01*
X163038095Y-104396428D01*
X163114285Y-104358333D01*
X163228571Y-104358333D01*
X163304761Y-104396428D01*
X163342857Y-104434523D01*
X163380952Y-104510714D01*
X163380952Y-104815476D01*
X162961904Y-104091666D02*
X162961904Y-103596428D01*
X163266666Y-103863095D01*
X163266666Y-103748809D01*
X163304761Y-103672619D01*
X163342857Y-103634523D01*
X163419047Y-103596428D01*
X163609523Y-103596428D01*
X163685714Y-103634523D01*
X163723809Y-103672619D01*
X163761904Y-103748809D01*
X163761904Y-103977380D01*
X163723809Y-104053571D01*
X163685714Y-104091666D01*
X160179166Y-114661904D02*
X159912500Y-114280952D01*
X159722023Y-114661904D02*
X159722023Y-113861904D01*
X160026785Y-113861904D01*
X160102976Y-113900000D01*
X160141071Y-113938095D01*
X160179166Y-114014285D01*
X160179166Y-114128571D01*
X160141071Y-114204761D01*
X160102976Y-114242857D01*
X160026785Y-114280952D01*
X159722023Y-114280952D01*
X160864880Y-113861904D02*
X160712500Y-113861904D01*
X160636309Y-113900000D01*
X160598214Y-113938095D01*
X160522023Y-114052380D01*
X160483928Y-114204761D01*
X160483928Y-114509523D01*
X160522023Y-114585714D01*
X160560119Y-114623809D01*
X160636309Y-114661904D01*
X160788690Y-114661904D01*
X160864880Y-114623809D01*
X160902976Y-114585714D01*
X160941071Y-114509523D01*
X160941071Y-114319047D01*
X160902976Y-114242857D01*
X160864880Y-114204761D01*
X160788690Y-114166666D01*
X160636309Y-114166666D01*
X160560119Y-114204761D01*
X160522023Y-114242857D01*
X160483928Y-114319047D01*
D12*
X160054761Y-98133333D02*
X160102380Y-97990476D01*
X160102380Y-97752380D01*
X160054761Y-97657142D01*
X160007142Y-97609523D01*
X159911904Y-97561904D01*
X159816666Y-97561904D01*
X159721428Y-97609523D01*
X159673809Y-97657142D01*
X159626190Y-97752380D01*
X159578571Y-97942857D01*
X159530952Y-98038095D01*
X159483333Y-98085714D01*
X159388095Y-98133333D01*
X159292857Y-98133333D01*
X159197619Y-98085714D01*
X159150000Y-98038095D01*
X159102380Y-97942857D01*
X159102380Y-97704761D01*
X159150000Y-97561904D01*
X159102380Y-97228571D02*
X160102380Y-96990476D01*
X159388095Y-96800000D01*
X160102380Y-96609523D01*
X159102380Y-96371428D01*
X160102380Y-95466666D02*
X160102380Y-96038095D01*
X160102380Y-95752380D02*
X159102380Y-95752380D01*
X159245238Y-95847619D01*
X159340476Y-95942857D01*
X159388095Y-96038095D01*
D10*
X146911904Y-96059523D02*
X147559523Y-96059523D01*
X147635714Y-96021428D01*
X147673809Y-95983333D01*
X147711904Y-95907142D01*
X147711904Y-95754761D01*
X147673809Y-95678571D01*
X147635714Y-95640476D01*
X147559523Y-95602380D01*
X146911904Y-95602380D01*
X147711904Y-94802380D02*
X147711904Y-95259523D01*
X147711904Y-95030952D02*
X146911904Y-95030952D01*
X147026190Y-95107142D01*
X147102380Y-95183333D01*
X147140476Y-95259523D01*
D12*
X146726666Y-115652380D02*
X146726666Y-116366666D01*
X146679047Y-116509523D01*
X146583809Y-116604761D01*
X146440952Y-116652380D01*
X146345714Y-116652380D01*
X147631428Y-115985714D02*
X147631428Y-116652380D01*
X147393333Y-115604761D02*
X147155238Y-116319047D01*
X147774285Y-116319047D01*
M02*
