G04 #@! TF.GenerationSoftware,KiCad,Pcbnew,(5.1.5-0-10_14)*
G04 #@! TF.CreationDate,2020-04-27T10:05:46+02:00*
G04 #@! TF.ProjectId,ESP8266-PowerMonitor,45535038-3236-4362-9d50-6f7765724d6f,rev?*
G04 #@! TF.SameCoordinates,Original*
G04 #@! TF.FileFunction,Paste,Bot*
G04 #@! TF.FilePolarity,Positive*
%FSLAX46Y46*%
G04 Gerber Fmt 4.6, Leading zero omitted, Abs format (unit mm)*
G04 Created by KiCad (PCBNEW (5.1.5-0-10_14)) date 2020-04-27 10:05:46*
%MOMM*%
%LPD*%
G04 APERTURE LIST*
%ADD10C,1.000000*%
G04 APERTURE END LIST*
D10*
G36*
X169149504Y-102288704D02*
G01*
X169173773Y-102292304D01*
X169197571Y-102298265D01*
X169220671Y-102306530D01*
X169242849Y-102317020D01*
X169263893Y-102329633D01*
X169283598Y-102344247D01*
X169301777Y-102360723D01*
X169318253Y-102378902D01*
X169332867Y-102398607D01*
X169345480Y-102419651D01*
X169355970Y-102441829D01*
X169364235Y-102464929D01*
X169370196Y-102488727D01*
X169373796Y-102512996D01*
X169375000Y-102537500D01*
X169375000Y-103462500D01*
X169373796Y-103487004D01*
X169370196Y-103511273D01*
X169364235Y-103535071D01*
X169355970Y-103558171D01*
X169345480Y-103580349D01*
X169332867Y-103601393D01*
X169318253Y-103621098D01*
X169301777Y-103639277D01*
X169283598Y-103655753D01*
X169263893Y-103670367D01*
X169242849Y-103682980D01*
X169220671Y-103693470D01*
X169197571Y-103701735D01*
X169173773Y-103707696D01*
X169149504Y-103711296D01*
X169125000Y-103712500D01*
X167875000Y-103712500D01*
X167850496Y-103711296D01*
X167826227Y-103707696D01*
X167802429Y-103701735D01*
X167779329Y-103693470D01*
X167757151Y-103682980D01*
X167736107Y-103670367D01*
X167716402Y-103655753D01*
X167698223Y-103639277D01*
X167681747Y-103621098D01*
X167667133Y-103601393D01*
X167654520Y-103580349D01*
X167644030Y-103558171D01*
X167635765Y-103535071D01*
X167629804Y-103511273D01*
X167626204Y-103487004D01*
X167625000Y-103462500D01*
X167625000Y-102537500D01*
X167626204Y-102512996D01*
X167629804Y-102488727D01*
X167635765Y-102464929D01*
X167644030Y-102441829D01*
X167654520Y-102419651D01*
X167667133Y-102398607D01*
X167681747Y-102378902D01*
X167698223Y-102360723D01*
X167716402Y-102344247D01*
X167736107Y-102329633D01*
X167757151Y-102317020D01*
X167779329Y-102306530D01*
X167802429Y-102298265D01*
X167826227Y-102292304D01*
X167850496Y-102288704D01*
X167875000Y-102287500D01*
X169125000Y-102287500D01*
X169149504Y-102288704D01*
G37*
G36*
X169149504Y-105263704D02*
G01*
X169173773Y-105267304D01*
X169197571Y-105273265D01*
X169220671Y-105281530D01*
X169242849Y-105292020D01*
X169263893Y-105304633D01*
X169283598Y-105319247D01*
X169301777Y-105335723D01*
X169318253Y-105353902D01*
X169332867Y-105373607D01*
X169345480Y-105394651D01*
X169355970Y-105416829D01*
X169364235Y-105439929D01*
X169370196Y-105463727D01*
X169373796Y-105487996D01*
X169375000Y-105512500D01*
X169375000Y-106437500D01*
X169373796Y-106462004D01*
X169370196Y-106486273D01*
X169364235Y-106510071D01*
X169355970Y-106533171D01*
X169345480Y-106555349D01*
X169332867Y-106576393D01*
X169318253Y-106596098D01*
X169301777Y-106614277D01*
X169283598Y-106630753D01*
X169263893Y-106645367D01*
X169242849Y-106657980D01*
X169220671Y-106668470D01*
X169197571Y-106676735D01*
X169173773Y-106682696D01*
X169149504Y-106686296D01*
X169125000Y-106687500D01*
X167875000Y-106687500D01*
X167850496Y-106686296D01*
X167826227Y-106682696D01*
X167802429Y-106676735D01*
X167779329Y-106668470D01*
X167757151Y-106657980D01*
X167736107Y-106645367D01*
X167716402Y-106630753D01*
X167698223Y-106614277D01*
X167681747Y-106596098D01*
X167667133Y-106576393D01*
X167654520Y-106555349D01*
X167644030Y-106533171D01*
X167635765Y-106510071D01*
X167629804Y-106486273D01*
X167626204Y-106462004D01*
X167625000Y-106437500D01*
X167625000Y-105512500D01*
X167626204Y-105487996D01*
X167629804Y-105463727D01*
X167635765Y-105439929D01*
X167644030Y-105416829D01*
X167654520Y-105394651D01*
X167667133Y-105373607D01*
X167681747Y-105353902D01*
X167698223Y-105335723D01*
X167716402Y-105319247D01*
X167736107Y-105304633D01*
X167757151Y-105292020D01*
X167779329Y-105281530D01*
X167802429Y-105273265D01*
X167826227Y-105267304D01*
X167850496Y-105263704D01*
X167875000Y-105262500D01*
X169125000Y-105262500D01*
X169149504Y-105263704D01*
G37*
G36*
X140049504Y-101676204D02*
G01*
X140073773Y-101679804D01*
X140097571Y-101685765D01*
X140120671Y-101694030D01*
X140142849Y-101704520D01*
X140163893Y-101717133D01*
X140183598Y-101731747D01*
X140201777Y-101748223D01*
X140218253Y-101766402D01*
X140232867Y-101786107D01*
X140245480Y-101807151D01*
X140255970Y-101829329D01*
X140264235Y-101852429D01*
X140270196Y-101876227D01*
X140273796Y-101900496D01*
X140275000Y-101925000D01*
X140275000Y-102850000D01*
X140273796Y-102874504D01*
X140270196Y-102898773D01*
X140264235Y-102922571D01*
X140255970Y-102945671D01*
X140245480Y-102967849D01*
X140232867Y-102988893D01*
X140218253Y-103008598D01*
X140201777Y-103026777D01*
X140183598Y-103043253D01*
X140163893Y-103057867D01*
X140142849Y-103070480D01*
X140120671Y-103080970D01*
X140097571Y-103089235D01*
X140073773Y-103095196D01*
X140049504Y-103098796D01*
X140025000Y-103100000D01*
X138775000Y-103100000D01*
X138750496Y-103098796D01*
X138726227Y-103095196D01*
X138702429Y-103089235D01*
X138679329Y-103080970D01*
X138657151Y-103070480D01*
X138636107Y-103057867D01*
X138616402Y-103043253D01*
X138598223Y-103026777D01*
X138581747Y-103008598D01*
X138567133Y-102988893D01*
X138554520Y-102967849D01*
X138544030Y-102945671D01*
X138535765Y-102922571D01*
X138529804Y-102898773D01*
X138526204Y-102874504D01*
X138525000Y-102850000D01*
X138525000Y-101925000D01*
X138526204Y-101900496D01*
X138529804Y-101876227D01*
X138535765Y-101852429D01*
X138544030Y-101829329D01*
X138554520Y-101807151D01*
X138567133Y-101786107D01*
X138581747Y-101766402D01*
X138598223Y-101748223D01*
X138616402Y-101731747D01*
X138636107Y-101717133D01*
X138657151Y-101704520D01*
X138679329Y-101694030D01*
X138702429Y-101685765D01*
X138726227Y-101679804D01*
X138750496Y-101676204D01*
X138775000Y-101675000D01*
X140025000Y-101675000D01*
X140049504Y-101676204D01*
G37*
G36*
X140049504Y-98701204D02*
G01*
X140073773Y-98704804D01*
X140097571Y-98710765D01*
X140120671Y-98719030D01*
X140142849Y-98729520D01*
X140163893Y-98742133D01*
X140183598Y-98756747D01*
X140201777Y-98773223D01*
X140218253Y-98791402D01*
X140232867Y-98811107D01*
X140245480Y-98832151D01*
X140255970Y-98854329D01*
X140264235Y-98877429D01*
X140270196Y-98901227D01*
X140273796Y-98925496D01*
X140275000Y-98950000D01*
X140275000Y-99875000D01*
X140273796Y-99899504D01*
X140270196Y-99923773D01*
X140264235Y-99947571D01*
X140255970Y-99970671D01*
X140245480Y-99992849D01*
X140232867Y-100013893D01*
X140218253Y-100033598D01*
X140201777Y-100051777D01*
X140183598Y-100068253D01*
X140163893Y-100082867D01*
X140142849Y-100095480D01*
X140120671Y-100105970D01*
X140097571Y-100114235D01*
X140073773Y-100120196D01*
X140049504Y-100123796D01*
X140025000Y-100125000D01*
X138775000Y-100125000D01*
X138750496Y-100123796D01*
X138726227Y-100120196D01*
X138702429Y-100114235D01*
X138679329Y-100105970D01*
X138657151Y-100095480D01*
X138636107Y-100082867D01*
X138616402Y-100068253D01*
X138598223Y-100051777D01*
X138581747Y-100033598D01*
X138567133Y-100013893D01*
X138554520Y-99992849D01*
X138544030Y-99970671D01*
X138535765Y-99947571D01*
X138529804Y-99923773D01*
X138526204Y-99899504D01*
X138525000Y-99875000D01*
X138525000Y-98950000D01*
X138526204Y-98925496D01*
X138529804Y-98901227D01*
X138535765Y-98877429D01*
X138544030Y-98854329D01*
X138554520Y-98832151D01*
X138567133Y-98811107D01*
X138581747Y-98791402D01*
X138598223Y-98773223D01*
X138616402Y-98756747D01*
X138636107Y-98742133D01*
X138657151Y-98729520D01*
X138679329Y-98719030D01*
X138702429Y-98710765D01*
X138726227Y-98704804D01*
X138750496Y-98701204D01*
X138775000Y-98700000D01*
X140025000Y-98700000D01*
X140049504Y-98701204D01*
G37*
G36*
X163649504Y-102313704D02*
G01*
X163673773Y-102317304D01*
X163697571Y-102323265D01*
X163720671Y-102331530D01*
X163742849Y-102342020D01*
X163763893Y-102354633D01*
X163783598Y-102369247D01*
X163801777Y-102385723D01*
X163818253Y-102403902D01*
X163832867Y-102423607D01*
X163845480Y-102444651D01*
X163855970Y-102466829D01*
X163864235Y-102489929D01*
X163870196Y-102513727D01*
X163873796Y-102537996D01*
X163875000Y-102562500D01*
X163875000Y-103487500D01*
X163873796Y-103512004D01*
X163870196Y-103536273D01*
X163864235Y-103560071D01*
X163855970Y-103583171D01*
X163845480Y-103605349D01*
X163832867Y-103626393D01*
X163818253Y-103646098D01*
X163801777Y-103664277D01*
X163783598Y-103680753D01*
X163763893Y-103695367D01*
X163742849Y-103707980D01*
X163720671Y-103718470D01*
X163697571Y-103726735D01*
X163673773Y-103732696D01*
X163649504Y-103736296D01*
X163625000Y-103737500D01*
X162375000Y-103737500D01*
X162350496Y-103736296D01*
X162326227Y-103732696D01*
X162302429Y-103726735D01*
X162279329Y-103718470D01*
X162257151Y-103707980D01*
X162236107Y-103695367D01*
X162216402Y-103680753D01*
X162198223Y-103664277D01*
X162181747Y-103646098D01*
X162167133Y-103626393D01*
X162154520Y-103605349D01*
X162144030Y-103583171D01*
X162135765Y-103560071D01*
X162129804Y-103536273D01*
X162126204Y-103512004D01*
X162125000Y-103487500D01*
X162125000Y-102562500D01*
X162126204Y-102537996D01*
X162129804Y-102513727D01*
X162135765Y-102489929D01*
X162144030Y-102466829D01*
X162154520Y-102444651D01*
X162167133Y-102423607D01*
X162181747Y-102403902D01*
X162198223Y-102385723D01*
X162216402Y-102369247D01*
X162236107Y-102354633D01*
X162257151Y-102342020D01*
X162279329Y-102331530D01*
X162302429Y-102323265D01*
X162326227Y-102317304D01*
X162350496Y-102313704D01*
X162375000Y-102312500D01*
X163625000Y-102312500D01*
X163649504Y-102313704D01*
G37*
G36*
X163649504Y-105288704D02*
G01*
X163673773Y-105292304D01*
X163697571Y-105298265D01*
X163720671Y-105306530D01*
X163742849Y-105317020D01*
X163763893Y-105329633D01*
X163783598Y-105344247D01*
X163801777Y-105360723D01*
X163818253Y-105378902D01*
X163832867Y-105398607D01*
X163845480Y-105419651D01*
X163855970Y-105441829D01*
X163864235Y-105464929D01*
X163870196Y-105488727D01*
X163873796Y-105512996D01*
X163875000Y-105537500D01*
X163875000Y-106462500D01*
X163873796Y-106487004D01*
X163870196Y-106511273D01*
X163864235Y-106535071D01*
X163855970Y-106558171D01*
X163845480Y-106580349D01*
X163832867Y-106601393D01*
X163818253Y-106621098D01*
X163801777Y-106639277D01*
X163783598Y-106655753D01*
X163763893Y-106670367D01*
X163742849Y-106682980D01*
X163720671Y-106693470D01*
X163697571Y-106701735D01*
X163673773Y-106707696D01*
X163649504Y-106711296D01*
X163625000Y-106712500D01*
X162375000Y-106712500D01*
X162350496Y-106711296D01*
X162326227Y-106707696D01*
X162302429Y-106701735D01*
X162279329Y-106693470D01*
X162257151Y-106682980D01*
X162236107Y-106670367D01*
X162216402Y-106655753D01*
X162198223Y-106639277D01*
X162181747Y-106621098D01*
X162167133Y-106601393D01*
X162154520Y-106580349D01*
X162144030Y-106558171D01*
X162135765Y-106535071D01*
X162129804Y-106511273D01*
X162126204Y-106487004D01*
X162125000Y-106462500D01*
X162125000Y-105537500D01*
X162126204Y-105512996D01*
X162129804Y-105488727D01*
X162135765Y-105464929D01*
X162144030Y-105441829D01*
X162154520Y-105419651D01*
X162167133Y-105398607D01*
X162181747Y-105378902D01*
X162198223Y-105360723D01*
X162216402Y-105344247D01*
X162236107Y-105329633D01*
X162257151Y-105317020D01*
X162279329Y-105306530D01*
X162302429Y-105298265D01*
X162326227Y-105292304D01*
X162350496Y-105288704D01*
X162375000Y-105287500D01*
X163625000Y-105287500D01*
X163649504Y-105288704D01*
G37*
G36*
X166349504Y-102288704D02*
G01*
X166373773Y-102292304D01*
X166397571Y-102298265D01*
X166420671Y-102306530D01*
X166442849Y-102317020D01*
X166463893Y-102329633D01*
X166483598Y-102344247D01*
X166501777Y-102360723D01*
X166518253Y-102378902D01*
X166532867Y-102398607D01*
X166545480Y-102419651D01*
X166555970Y-102441829D01*
X166564235Y-102464929D01*
X166570196Y-102488727D01*
X166573796Y-102512996D01*
X166575000Y-102537500D01*
X166575000Y-103462500D01*
X166573796Y-103487004D01*
X166570196Y-103511273D01*
X166564235Y-103535071D01*
X166555970Y-103558171D01*
X166545480Y-103580349D01*
X166532867Y-103601393D01*
X166518253Y-103621098D01*
X166501777Y-103639277D01*
X166483598Y-103655753D01*
X166463893Y-103670367D01*
X166442849Y-103682980D01*
X166420671Y-103693470D01*
X166397571Y-103701735D01*
X166373773Y-103707696D01*
X166349504Y-103711296D01*
X166325000Y-103712500D01*
X165075000Y-103712500D01*
X165050496Y-103711296D01*
X165026227Y-103707696D01*
X165002429Y-103701735D01*
X164979329Y-103693470D01*
X164957151Y-103682980D01*
X164936107Y-103670367D01*
X164916402Y-103655753D01*
X164898223Y-103639277D01*
X164881747Y-103621098D01*
X164867133Y-103601393D01*
X164854520Y-103580349D01*
X164844030Y-103558171D01*
X164835765Y-103535071D01*
X164829804Y-103511273D01*
X164826204Y-103487004D01*
X164825000Y-103462500D01*
X164825000Y-102537500D01*
X164826204Y-102512996D01*
X164829804Y-102488727D01*
X164835765Y-102464929D01*
X164844030Y-102441829D01*
X164854520Y-102419651D01*
X164867133Y-102398607D01*
X164881747Y-102378902D01*
X164898223Y-102360723D01*
X164916402Y-102344247D01*
X164936107Y-102329633D01*
X164957151Y-102317020D01*
X164979329Y-102306530D01*
X165002429Y-102298265D01*
X165026227Y-102292304D01*
X165050496Y-102288704D01*
X165075000Y-102287500D01*
X166325000Y-102287500D01*
X166349504Y-102288704D01*
G37*
G36*
X166349504Y-105263704D02*
G01*
X166373773Y-105267304D01*
X166397571Y-105273265D01*
X166420671Y-105281530D01*
X166442849Y-105292020D01*
X166463893Y-105304633D01*
X166483598Y-105319247D01*
X166501777Y-105335723D01*
X166518253Y-105353902D01*
X166532867Y-105373607D01*
X166545480Y-105394651D01*
X166555970Y-105416829D01*
X166564235Y-105439929D01*
X166570196Y-105463727D01*
X166573796Y-105487996D01*
X166575000Y-105512500D01*
X166575000Y-106437500D01*
X166573796Y-106462004D01*
X166570196Y-106486273D01*
X166564235Y-106510071D01*
X166555970Y-106533171D01*
X166545480Y-106555349D01*
X166532867Y-106576393D01*
X166518253Y-106596098D01*
X166501777Y-106614277D01*
X166483598Y-106630753D01*
X166463893Y-106645367D01*
X166442849Y-106657980D01*
X166420671Y-106668470D01*
X166397571Y-106676735D01*
X166373773Y-106682696D01*
X166349504Y-106686296D01*
X166325000Y-106687500D01*
X165075000Y-106687500D01*
X165050496Y-106686296D01*
X165026227Y-106682696D01*
X165002429Y-106676735D01*
X164979329Y-106668470D01*
X164957151Y-106657980D01*
X164936107Y-106645367D01*
X164916402Y-106630753D01*
X164898223Y-106614277D01*
X164881747Y-106596098D01*
X164867133Y-106576393D01*
X164854520Y-106555349D01*
X164844030Y-106533171D01*
X164835765Y-106510071D01*
X164829804Y-106486273D01*
X164826204Y-106462004D01*
X164825000Y-106437500D01*
X164825000Y-105512500D01*
X164826204Y-105487996D01*
X164829804Y-105463727D01*
X164835765Y-105439929D01*
X164844030Y-105416829D01*
X164854520Y-105394651D01*
X164867133Y-105373607D01*
X164881747Y-105353902D01*
X164898223Y-105335723D01*
X164916402Y-105319247D01*
X164936107Y-105304633D01*
X164957151Y-105292020D01*
X164979329Y-105281530D01*
X165002429Y-105273265D01*
X165026227Y-105267304D01*
X165050496Y-105263704D01*
X165075000Y-105262500D01*
X166325000Y-105262500D01*
X166349504Y-105263704D01*
G37*
M02*
