M48
; DRILL file {KiCad (5.1.5-0-10_14)} date Monday, 27 April 2020 at 10:05:47
; FORMAT={-:-/ absolute / metric / decimal}
; #@! TF.CreationDate,2020-04-27T10:05:47+02:00
; #@! TF.GenerationSoftware,Kicad,Pcbnew,(5.1.5-0-10_14)
FMAT,2
METRIC
T1C0.500
T2C1.000
T3C1.520
%
G90
G05
T1
X165.7Y113.5
T2
X110.1Y98.45
X110.1Y103.45
X139.5Y93.25
X139.5Y108.65
X153.2Y116.2
X155.74Y116.2
X157.3Y103.5
X157.3Y106.04
X157.3Y108.58
X157.3Y111.12
X165.0Y116.2
X167.54Y116.2
X170.08Y116.2
X172.62Y116.2
X175.16Y116.2
X144.52Y116.2
X147.06Y116.2
X149.6Y116.2
T3
X123.5Y113.8
X128.58Y113.8
T0
M30
