G04 #@! TF.GenerationSoftware,KiCad,Pcbnew,(5.1.5-0-10_14)*
G04 #@! TF.CreationDate,2020-06-28T15:17:39+02:00*
G04 #@! TF.ProjectId,ESP8266-PowerMonitor,45535038-3236-4362-9d50-6f7765724d6f,rev?*
G04 #@! TF.SameCoordinates,Original*
G04 #@! TF.FileFunction,Other,Comment*
%FSLAX46Y46*%
G04 Gerber Fmt 4.6, Leading zero omitted, Abs format (unit mm)*
G04 Created by KiCad (PCBNEW (5.1.5-0-10_14)) date 2020-06-28 15:17:39*
%MOMM*%
%LPD*%
G04 APERTURE LIST*
%ADD10C,0.150000*%
G04 APERTURE END LIST*
D10*
X120150000Y-113800000D02*
G75*
G03X120150000Y-113800000I-2500000J0D01*
G01*
X179666666Y-107951904D02*
X179666666Y-107475714D01*
X179952380Y-108047142D02*
X178952380Y-107713809D01*
X179952380Y-107380476D01*
X179285714Y-107047142D02*
X179952380Y-107047142D01*
X179380952Y-107047142D02*
X179333333Y-106999523D01*
X179285714Y-106904285D01*
X179285714Y-106761428D01*
X179333333Y-106666190D01*
X179428571Y-106618571D01*
X179952380Y-106618571D01*
X179285714Y-106285238D02*
X179285714Y-105904285D01*
X178952380Y-106142380D02*
X179809523Y-106142380D01*
X179904761Y-106094761D01*
X179952380Y-105999523D01*
X179952380Y-105904285D01*
X179904761Y-105190000D02*
X179952380Y-105285238D01*
X179952380Y-105475714D01*
X179904761Y-105570952D01*
X179809523Y-105618571D01*
X179428571Y-105618571D01*
X179333333Y-105570952D01*
X179285714Y-105475714D01*
X179285714Y-105285238D01*
X179333333Y-105190000D01*
X179428571Y-105142380D01*
X179523809Y-105142380D01*
X179619047Y-105618571D01*
X179285714Y-104713809D02*
X179952380Y-104713809D01*
X179380952Y-104713809D02*
X179333333Y-104666190D01*
X179285714Y-104570952D01*
X179285714Y-104428095D01*
X179333333Y-104332857D01*
X179428571Y-104285238D01*
X179952380Y-104285238D01*
X179285714Y-103809047D02*
X179952380Y-103809047D01*
X179380952Y-103809047D02*
X179333333Y-103761428D01*
X179285714Y-103666190D01*
X179285714Y-103523333D01*
X179333333Y-103428095D01*
X179428571Y-103380476D01*
X179952380Y-103380476D01*
X179952380Y-102475714D02*
X179428571Y-102475714D01*
X179333333Y-102523333D01*
X179285714Y-102618571D01*
X179285714Y-102809047D01*
X179333333Y-102904285D01*
X179904761Y-102475714D02*
X179952380Y-102570952D01*
X179952380Y-102809047D01*
X179904761Y-102904285D01*
X179809523Y-102951904D01*
X179714285Y-102951904D01*
X179619047Y-102904285D01*
X179571428Y-102809047D01*
X179571428Y-102570952D01*
X179523809Y-102475714D01*
X182502380Y-111351428D02*
X181502380Y-111351428D01*
X182502380Y-110780000D02*
X181930952Y-111208571D01*
X181502380Y-110780000D02*
X182073809Y-111351428D01*
X181978571Y-110351428D02*
X181978571Y-110018095D01*
X182502380Y-109875238D02*
X182502380Y-110351428D01*
X181502380Y-110351428D01*
X181502380Y-109875238D01*
X181978571Y-109446666D02*
X181978571Y-109113333D01*
X182502380Y-108970476D02*
X182502380Y-109446666D01*
X181502380Y-109446666D01*
X181502380Y-108970476D01*
X182502380Y-108541904D02*
X181502380Y-108541904D01*
X181502380Y-108160952D01*
X181550000Y-108065714D01*
X181597619Y-108018095D01*
X181692857Y-107970476D01*
X181835714Y-107970476D01*
X181930952Y-108018095D01*
X181978571Y-108065714D01*
X182026190Y-108160952D01*
X182026190Y-108541904D01*
X182121428Y-107541904D02*
X182121428Y-106780000D01*
X181502380Y-106113333D02*
X181502380Y-105922857D01*
X181550000Y-105827619D01*
X181645238Y-105732380D01*
X181835714Y-105684761D01*
X182169047Y-105684761D01*
X182359523Y-105732380D01*
X182454761Y-105827619D01*
X182502380Y-105922857D01*
X182502380Y-106113333D01*
X182454761Y-106208571D01*
X182359523Y-106303809D01*
X182169047Y-106351428D01*
X181835714Y-106351428D01*
X181645238Y-106303809D01*
X181550000Y-106208571D01*
X181502380Y-106113333D01*
X181502380Y-105256190D02*
X182311904Y-105256190D01*
X182407142Y-105208571D01*
X182454761Y-105160952D01*
X182502380Y-105065714D01*
X182502380Y-104875238D01*
X182454761Y-104780000D01*
X182407142Y-104732380D01*
X182311904Y-104684761D01*
X181502380Y-104684761D01*
X181502380Y-104351428D02*
X181502380Y-103780000D01*
X182502380Y-104065714D02*
X181502380Y-104065714D01*
X181502380Y-102780000D02*
X181502380Y-102113333D01*
X182502380Y-102780000D01*
X182502380Y-102113333D01*
X181502380Y-101541904D02*
X181502380Y-101351428D01*
X181550000Y-101256190D01*
X181645238Y-101160952D01*
X181835714Y-101113333D01*
X182169047Y-101113333D01*
X182359523Y-101160952D01*
X182454761Y-101256190D01*
X182502380Y-101351428D01*
X182502380Y-101541904D01*
X182454761Y-101637142D01*
X182359523Y-101732380D01*
X182169047Y-101780000D01*
X181835714Y-101780000D01*
X181645238Y-101732380D01*
X181550000Y-101637142D01*
X181502380Y-101541904D01*
X182502380Y-100684761D02*
X181502380Y-100684761D01*
X182502380Y-100113333D01*
X181502380Y-100113333D01*
X181978571Y-99637142D02*
X181978571Y-99303809D01*
X182502380Y-99160952D02*
X182502380Y-99637142D01*
X181502380Y-99637142D01*
X181502380Y-99160952D01*
M02*
