G04 #@! TF.GenerationSoftware,KiCad,Pcbnew,(5.1.5-0-10_14)*
G04 #@! TF.CreationDate,2020-05-25T09:14:52+02:00*
G04 #@! TF.ProjectId,ESP8266-PowerMonitor,45535038-3236-4362-9d50-6f7765724d6f,rev?*
G04 #@! TF.SameCoordinates,Original*
G04 #@! TF.FileFunction,Soldermask,Top*
G04 #@! TF.FilePolarity,Negative*
%FSLAX46Y46*%
G04 Gerber Fmt 4.6, Leading zero omitted, Abs format (unit mm)*
G04 Created by KiCad (PCBNEW (5.1.5-0-10_14)) date 2020-05-25 09:14:52*
%MOMM*%
%LPD*%
G04 APERTURE LIST*
%ADD10C,2.900000*%
%ADD11O,2.100000X2.100000*%
%ADD12R,2.100000X2.100000*%
%ADD13R,1.400000X2.900000*%
%ADD14R,2.200000X1.400000*%
%ADD15C,1.000000*%
%ADD16R,1.700000X1.950000*%
%ADD17R,2.400000X4.200000*%
%ADD18R,2.400000X1.900000*%
%ADD19R,3.400000X3.400000*%
%ADD20C,3.400000*%
%ADD21C,2.700000*%
%ADD22R,2.700000X2.400000*%
G04 APERTURE END LIST*
D10*
X117650000Y-113800000D03*
D11*
X157300000Y-111120000D03*
X157300000Y-108580000D03*
X157300000Y-106040000D03*
D12*
X157300000Y-103500000D03*
D13*
X176000000Y-97650000D03*
X174000000Y-97650000D03*
X172000000Y-97650000D03*
X170000000Y-97650000D03*
X168000000Y-97650000D03*
X166000000Y-97650000D03*
X164000000Y-97650000D03*
X162000000Y-97650000D03*
D14*
X160500000Y-100250000D03*
X160500000Y-102250000D03*
X160500000Y-104250000D03*
X160500000Y-106250000D03*
X160500000Y-108250000D03*
X160500000Y-110250000D03*
D13*
X162000000Y-112850000D03*
X164000000Y-112850000D03*
X166000000Y-112850000D03*
X168000000Y-112850000D03*
X170000000Y-112850000D03*
X172000000Y-112850000D03*
X174000000Y-112850000D03*
X176000000Y-112850000D03*
D12*
X165000000Y-116200000D03*
D11*
X167540000Y-116200000D03*
X170080000Y-116200000D03*
X172620000Y-116200000D03*
X175160000Y-116200000D03*
D15*
G36*
X145739018Y-103353843D02*
G01*
X145776537Y-103365224D01*
X145811114Y-103383706D01*
X145841421Y-103408579D01*
X145866294Y-103438886D01*
X145884776Y-103473463D01*
X145896157Y-103510982D01*
X145900000Y-103550000D01*
X145900000Y-105050000D01*
X145896157Y-105089018D01*
X145884776Y-105126537D01*
X145866294Y-105161114D01*
X145841421Y-105191421D01*
X145811114Y-105216294D01*
X145776537Y-105234776D01*
X145739018Y-105246157D01*
X145700000Y-105250000D01*
X144550000Y-105250000D01*
X144510982Y-105246157D01*
X144473463Y-105234776D01*
X144438886Y-105216294D01*
X144408579Y-105191421D01*
X144383706Y-105161114D01*
X144365224Y-105126537D01*
X144353843Y-105089018D01*
X144350000Y-105050000D01*
X144353843Y-105010982D01*
X144365224Y-104973463D01*
X144383590Y-104939060D01*
X144809630Y-104300000D01*
X144383590Y-103660940D01*
X144365144Y-103626343D01*
X144353802Y-103588813D01*
X144350000Y-103549791D01*
X144353884Y-103510777D01*
X144365304Y-103473270D01*
X144383822Y-103438712D01*
X144408727Y-103408431D01*
X144439060Y-103383590D01*
X144473657Y-103365144D01*
X144511187Y-103353802D01*
X144550000Y-103350000D01*
X145700000Y-103350000D01*
X145739018Y-103353843D01*
G37*
G36*
X144289018Y-103353843D02*
G01*
X144326537Y-103365224D01*
X144361114Y-103383706D01*
X144391421Y-103408579D01*
X144416410Y-103439060D01*
X144916410Y-104189060D01*
X144934856Y-104223657D01*
X144946198Y-104261187D01*
X144950000Y-104300209D01*
X144946116Y-104339223D01*
X144934696Y-104376730D01*
X144916410Y-104410940D01*
X144416410Y-105160940D01*
X144391569Y-105191273D01*
X144361288Y-105216178D01*
X144326730Y-105234696D01*
X144289223Y-105246116D01*
X144250000Y-105250000D01*
X143250000Y-105250000D01*
X143210982Y-105246157D01*
X143173463Y-105234776D01*
X143138886Y-105216294D01*
X143108579Y-105191421D01*
X143083706Y-105161114D01*
X143065224Y-105126537D01*
X143053843Y-105089018D01*
X143050000Y-105050000D01*
X143050000Y-103550000D01*
X143053843Y-103510982D01*
X143065224Y-103473463D01*
X143083706Y-103438886D01*
X143108579Y-103408579D01*
X143138886Y-103383706D01*
X143173463Y-103365224D01*
X143210982Y-103353843D01*
X143250000Y-103350000D01*
X144250000Y-103350000D01*
X144289018Y-103353843D01*
G37*
G36*
X160623707Y-92476542D02*
G01*
X160654787Y-92481152D01*
X160685266Y-92488787D01*
X160714850Y-92499372D01*
X160743254Y-92512806D01*
X160770204Y-92528959D01*
X160795442Y-92547677D01*
X160818723Y-92568777D01*
X160839823Y-92592058D01*
X160858541Y-92617296D01*
X160874694Y-92644246D01*
X160888128Y-92672650D01*
X160898713Y-92702234D01*
X160906348Y-92732713D01*
X160910958Y-92763793D01*
X160912500Y-92795176D01*
X160912500Y-94304824D01*
X160910958Y-94336207D01*
X160906348Y-94367287D01*
X160898713Y-94397766D01*
X160888128Y-94427350D01*
X160874694Y-94455754D01*
X160858541Y-94482704D01*
X160839823Y-94507942D01*
X160818723Y-94531223D01*
X160795442Y-94552323D01*
X160770204Y-94571041D01*
X160743254Y-94587194D01*
X160714850Y-94600628D01*
X160685266Y-94611213D01*
X160654787Y-94618848D01*
X160623707Y-94623458D01*
X160592324Y-94625000D01*
X159407676Y-94625000D01*
X159376293Y-94623458D01*
X159345213Y-94618848D01*
X159314734Y-94611213D01*
X159285150Y-94600628D01*
X159256746Y-94587194D01*
X159229796Y-94571041D01*
X159204558Y-94552323D01*
X159181277Y-94531223D01*
X159160177Y-94507942D01*
X159141459Y-94482704D01*
X159125306Y-94455754D01*
X159111872Y-94427350D01*
X159101287Y-94397766D01*
X159093652Y-94367287D01*
X159089042Y-94336207D01*
X159087500Y-94304824D01*
X159087500Y-92795176D01*
X159089042Y-92763793D01*
X159093652Y-92732713D01*
X159101287Y-92702234D01*
X159111872Y-92672650D01*
X159125306Y-92644246D01*
X159141459Y-92617296D01*
X159160177Y-92592058D01*
X159181277Y-92568777D01*
X159204558Y-92547677D01*
X159229796Y-92528959D01*
X159256746Y-92512806D01*
X159285150Y-92499372D01*
X159314734Y-92488787D01*
X159345213Y-92481152D01*
X159376293Y-92476542D01*
X159407676Y-92475000D01*
X160592324Y-92475000D01*
X160623707Y-92476542D01*
G37*
G36*
X163598707Y-92476542D02*
G01*
X163629787Y-92481152D01*
X163660266Y-92488787D01*
X163689850Y-92499372D01*
X163718254Y-92512806D01*
X163745204Y-92528959D01*
X163770442Y-92547677D01*
X163793723Y-92568777D01*
X163814823Y-92592058D01*
X163833541Y-92617296D01*
X163849694Y-92644246D01*
X163863128Y-92672650D01*
X163873713Y-92702234D01*
X163881348Y-92732713D01*
X163885958Y-92763793D01*
X163887500Y-92795176D01*
X163887500Y-94304824D01*
X163885958Y-94336207D01*
X163881348Y-94367287D01*
X163873713Y-94397766D01*
X163863128Y-94427350D01*
X163849694Y-94455754D01*
X163833541Y-94482704D01*
X163814823Y-94507942D01*
X163793723Y-94531223D01*
X163770442Y-94552323D01*
X163745204Y-94571041D01*
X163718254Y-94587194D01*
X163689850Y-94600628D01*
X163660266Y-94611213D01*
X163629787Y-94618848D01*
X163598707Y-94623458D01*
X163567324Y-94625000D01*
X162382676Y-94625000D01*
X162351293Y-94623458D01*
X162320213Y-94618848D01*
X162289734Y-94611213D01*
X162260150Y-94600628D01*
X162231746Y-94587194D01*
X162204796Y-94571041D01*
X162179558Y-94552323D01*
X162156277Y-94531223D01*
X162135177Y-94507942D01*
X162116459Y-94482704D01*
X162100306Y-94455754D01*
X162086872Y-94427350D01*
X162076287Y-94397766D01*
X162068652Y-94367287D01*
X162064042Y-94336207D01*
X162062500Y-94304824D01*
X162062500Y-92795176D01*
X162064042Y-92763793D01*
X162068652Y-92732713D01*
X162076287Y-92702234D01*
X162086872Y-92672650D01*
X162100306Y-92644246D01*
X162116459Y-92617296D01*
X162135177Y-92592058D01*
X162156277Y-92568777D01*
X162179558Y-92547677D01*
X162204796Y-92528959D01*
X162231746Y-92512806D01*
X162260150Y-92499372D01*
X162289734Y-92488787D01*
X162320213Y-92481152D01*
X162351293Y-92476542D01*
X162382676Y-92475000D01*
X163567324Y-92475000D01*
X163598707Y-92476542D01*
G37*
G36*
X174173707Y-92476542D02*
G01*
X174204787Y-92481152D01*
X174235266Y-92488787D01*
X174264850Y-92499372D01*
X174293254Y-92512806D01*
X174320204Y-92528959D01*
X174345442Y-92547677D01*
X174368723Y-92568777D01*
X174389823Y-92592058D01*
X174408541Y-92617296D01*
X174424694Y-92644246D01*
X174438128Y-92672650D01*
X174448713Y-92702234D01*
X174456348Y-92732713D01*
X174460958Y-92763793D01*
X174462500Y-92795176D01*
X174462500Y-94304824D01*
X174460958Y-94336207D01*
X174456348Y-94367287D01*
X174448713Y-94397766D01*
X174438128Y-94427350D01*
X174424694Y-94455754D01*
X174408541Y-94482704D01*
X174389823Y-94507942D01*
X174368723Y-94531223D01*
X174345442Y-94552323D01*
X174320204Y-94571041D01*
X174293254Y-94587194D01*
X174264850Y-94600628D01*
X174235266Y-94611213D01*
X174204787Y-94618848D01*
X174173707Y-94623458D01*
X174142324Y-94625000D01*
X172957676Y-94625000D01*
X172926293Y-94623458D01*
X172895213Y-94618848D01*
X172864734Y-94611213D01*
X172835150Y-94600628D01*
X172806746Y-94587194D01*
X172779796Y-94571041D01*
X172754558Y-94552323D01*
X172731277Y-94531223D01*
X172710177Y-94507942D01*
X172691459Y-94482704D01*
X172675306Y-94455754D01*
X172661872Y-94427350D01*
X172651287Y-94397766D01*
X172643652Y-94367287D01*
X172639042Y-94336207D01*
X172637500Y-94304824D01*
X172637500Y-92795176D01*
X172639042Y-92763793D01*
X172643652Y-92732713D01*
X172651287Y-92702234D01*
X172661872Y-92672650D01*
X172675306Y-92644246D01*
X172691459Y-92617296D01*
X172710177Y-92592058D01*
X172731277Y-92568777D01*
X172754558Y-92547677D01*
X172779796Y-92528959D01*
X172806746Y-92512806D01*
X172835150Y-92499372D01*
X172864734Y-92488787D01*
X172895213Y-92481152D01*
X172926293Y-92476542D01*
X172957676Y-92475000D01*
X174142324Y-92475000D01*
X174173707Y-92476542D01*
G37*
G36*
X171198707Y-92476542D02*
G01*
X171229787Y-92481152D01*
X171260266Y-92488787D01*
X171289850Y-92499372D01*
X171318254Y-92512806D01*
X171345204Y-92528959D01*
X171370442Y-92547677D01*
X171393723Y-92568777D01*
X171414823Y-92592058D01*
X171433541Y-92617296D01*
X171449694Y-92644246D01*
X171463128Y-92672650D01*
X171473713Y-92702234D01*
X171481348Y-92732713D01*
X171485958Y-92763793D01*
X171487500Y-92795176D01*
X171487500Y-94304824D01*
X171485958Y-94336207D01*
X171481348Y-94367287D01*
X171473713Y-94397766D01*
X171463128Y-94427350D01*
X171449694Y-94455754D01*
X171433541Y-94482704D01*
X171414823Y-94507942D01*
X171393723Y-94531223D01*
X171370442Y-94552323D01*
X171345204Y-94571041D01*
X171318254Y-94587194D01*
X171289850Y-94600628D01*
X171260266Y-94611213D01*
X171229787Y-94618848D01*
X171198707Y-94623458D01*
X171167324Y-94625000D01*
X169982676Y-94625000D01*
X169951293Y-94623458D01*
X169920213Y-94618848D01*
X169889734Y-94611213D01*
X169860150Y-94600628D01*
X169831746Y-94587194D01*
X169804796Y-94571041D01*
X169779558Y-94552323D01*
X169756277Y-94531223D01*
X169735177Y-94507942D01*
X169716459Y-94482704D01*
X169700306Y-94455754D01*
X169686872Y-94427350D01*
X169676287Y-94397766D01*
X169668652Y-94367287D01*
X169664042Y-94336207D01*
X169662500Y-94304824D01*
X169662500Y-92795176D01*
X169664042Y-92763793D01*
X169668652Y-92732713D01*
X169676287Y-92702234D01*
X169686872Y-92672650D01*
X169700306Y-92644246D01*
X169716459Y-92617296D01*
X169735177Y-92592058D01*
X169756277Y-92568777D01*
X169779558Y-92547677D01*
X169804796Y-92528959D01*
X169831746Y-92512806D01*
X169860150Y-92499372D01*
X169889734Y-92488787D01*
X169920213Y-92481152D01*
X169951293Y-92476542D01*
X169982676Y-92475000D01*
X171167324Y-92475000D01*
X171198707Y-92476542D01*
G37*
G36*
X168723707Y-92476542D02*
G01*
X168754787Y-92481152D01*
X168785266Y-92488787D01*
X168814850Y-92499372D01*
X168843254Y-92512806D01*
X168870204Y-92528959D01*
X168895442Y-92547677D01*
X168918723Y-92568777D01*
X168939823Y-92592058D01*
X168958541Y-92617296D01*
X168974694Y-92644246D01*
X168988128Y-92672650D01*
X168998713Y-92702234D01*
X169006348Y-92732713D01*
X169010958Y-92763793D01*
X169012500Y-92795176D01*
X169012500Y-94304824D01*
X169010958Y-94336207D01*
X169006348Y-94367287D01*
X168998713Y-94397766D01*
X168988128Y-94427350D01*
X168974694Y-94455754D01*
X168958541Y-94482704D01*
X168939823Y-94507942D01*
X168918723Y-94531223D01*
X168895442Y-94552323D01*
X168870204Y-94571041D01*
X168843254Y-94587194D01*
X168814850Y-94600628D01*
X168785266Y-94611213D01*
X168754787Y-94618848D01*
X168723707Y-94623458D01*
X168692324Y-94625000D01*
X167507676Y-94625000D01*
X167476293Y-94623458D01*
X167445213Y-94618848D01*
X167414734Y-94611213D01*
X167385150Y-94600628D01*
X167356746Y-94587194D01*
X167329796Y-94571041D01*
X167304558Y-94552323D01*
X167281277Y-94531223D01*
X167260177Y-94507942D01*
X167241459Y-94482704D01*
X167225306Y-94455754D01*
X167211872Y-94427350D01*
X167201287Y-94397766D01*
X167193652Y-94367287D01*
X167189042Y-94336207D01*
X167187500Y-94304824D01*
X167187500Y-92795176D01*
X167189042Y-92763793D01*
X167193652Y-92732713D01*
X167201287Y-92702234D01*
X167211872Y-92672650D01*
X167225306Y-92644246D01*
X167241459Y-92617296D01*
X167260177Y-92592058D01*
X167281277Y-92568777D01*
X167304558Y-92547677D01*
X167329796Y-92528959D01*
X167356746Y-92512806D01*
X167385150Y-92499372D01*
X167414734Y-92488787D01*
X167445213Y-92481152D01*
X167476293Y-92476542D01*
X167507676Y-92475000D01*
X168692324Y-92475000D01*
X168723707Y-92476542D01*
G37*
G36*
X165748707Y-92476542D02*
G01*
X165779787Y-92481152D01*
X165810266Y-92488787D01*
X165839850Y-92499372D01*
X165868254Y-92512806D01*
X165895204Y-92528959D01*
X165920442Y-92547677D01*
X165943723Y-92568777D01*
X165964823Y-92592058D01*
X165983541Y-92617296D01*
X165999694Y-92644246D01*
X166013128Y-92672650D01*
X166023713Y-92702234D01*
X166031348Y-92732713D01*
X166035958Y-92763793D01*
X166037500Y-92795176D01*
X166037500Y-94304824D01*
X166035958Y-94336207D01*
X166031348Y-94367287D01*
X166023713Y-94397766D01*
X166013128Y-94427350D01*
X165999694Y-94455754D01*
X165983541Y-94482704D01*
X165964823Y-94507942D01*
X165943723Y-94531223D01*
X165920442Y-94552323D01*
X165895204Y-94571041D01*
X165868254Y-94587194D01*
X165839850Y-94600628D01*
X165810266Y-94611213D01*
X165779787Y-94618848D01*
X165748707Y-94623458D01*
X165717324Y-94625000D01*
X164532676Y-94625000D01*
X164501293Y-94623458D01*
X164470213Y-94618848D01*
X164439734Y-94611213D01*
X164410150Y-94600628D01*
X164381746Y-94587194D01*
X164354796Y-94571041D01*
X164329558Y-94552323D01*
X164306277Y-94531223D01*
X164285177Y-94507942D01*
X164266459Y-94482704D01*
X164250306Y-94455754D01*
X164236872Y-94427350D01*
X164226287Y-94397766D01*
X164218652Y-94367287D01*
X164214042Y-94336207D01*
X164212500Y-94304824D01*
X164212500Y-92795176D01*
X164214042Y-92763793D01*
X164218652Y-92732713D01*
X164226287Y-92702234D01*
X164236872Y-92672650D01*
X164250306Y-92644246D01*
X164266459Y-92617296D01*
X164285177Y-92592058D01*
X164306277Y-92568777D01*
X164329558Y-92547677D01*
X164354796Y-92528959D01*
X164381746Y-92512806D01*
X164410150Y-92499372D01*
X164439734Y-92488787D01*
X164470213Y-92481152D01*
X164501293Y-92476542D01*
X164532676Y-92475000D01*
X165717324Y-92475000D01*
X165748707Y-92476542D01*
G37*
G36*
X162523707Y-114476542D02*
G01*
X162554787Y-114481152D01*
X162585266Y-114488787D01*
X162614850Y-114499372D01*
X162643254Y-114512806D01*
X162670204Y-114528959D01*
X162695442Y-114547677D01*
X162718723Y-114568777D01*
X162739823Y-114592058D01*
X162758541Y-114617296D01*
X162774694Y-114644246D01*
X162788128Y-114672650D01*
X162798713Y-114702234D01*
X162806348Y-114732713D01*
X162810958Y-114763793D01*
X162812500Y-114795176D01*
X162812500Y-116304824D01*
X162810958Y-116336207D01*
X162806348Y-116367287D01*
X162798713Y-116397766D01*
X162788128Y-116427350D01*
X162774694Y-116455754D01*
X162758541Y-116482704D01*
X162739823Y-116507942D01*
X162718723Y-116531223D01*
X162695442Y-116552323D01*
X162670204Y-116571041D01*
X162643254Y-116587194D01*
X162614850Y-116600628D01*
X162585266Y-116611213D01*
X162554787Y-116618848D01*
X162523707Y-116623458D01*
X162492324Y-116625000D01*
X161307676Y-116625000D01*
X161276293Y-116623458D01*
X161245213Y-116618848D01*
X161214734Y-116611213D01*
X161185150Y-116600628D01*
X161156746Y-116587194D01*
X161129796Y-116571041D01*
X161104558Y-116552323D01*
X161081277Y-116531223D01*
X161060177Y-116507942D01*
X161041459Y-116482704D01*
X161025306Y-116455754D01*
X161011872Y-116427350D01*
X161001287Y-116397766D01*
X160993652Y-116367287D01*
X160989042Y-116336207D01*
X160987500Y-116304824D01*
X160987500Y-114795176D01*
X160989042Y-114763793D01*
X160993652Y-114732713D01*
X161001287Y-114702234D01*
X161011872Y-114672650D01*
X161025306Y-114644246D01*
X161041459Y-114617296D01*
X161060177Y-114592058D01*
X161081277Y-114568777D01*
X161104558Y-114547677D01*
X161129796Y-114528959D01*
X161156746Y-114512806D01*
X161185150Y-114499372D01*
X161214734Y-114488787D01*
X161245213Y-114481152D01*
X161276293Y-114476542D01*
X161307676Y-114475000D01*
X162492324Y-114475000D01*
X162523707Y-114476542D01*
G37*
G36*
X159548707Y-114476542D02*
G01*
X159579787Y-114481152D01*
X159610266Y-114488787D01*
X159639850Y-114499372D01*
X159668254Y-114512806D01*
X159695204Y-114528959D01*
X159720442Y-114547677D01*
X159743723Y-114568777D01*
X159764823Y-114592058D01*
X159783541Y-114617296D01*
X159799694Y-114644246D01*
X159813128Y-114672650D01*
X159823713Y-114702234D01*
X159831348Y-114732713D01*
X159835958Y-114763793D01*
X159837500Y-114795176D01*
X159837500Y-116304824D01*
X159835958Y-116336207D01*
X159831348Y-116367287D01*
X159823713Y-116397766D01*
X159813128Y-116427350D01*
X159799694Y-116455754D01*
X159783541Y-116482704D01*
X159764823Y-116507942D01*
X159743723Y-116531223D01*
X159720442Y-116552323D01*
X159695204Y-116571041D01*
X159668254Y-116587194D01*
X159639850Y-116600628D01*
X159610266Y-116611213D01*
X159579787Y-116618848D01*
X159548707Y-116623458D01*
X159517324Y-116625000D01*
X158332676Y-116625000D01*
X158301293Y-116623458D01*
X158270213Y-116618848D01*
X158239734Y-116611213D01*
X158210150Y-116600628D01*
X158181746Y-116587194D01*
X158154796Y-116571041D01*
X158129558Y-116552323D01*
X158106277Y-116531223D01*
X158085177Y-116507942D01*
X158066459Y-116482704D01*
X158050306Y-116455754D01*
X158036872Y-116427350D01*
X158026287Y-116397766D01*
X158018652Y-116367287D01*
X158014042Y-116336207D01*
X158012500Y-116304824D01*
X158012500Y-114795176D01*
X158014042Y-114763793D01*
X158018652Y-114732713D01*
X158026287Y-114702234D01*
X158036872Y-114672650D01*
X158050306Y-114644246D01*
X158066459Y-114617296D01*
X158085177Y-114592058D01*
X158106277Y-114568777D01*
X158129558Y-114547677D01*
X158154796Y-114528959D01*
X158181746Y-114512806D01*
X158210150Y-114499372D01*
X158239734Y-114488787D01*
X158270213Y-114481152D01*
X158301293Y-114476542D01*
X158332676Y-114475000D01*
X159517324Y-114475000D01*
X159548707Y-114476542D01*
G37*
D16*
X153350000Y-92825000D03*
X157850000Y-92825000D03*
X157850000Y-100775000D03*
X153350000Y-100775000D03*
D17*
X150000000Y-95300000D03*
D18*
X143700000Y-95300000D03*
X143700000Y-97600000D03*
X143700000Y-93000000D03*
D12*
X143050000Y-116050000D03*
D11*
X140510000Y-116050000D03*
X137970000Y-116050000D03*
D15*
G36*
X147818130Y-106801505D02*
G01*
X147848466Y-106806005D01*
X147878214Y-106813456D01*
X147907089Y-106823788D01*
X147934811Y-106836900D01*
X147961116Y-106852666D01*
X147985748Y-106870934D01*
X148008471Y-106891529D01*
X148029066Y-106914252D01*
X148047334Y-106938884D01*
X148063100Y-106965189D01*
X148076212Y-106992911D01*
X148086544Y-107021786D01*
X148093995Y-107051534D01*
X148098495Y-107081870D01*
X148100000Y-107112500D01*
X148100000Y-109487500D01*
X148098495Y-109518130D01*
X148093995Y-109548466D01*
X148086544Y-109578214D01*
X148076212Y-109607089D01*
X148063100Y-109634811D01*
X148047334Y-109661116D01*
X148029066Y-109685748D01*
X148008471Y-109708471D01*
X147985748Y-109729066D01*
X147961116Y-109747334D01*
X147934811Y-109763100D01*
X147907089Y-109776212D01*
X147878214Y-109786544D01*
X147848466Y-109793995D01*
X147818130Y-109798495D01*
X147787500Y-109800000D01*
X146412500Y-109800000D01*
X146381870Y-109798495D01*
X146351534Y-109793995D01*
X146321786Y-109786544D01*
X146292911Y-109776212D01*
X146265189Y-109763100D01*
X146238884Y-109747334D01*
X146214252Y-109729066D01*
X146191529Y-109708471D01*
X146170934Y-109685748D01*
X146152666Y-109661116D01*
X146136900Y-109634811D01*
X146123788Y-109607089D01*
X146113456Y-109578214D01*
X146106005Y-109548466D01*
X146101505Y-109518130D01*
X146100000Y-109487500D01*
X146100000Y-107112500D01*
X146101505Y-107081870D01*
X146106005Y-107051534D01*
X146113456Y-107021786D01*
X146123788Y-106992911D01*
X146136900Y-106965189D01*
X146152666Y-106938884D01*
X146170934Y-106914252D01*
X146191529Y-106891529D01*
X146214252Y-106870934D01*
X146238884Y-106852666D01*
X146265189Y-106836900D01*
X146292911Y-106823788D01*
X146321786Y-106813456D01*
X146351534Y-106806005D01*
X146381870Y-106801505D01*
X146412500Y-106800000D01*
X147787500Y-106800000D01*
X147818130Y-106801505D01*
G37*
G36*
X147818130Y-110401505D02*
G01*
X147848466Y-110406005D01*
X147878214Y-110413456D01*
X147907089Y-110423788D01*
X147934811Y-110436900D01*
X147961116Y-110452666D01*
X147985748Y-110470934D01*
X148008471Y-110491529D01*
X148029066Y-110514252D01*
X148047334Y-110538884D01*
X148063100Y-110565189D01*
X148076212Y-110592911D01*
X148086544Y-110621786D01*
X148093995Y-110651534D01*
X148098495Y-110681870D01*
X148100000Y-110712500D01*
X148100000Y-113087500D01*
X148098495Y-113118130D01*
X148093995Y-113148466D01*
X148086544Y-113178214D01*
X148076212Y-113207089D01*
X148063100Y-113234811D01*
X148047334Y-113261116D01*
X148029066Y-113285748D01*
X148008471Y-113308471D01*
X147985748Y-113329066D01*
X147961116Y-113347334D01*
X147934811Y-113363100D01*
X147907089Y-113376212D01*
X147878214Y-113386544D01*
X147848466Y-113393995D01*
X147818130Y-113398495D01*
X147787500Y-113400000D01*
X146412500Y-113400000D01*
X146381870Y-113398495D01*
X146351534Y-113393995D01*
X146321786Y-113386544D01*
X146292911Y-113376212D01*
X146265189Y-113363100D01*
X146238884Y-113347334D01*
X146214252Y-113329066D01*
X146191529Y-113308471D01*
X146170934Y-113285748D01*
X146152666Y-113261116D01*
X146136900Y-113234811D01*
X146123788Y-113207089D01*
X146113456Y-113178214D01*
X146106005Y-113148466D01*
X146101505Y-113118130D01*
X146100000Y-113087500D01*
X146100000Y-110712500D01*
X146101505Y-110681870D01*
X146106005Y-110651534D01*
X146113456Y-110621786D01*
X146123788Y-110592911D01*
X146136900Y-110565189D01*
X146152666Y-110538884D01*
X146170934Y-110514252D01*
X146191529Y-110491529D01*
X146214252Y-110470934D01*
X146238884Y-110452666D01*
X146265189Y-110436900D01*
X146292911Y-110423788D01*
X146321786Y-110413456D01*
X146351534Y-110406005D01*
X146381870Y-110401505D01*
X146412500Y-110400000D01*
X147787500Y-110400000D01*
X147818130Y-110401505D01*
G37*
G36*
X151523707Y-99726542D02*
G01*
X151554787Y-99731152D01*
X151585266Y-99738787D01*
X151614850Y-99749372D01*
X151643254Y-99762806D01*
X151670204Y-99778959D01*
X151695442Y-99797677D01*
X151718723Y-99818777D01*
X151739823Y-99842058D01*
X151758541Y-99867296D01*
X151774694Y-99894246D01*
X151788128Y-99922650D01*
X151798713Y-99952234D01*
X151806348Y-99982713D01*
X151810958Y-100013793D01*
X151812500Y-100045176D01*
X151812500Y-101554824D01*
X151810958Y-101586207D01*
X151806348Y-101617287D01*
X151798713Y-101647766D01*
X151788128Y-101677350D01*
X151774694Y-101705754D01*
X151758541Y-101732704D01*
X151739823Y-101757942D01*
X151718723Y-101781223D01*
X151695442Y-101802323D01*
X151670204Y-101821041D01*
X151643254Y-101837194D01*
X151614850Y-101850628D01*
X151585266Y-101861213D01*
X151554787Y-101868848D01*
X151523707Y-101873458D01*
X151492324Y-101875000D01*
X150307676Y-101875000D01*
X150276293Y-101873458D01*
X150245213Y-101868848D01*
X150214734Y-101861213D01*
X150185150Y-101850628D01*
X150156746Y-101837194D01*
X150129796Y-101821041D01*
X150104558Y-101802323D01*
X150081277Y-101781223D01*
X150060177Y-101757942D01*
X150041459Y-101732704D01*
X150025306Y-101705754D01*
X150011872Y-101677350D01*
X150001287Y-101647766D01*
X149993652Y-101617287D01*
X149989042Y-101586207D01*
X149987500Y-101554824D01*
X149987500Y-100045176D01*
X149989042Y-100013793D01*
X149993652Y-99982713D01*
X150001287Y-99952234D01*
X150011872Y-99922650D01*
X150025306Y-99894246D01*
X150041459Y-99867296D01*
X150060177Y-99842058D01*
X150081277Y-99818777D01*
X150104558Y-99797677D01*
X150129796Y-99778959D01*
X150156746Y-99762806D01*
X150185150Y-99749372D01*
X150214734Y-99738787D01*
X150245213Y-99731152D01*
X150276293Y-99726542D01*
X150307676Y-99725000D01*
X151492324Y-99725000D01*
X151523707Y-99726542D01*
G37*
G36*
X148548707Y-99726542D02*
G01*
X148579787Y-99731152D01*
X148610266Y-99738787D01*
X148639850Y-99749372D01*
X148668254Y-99762806D01*
X148695204Y-99778959D01*
X148720442Y-99797677D01*
X148743723Y-99818777D01*
X148764823Y-99842058D01*
X148783541Y-99867296D01*
X148799694Y-99894246D01*
X148813128Y-99922650D01*
X148823713Y-99952234D01*
X148831348Y-99982713D01*
X148835958Y-100013793D01*
X148837500Y-100045176D01*
X148837500Y-101554824D01*
X148835958Y-101586207D01*
X148831348Y-101617287D01*
X148823713Y-101647766D01*
X148813128Y-101677350D01*
X148799694Y-101705754D01*
X148783541Y-101732704D01*
X148764823Y-101757942D01*
X148743723Y-101781223D01*
X148720442Y-101802323D01*
X148695204Y-101821041D01*
X148668254Y-101837194D01*
X148639850Y-101850628D01*
X148610266Y-101861213D01*
X148579787Y-101868848D01*
X148548707Y-101873458D01*
X148517324Y-101875000D01*
X147332676Y-101875000D01*
X147301293Y-101873458D01*
X147270213Y-101868848D01*
X147239734Y-101861213D01*
X147210150Y-101850628D01*
X147181746Y-101837194D01*
X147154796Y-101821041D01*
X147129558Y-101802323D01*
X147106277Y-101781223D01*
X147085177Y-101757942D01*
X147066459Y-101732704D01*
X147050306Y-101705754D01*
X147036872Y-101677350D01*
X147026287Y-101647766D01*
X147018652Y-101617287D01*
X147014042Y-101586207D01*
X147012500Y-101554824D01*
X147012500Y-100045176D01*
X147014042Y-100013793D01*
X147018652Y-99982713D01*
X147026287Y-99952234D01*
X147036872Y-99922650D01*
X147050306Y-99894246D01*
X147066459Y-99867296D01*
X147085177Y-99842058D01*
X147106277Y-99818777D01*
X147129558Y-99797677D01*
X147154796Y-99778959D01*
X147181746Y-99762806D01*
X147210150Y-99749372D01*
X147239734Y-99738787D01*
X147270213Y-99731152D01*
X147301293Y-99726542D01*
X147332676Y-99725000D01*
X148517324Y-99725000D01*
X148548707Y-99726542D01*
G37*
D12*
X149900000Y-116000000D03*
D11*
X147360000Y-116000000D03*
D15*
G36*
X141423707Y-112026542D02*
G01*
X141454787Y-112031152D01*
X141485266Y-112038787D01*
X141514850Y-112049372D01*
X141543254Y-112062806D01*
X141570204Y-112078959D01*
X141595442Y-112097677D01*
X141618723Y-112118777D01*
X141639823Y-112142058D01*
X141658541Y-112167296D01*
X141674694Y-112194246D01*
X141688128Y-112222650D01*
X141698713Y-112252234D01*
X141706348Y-112282713D01*
X141710958Y-112313793D01*
X141712500Y-112345176D01*
X141712500Y-113854824D01*
X141710958Y-113886207D01*
X141706348Y-113917287D01*
X141698713Y-113947766D01*
X141688128Y-113977350D01*
X141674694Y-114005754D01*
X141658541Y-114032704D01*
X141639823Y-114057942D01*
X141618723Y-114081223D01*
X141595442Y-114102323D01*
X141570204Y-114121041D01*
X141543254Y-114137194D01*
X141514850Y-114150628D01*
X141485266Y-114161213D01*
X141454787Y-114168848D01*
X141423707Y-114173458D01*
X141392324Y-114175000D01*
X140207676Y-114175000D01*
X140176293Y-114173458D01*
X140145213Y-114168848D01*
X140114734Y-114161213D01*
X140085150Y-114150628D01*
X140056746Y-114137194D01*
X140029796Y-114121041D01*
X140004558Y-114102323D01*
X139981277Y-114081223D01*
X139960177Y-114057942D01*
X139941459Y-114032704D01*
X139925306Y-114005754D01*
X139911872Y-113977350D01*
X139901287Y-113947766D01*
X139893652Y-113917287D01*
X139889042Y-113886207D01*
X139887500Y-113854824D01*
X139887500Y-112345176D01*
X139889042Y-112313793D01*
X139893652Y-112282713D01*
X139901287Y-112252234D01*
X139911872Y-112222650D01*
X139925306Y-112194246D01*
X139941459Y-112167296D01*
X139960177Y-112142058D01*
X139981277Y-112118777D01*
X140004558Y-112097677D01*
X140029796Y-112078959D01*
X140056746Y-112062806D01*
X140085150Y-112049372D01*
X140114734Y-112038787D01*
X140145213Y-112031152D01*
X140176293Y-112026542D01*
X140207676Y-112025000D01*
X141392324Y-112025000D01*
X141423707Y-112026542D01*
G37*
G36*
X138448707Y-112026542D02*
G01*
X138479787Y-112031152D01*
X138510266Y-112038787D01*
X138539850Y-112049372D01*
X138568254Y-112062806D01*
X138595204Y-112078959D01*
X138620442Y-112097677D01*
X138643723Y-112118777D01*
X138664823Y-112142058D01*
X138683541Y-112167296D01*
X138699694Y-112194246D01*
X138713128Y-112222650D01*
X138723713Y-112252234D01*
X138731348Y-112282713D01*
X138735958Y-112313793D01*
X138737500Y-112345176D01*
X138737500Y-113854824D01*
X138735958Y-113886207D01*
X138731348Y-113917287D01*
X138723713Y-113947766D01*
X138713128Y-113977350D01*
X138699694Y-114005754D01*
X138683541Y-114032704D01*
X138664823Y-114057942D01*
X138643723Y-114081223D01*
X138620442Y-114102323D01*
X138595204Y-114121041D01*
X138568254Y-114137194D01*
X138539850Y-114150628D01*
X138510266Y-114161213D01*
X138479787Y-114168848D01*
X138448707Y-114173458D01*
X138417324Y-114175000D01*
X137232676Y-114175000D01*
X137201293Y-114173458D01*
X137170213Y-114168848D01*
X137139734Y-114161213D01*
X137110150Y-114150628D01*
X137081746Y-114137194D01*
X137054796Y-114121041D01*
X137029558Y-114102323D01*
X137006277Y-114081223D01*
X136985177Y-114057942D01*
X136966459Y-114032704D01*
X136950306Y-114005754D01*
X136936872Y-113977350D01*
X136926287Y-113947766D01*
X136918652Y-113917287D01*
X136914042Y-113886207D01*
X136912500Y-113854824D01*
X136912500Y-112345176D01*
X136914042Y-112313793D01*
X136918652Y-112282713D01*
X136926287Y-112252234D01*
X136936872Y-112222650D01*
X136950306Y-112194246D01*
X136966459Y-112167296D01*
X136985177Y-112142058D01*
X137006277Y-112118777D01*
X137029558Y-112097677D01*
X137054796Y-112078959D01*
X137081746Y-112062806D01*
X137110150Y-112049372D01*
X137139734Y-112038787D01*
X137170213Y-112031152D01*
X137201293Y-112026542D01*
X137232676Y-112025000D01*
X138417324Y-112025000D01*
X138448707Y-112026542D01*
G37*
G36*
X118786207Y-97489042D02*
G01*
X118817287Y-97493652D01*
X118847766Y-97501287D01*
X118877350Y-97511872D01*
X118905754Y-97525306D01*
X118932704Y-97541459D01*
X118957942Y-97560177D01*
X118981223Y-97581277D01*
X119002323Y-97604558D01*
X119021041Y-97629796D01*
X119037194Y-97656746D01*
X119050628Y-97685150D01*
X119061213Y-97714734D01*
X119068848Y-97745213D01*
X119073458Y-97776293D01*
X119075000Y-97807676D01*
X119075000Y-98992324D01*
X119073458Y-99023707D01*
X119068848Y-99054787D01*
X119061213Y-99085266D01*
X119050628Y-99114850D01*
X119037194Y-99143254D01*
X119021041Y-99170204D01*
X119002323Y-99195442D01*
X118981223Y-99218723D01*
X118957942Y-99239823D01*
X118932704Y-99258541D01*
X118905754Y-99274694D01*
X118877350Y-99288128D01*
X118847766Y-99298713D01*
X118817287Y-99306348D01*
X118786207Y-99310958D01*
X118754824Y-99312500D01*
X117245176Y-99312500D01*
X117213793Y-99310958D01*
X117182713Y-99306348D01*
X117152234Y-99298713D01*
X117122650Y-99288128D01*
X117094246Y-99274694D01*
X117067296Y-99258541D01*
X117042058Y-99239823D01*
X117018777Y-99218723D01*
X116997677Y-99195442D01*
X116978959Y-99170204D01*
X116962806Y-99143254D01*
X116949372Y-99114850D01*
X116938787Y-99085266D01*
X116931152Y-99054787D01*
X116926542Y-99023707D01*
X116925000Y-98992324D01*
X116925000Y-97807676D01*
X116926542Y-97776293D01*
X116931152Y-97745213D01*
X116938787Y-97714734D01*
X116949372Y-97685150D01*
X116962806Y-97656746D01*
X116978959Y-97629796D01*
X116997677Y-97604558D01*
X117018777Y-97581277D01*
X117042058Y-97560177D01*
X117067296Y-97541459D01*
X117094246Y-97525306D01*
X117122650Y-97511872D01*
X117152234Y-97501287D01*
X117182713Y-97493652D01*
X117213793Y-97489042D01*
X117245176Y-97487500D01*
X118754824Y-97487500D01*
X118786207Y-97489042D01*
G37*
G36*
X118786207Y-100464042D02*
G01*
X118817287Y-100468652D01*
X118847766Y-100476287D01*
X118877350Y-100486872D01*
X118905754Y-100500306D01*
X118932704Y-100516459D01*
X118957942Y-100535177D01*
X118981223Y-100556277D01*
X119002323Y-100579558D01*
X119021041Y-100604796D01*
X119037194Y-100631746D01*
X119050628Y-100660150D01*
X119061213Y-100689734D01*
X119068848Y-100720213D01*
X119073458Y-100751293D01*
X119075000Y-100782676D01*
X119075000Y-101967324D01*
X119073458Y-101998707D01*
X119068848Y-102029787D01*
X119061213Y-102060266D01*
X119050628Y-102089850D01*
X119037194Y-102118254D01*
X119021041Y-102145204D01*
X119002323Y-102170442D01*
X118981223Y-102193723D01*
X118957942Y-102214823D01*
X118932704Y-102233541D01*
X118905754Y-102249694D01*
X118877350Y-102263128D01*
X118847766Y-102273713D01*
X118817287Y-102281348D01*
X118786207Y-102285958D01*
X118754824Y-102287500D01*
X117245176Y-102287500D01*
X117213793Y-102285958D01*
X117182713Y-102281348D01*
X117152234Y-102273713D01*
X117122650Y-102263128D01*
X117094246Y-102249694D01*
X117067296Y-102233541D01*
X117042058Y-102214823D01*
X117018777Y-102193723D01*
X116997677Y-102170442D01*
X116978959Y-102145204D01*
X116962806Y-102118254D01*
X116949372Y-102089850D01*
X116938787Y-102060266D01*
X116931152Y-102029787D01*
X116926542Y-101998707D01*
X116925000Y-101967324D01*
X116925000Y-100782676D01*
X116926542Y-100751293D01*
X116931152Y-100720213D01*
X116938787Y-100689734D01*
X116949372Y-100660150D01*
X116962806Y-100631746D01*
X116978959Y-100604796D01*
X116997677Y-100579558D01*
X117018777Y-100556277D01*
X117042058Y-100535177D01*
X117067296Y-100516459D01*
X117094246Y-100500306D01*
X117122650Y-100486872D01*
X117152234Y-100476287D01*
X117182713Y-100468652D01*
X117213793Y-100464042D01*
X117245176Y-100462500D01*
X118754824Y-100462500D01*
X118786207Y-100464042D01*
G37*
D19*
X123500000Y-113800000D03*
D20*
X128580000Y-113800000D03*
D21*
X139500000Y-93250000D03*
D22*
X110100000Y-98450000D03*
D21*
X110100000Y-103450000D03*
X139500000Y-108650000D03*
M02*
