M48
; DRILL file {KiCad (5.1.5-0-10_14)} date Sunday, 28 June 2020 at 15:17:41
; FORMAT={-:-/ absolute / metric / decimal}
; #@! TF.CreationDate,2020-06-28T15:17:41+02:00
; #@! TF.GenerationSoftware,Kicad,Pcbnew,(5.1.5-0-10_14)
FMAT,2
METRIC
T1C0.500
T2C1.000
T3C1.520
T4C2.500
%
G90
G05
T1
X160.05Y98.05
X164.0Y95.45
X166.0Y95.4
X170.55Y95.4
T2
X157.3Y103.5
X157.3Y106.04
X157.3Y108.58
X157.3Y111.12
X137.97Y116.05
X140.51Y116.05
X143.05Y116.05
X165.0Y116.2
X167.54Y116.2
X170.08Y116.2
X172.62Y116.2
X175.16Y116.2
X147.36Y116.0
X149.9Y116.0
X110.1Y98.45
X110.1Y103.45
X139.5Y93.25
X139.5Y108.65
T3
X123.5Y113.8
X128.58Y113.8
T4
X117.65Y113.8
T0
M30
