G04 #@! TF.GenerationSoftware,KiCad,Pcbnew,(5.1.5-0-10_14)*
G04 #@! TF.CreationDate,2020-05-25T09:14:52+02:00*
G04 #@! TF.ProjectId,ESP8266-PowerMonitor,45535038-3236-4362-9d50-6f7765724d6f,rev?*
G04 #@! TF.SameCoordinates,Original*
G04 #@! TF.FileFunction,Other,Fab,Bot*
%FSLAX46Y46*%
G04 Gerber Fmt 4.6, Leading zero omitted, Abs format (unit mm)*
G04 Created by KiCad (PCBNEW (5.1.5-0-10_14)) date 2020-05-25 09:14:52*
%MOMM*%
%LPD*%
G04 APERTURE LIST*
%ADD10C,0.100000*%
%ADD11C,0.120000*%
G04 APERTURE END LIST*
D10*
X153112500Y-116350000D02*
X156312500Y-116350000D01*
X153112500Y-114750000D02*
X153112500Y-116350000D01*
X156312500Y-114750000D02*
X153112500Y-114750000D01*
X156312500Y-116350000D02*
X156312500Y-114750000D01*
X175237500Y-109450000D02*
X175237500Y-107850000D01*
X175237500Y-107850000D02*
X172037500Y-107850000D01*
X172037500Y-107850000D02*
X172037500Y-109450000D01*
X172037500Y-109450000D02*
X175237500Y-109450000D01*
X138600000Y-102500000D02*
X140200000Y-102500000D01*
X140200000Y-102500000D02*
X140200000Y-99300000D01*
X140200000Y-99300000D02*
X138600000Y-99300000D01*
X138600000Y-99300000D02*
X138600000Y-102500000D01*
D11*
X173770833Y-109011904D02*
X174037500Y-108630952D01*
X174227976Y-109011904D02*
X174227976Y-108211904D01*
X173923214Y-108211904D01*
X173847023Y-108250000D01*
X173808928Y-108288095D01*
X173770833Y-108364285D01*
X173770833Y-108478571D01*
X173808928Y-108554761D01*
X173847023Y-108592857D01*
X173923214Y-108630952D01*
X174227976Y-108630952D01*
X173085119Y-108478571D02*
X173085119Y-109011904D01*
X173275595Y-108173809D02*
X173466071Y-108745238D01*
X172970833Y-108745238D01*
X136685714Y-100516666D02*
X136723809Y-100478571D01*
X136761904Y-100364285D01*
X136761904Y-100288095D01*
X136723809Y-100173809D01*
X136647619Y-100097619D01*
X136571428Y-100059523D01*
X136419047Y-100021428D01*
X136304761Y-100021428D01*
X136152380Y-100059523D01*
X136076190Y-100097619D01*
X136000000Y-100173809D01*
X135961904Y-100288095D01*
X135961904Y-100364285D01*
X136000000Y-100478571D01*
X136038095Y-100516666D01*
X136761904Y-101278571D02*
X136761904Y-100821428D01*
X136761904Y-101050000D02*
X135961904Y-101050000D01*
X136076190Y-100973809D01*
X136152380Y-100897619D01*
X136190476Y-100821428D01*
X149545833Y-101090713D02*
X149583928Y-101128808D01*
X149698214Y-101166903D01*
X149774404Y-101166903D01*
X149888690Y-101128808D01*
X149964880Y-101052618D01*
X150002976Y-100976427D01*
X150041071Y-100824046D01*
X150041071Y-100709760D01*
X150002976Y-100557379D01*
X149964880Y-100481189D01*
X149888690Y-100404999D01*
X149774404Y-100366903D01*
X149698214Y-100366903D01*
X149583928Y-100404999D01*
X149545833Y-100443094D01*
X149279166Y-100366903D02*
X148783928Y-100366903D01*
X149050595Y-100671665D01*
X148936309Y-100671665D01*
X148860119Y-100709760D01*
X148822023Y-100747856D01*
X148783928Y-100824046D01*
X148783928Y-101014522D01*
X148822023Y-101090713D01*
X148860119Y-101128808D01*
X148936309Y-101166903D01*
X149164880Y-101166903D01*
X149241071Y-101128808D01*
X149279166Y-101090713D01*
M02*
