G04 #@! TF.GenerationSoftware,KiCad,Pcbnew,(5.1.5-0-10_14)*
G04 #@! TF.CreationDate,2020-04-24T15:56:46+02:00*
G04 #@! TF.ProjectId,ESP8266-PowerMonitor,45535038-3236-4362-9d50-6f7765724d6f,rev?*
G04 #@! TF.SameCoordinates,Original*
G04 #@! TF.FileFunction,Legend,Top*
G04 #@! TF.FilePolarity,Positive*
%FSLAX46Y46*%
G04 Gerber Fmt 4.6, Leading zero omitted, Abs format (unit mm)*
G04 Created by KiCad (PCBNEW (5.1.5-0-10_14)) date 2020-04-24 15:56:46*
%MOMM*%
%LPD*%
G04 APERTURE LIST*
%ADD10C,0.120000*%
%ADD11C,0.150000*%
G04 APERTURE END LIST*
D10*
X153760000Y-110260000D02*
X153760000Y-109060000D01*
X153760000Y-105740000D02*
X153760000Y-106940000D01*
X150304437Y-105740000D02*
X153760000Y-105740000D01*
X150304437Y-110260000D02*
X153760000Y-110260000D01*
X149240000Y-109195563D02*
X149240000Y-109060000D01*
X149240000Y-106804437D02*
X149240000Y-106940000D01*
X149240000Y-106804437D02*
X150304437Y-105740000D01*
X149240000Y-109195563D02*
X150304437Y-110260000D01*
X148500000Y-106440000D02*
X149000000Y-106440000D01*
X148750000Y-106190000D02*
X148750000Y-106690000D01*
X149110436Y-101710000D02*
X150314564Y-101710000D01*
X149110436Y-99890000D02*
X150314564Y-99890000D01*
X118910000Y-99285436D02*
X118910000Y-100489564D01*
X117090000Y-99285436D02*
X117090000Y-100489564D01*
X156770000Y-117230000D02*
X156770000Y-114570000D01*
X154170000Y-117230000D02*
X156770000Y-117230000D01*
X154170000Y-114570000D02*
X156770000Y-114570000D01*
X154170000Y-117230000D02*
X154170000Y-114570000D01*
X152900000Y-117230000D02*
X151570000Y-117230000D01*
X151570000Y-117230000D02*
X151570000Y-115900000D01*
X177190000Y-117430000D02*
X177190000Y-114770000D01*
X166970000Y-117430000D02*
X177190000Y-117430000D01*
X166970000Y-114770000D02*
X177190000Y-114770000D01*
X166970000Y-117430000D02*
X166970000Y-114770000D01*
X165700000Y-117430000D02*
X164370000Y-117430000D01*
X164370000Y-117430000D02*
X164370000Y-116100000D01*
X131120000Y-116340000D02*
X120960000Y-116340000D01*
X131120000Y-117610000D02*
X131120000Y-109990000D01*
X131120000Y-109990000D02*
X120960000Y-109990000D01*
X120960000Y-109990000D02*
X120960000Y-117610000D01*
X120960000Y-117610000D02*
X131120000Y-117610000D01*
X143075000Y-105300000D02*
X143075000Y-103300000D01*
X145875000Y-105300000D02*
X143075000Y-105300000D01*
X145875000Y-103300000D02*
X145875000Y-105300000D01*
X143075000Y-103300000D02*
X145875000Y-103300000D01*
X107700000Y-90850000D02*
X107700000Y-111050000D01*
X107700000Y-111050000D02*
X141900000Y-111050000D01*
X141900000Y-111050000D02*
X141900000Y-90850000D01*
X141900000Y-90850000D02*
X107700000Y-90850000D01*
X107310000Y-97450000D02*
X107310000Y-99460000D01*
X160697936Y-91890000D02*
X161902064Y-91890000D01*
X160697936Y-93710000D02*
X161902064Y-93710000D01*
X165885436Y-93710000D02*
X167089564Y-93710000D01*
X165885436Y-91890000D02*
X167089564Y-91890000D01*
X160085436Y-116710000D02*
X161289564Y-116710000D01*
X160085436Y-114890000D02*
X161289564Y-114890000D01*
X158830000Y-100030000D02*
X158800000Y-100030000D01*
X152370000Y-100030000D02*
X152400000Y-100030000D01*
X152370000Y-93570000D02*
X152400000Y-93570000D01*
X158800000Y-93570000D02*
X158830000Y-93570000D01*
X156900000Y-100030000D02*
X154300000Y-100030000D01*
X158830000Y-93570000D02*
X158830000Y-100030000D01*
X156900000Y-93570000D02*
X154300000Y-93570000D01*
X152370000Y-93570000D02*
X152370000Y-100030000D01*
X149260000Y-98860000D02*
X149260000Y-97600000D01*
X149260000Y-92040000D02*
X149260000Y-93300000D01*
X145500000Y-98860000D02*
X149260000Y-98860000D01*
X143250000Y-92040000D02*
X149260000Y-92040000D01*
X184320000Y-95280000D02*
X184320000Y-111520000D01*
X184320000Y-111520000D02*
X176700000Y-111520000D01*
X160700000Y-111520000D02*
X160080000Y-111520000D01*
X160080000Y-111520000D02*
X160080000Y-109400000D01*
X160080000Y-97400000D02*
X160080000Y-95280000D01*
X160080000Y-95280000D02*
X160700000Y-95280000D01*
X176700000Y-95280000D02*
X184320000Y-95280000D01*
X176700000Y-95280000D02*
X176700000Y-94670000D01*
X142690000Y-114570000D02*
X142690000Y-117230000D01*
X147830000Y-114570000D02*
X142690000Y-114570000D01*
X147830000Y-117230000D02*
X142690000Y-117230000D01*
X147830000Y-114570000D02*
X147830000Y-117230000D01*
X149100000Y-114570000D02*
X150430000Y-114570000D01*
X150430000Y-114570000D02*
X150430000Y-115900000D01*
D11*
X116266666Y-110952380D02*
X115933333Y-110476190D01*
X115695238Y-110952380D02*
X115695238Y-109952380D01*
X116076190Y-109952380D01*
X116171428Y-110000000D01*
X116219047Y-110047619D01*
X116266666Y-110142857D01*
X116266666Y-110285714D01*
X116219047Y-110380952D01*
X116171428Y-110428571D01*
X116076190Y-110476190D01*
X115695238Y-110476190D01*
X116695238Y-110428571D02*
X117028571Y-110428571D01*
X117171428Y-110952380D02*
X116695238Y-110952380D01*
X116695238Y-109952380D01*
X117171428Y-109952380D01*
X117933333Y-110428571D02*
X117600000Y-110428571D01*
X117600000Y-110952380D02*
X117600000Y-109952380D01*
X118076190Y-109952380D01*
X118600000Y-109952380D02*
X118600000Y-110190476D01*
X118361904Y-110095238D02*
X118600000Y-110190476D01*
X118838095Y-110095238D01*
X118457142Y-110380952D02*
X118600000Y-110190476D01*
X118742857Y-110380952D01*
X119361904Y-109952380D02*
X119361904Y-110190476D01*
X119123809Y-110095238D02*
X119361904Y-110190476D01*
X119600000Y-110095238D01*
X119219047Y-110380952D02*
X119361904Y-110190476D01*
X119504761Y-110380952D01*
X151333333Y-105157142D02*
X151285714Y-105204761D01*
X151142857Y-105252380D01*
X151047619Y-105252380D01*
X150904761Y-105204761D01*
X150809523Y-105109523D01*
X150761904Y-105014285D01*
X150714285Y-104823809D01*
X150714285Y-104680952D01*
X150761904Y-104490476D01*
X150809523Y-104395238D01*
X150904761Y-104300000D01*
X151047619Y-104252380D01*
X151142857Y-104252380D01*
X151285714Y-104300000D01*
X151333333Y-104347619D01*
X151714285Y-104347619D02*
X151761904Y-104300000D01*
X151857142Y-104252380D01*
X152095238Y-104252380D01*
X152190476Y-104300000D01*
X152238095Y-104347619D01*
X152285714Y-104442857D01*
X152285714Y-104538095D01*
X152238095Y-104680952D01*
X151666666Y-105252380D01*
X152285714Y-105252380D01*
X149545833Y-99337142D02*
X149498214Y-99384761D01*
X149355357Y-99432380D01*
X149260119Y-99432380D01*
X149117261Y-99384761D01*
X149022023Y-99289523D01*
X148974404Y-99194285D01*
X148926785Y-99003809D01*
X148926785Y-98860952D01*
X148974404Y-98670476D01*
X149022023Y-98575238D01*
X149117261Y-98480000D01*
X149260119Y-98432380D01*
X149355357Y-98432380D01*
X149498214Y-98480000D01*
X149545833Y-98527619D01*
X149879166Y-98432380D02*
X150498214Y-98432380D01*
X150164880Y-98813333D01*
X150307738Y-98813333D01*
X150402976Y-98860952D01*
X150450595Y-98908571D01*
X150498214Y-99003809D01*
X150498214Y-99241904D01*
X150450595Y-99337142D01*
X150402976Y-99384761D01*
X150307738Y-99432380D01*
X150022023Y-99432380D01*
X149926785Y-99384761D01*
X149879166Y-99337142D01*
X119748571Y-100220833D02*
X119748571Y-100554166D01*
X120272380Y-100554166D02*
X119272380Y-100554166D01*
X119272380Y-100077976D01*
X120272380Y-99173214D02*
X120272380Y-99744642D01*
X120272380Y-99458928D02*
X119272380Y-99458928D01*
X119415238Y-99554166D01*
X119510476Y-99649404D01*
X119558095Y-99744642D01*
X150022380Y-116233333D02*
X150736666Y-116233333D01*
X150879523Y-116280952D01*
X150974761Y-116376190D01*
X151022380Y-116519047D01*
X151022380Y-116614285D01*
X151022380Y-115233333D02*
X151022380Y-115804761D01*
X151022380Y-115519047D02*
X150022380Y-115519047D01*
X150165238Y-115614285D01*
X150260476Y-115709523D01*
X150308095Y-115804761D01*
X162822380Y-116433333D02*
X163536666Y-116433333D01*
X163679523Y-116480952D01*
X163774761Y-116576190D01*
X163822380Y-116719047D01*
X163822380Y-116814285D01*
X162917619Y-116004761D02*
X162870000Y-115957142D01*
X162822380Y-115861904D01*
X162822380Y-115623809D01*
X162870000Y-115528571D01*
X162917619Y-115480952D01*
X163012857Y-115433333D01*
X163108095Y-115433333D01*
X163250952Y-115480952D01*
X163822380Y-116052380D01*
X163822380Y-115433333D01*
X125706666Y-108172380D02*
X125706666Y-108886666D01*
X125659047Y-109029523D01*
X125563809Y-109124761D01*
X125420952Y-109172380D01*
X125325714Y-109172380D01*
X126087619Y-108172380D02*
X126706666Y-108172380D01*
X126373333Y-108553333D01*
X126516190Y-108553333D01*
X126611428Y-108600952D01*
X126659047Y-108648571D01*
X126706666Y-108743809D01*
X126706666Y-108981904D01*
X126659047Y-109077142D01*
X126611428Y-109124761D01*
X126516190Y-109172380D01*
X126230476Y-109172380D01*
X126135238Y-109124761D01*
X126087619Y-109077142D01*
X143641666Y-101952380D02*
X143641666Y-102666666D01*
X143594047Y-102809523D01*
X143498809Y-102904761D01*
X143355952Y-102952380D01*
X143260714Y-102952380D01*
X144117857Y-102952380D02*
X144117857Y-101952380D01*
X144498809Y-101952380D01*
X144594047Y-102000000D01*
X144641666Y-102047619D01*
X144689285Y-102142857D01*
X144689285Y-102285714D01*
X144641666Y-102380952D01*
X144594047Y-102428571D01*
X144498809Y-102476190D01*
X144117857Y-102476190D01*
X145641666Y-102952380D02*
X145070238Y-102952380D01*
X145355952Y-102952380D02*
X145355952Y-101952380D01*
X145260714Y-102095238D01*
X145165476Y-102190476D01*
X145070238Y-102238095D01*
X109052380Y-102214285D02*
X108052380Y-102214285D01*
X108052380Y-101833333D01*
X108100000Y-101738095D01*
X108147619Y-101690476D01*
X108242857Y-101642857D01*
X108385714Y-101642857D01*
X108480952Y-101690476D01*
X108528571Y-101738095D01*
X108576190Y-101833333D01*
X108576190Y-102214285D01*
X109004761Y-101261904D02*
X109052380Y-101119047D01*
X109052380Y-100880952D01*
X109004761Y-100785714D01*
X108957142Y-100738095D01*
X108861904Y-100690476D01*
X108766666Y-100690476D01*
X108671428Y-100738095D01*
X108623809Y-100785714D01*
X108576190Y-100880952D01*
X108528571Y-101071428D01*
X108480952Y-101166666D01*
X108433333Y-101214285D01*
X108338095Y-101261904D01*
X108242857Y-101261904D01*
X108147619Y-101214285D01*
X108100000Y-101166666D01*
X108052380Y-101071428D01*
X108052380Y-100833333D01*
X108100000Y-100690476D01*
X109052380Y-99738095D02*
X109052380Y-100309523D01*
X109052380Y-100023809D02*
X108052380Y-100023809D01*
X108195238Y-100119047D01*
X108290476Y-100214285D01*
X108338095Y-100309523D01*
X161133333Y-91432380D02*
X160800000Y-90956190D01*
X160561904Y-91432380D02*
X160561904Y-90432380D01*
X160942857Y-90432380D01*
X161038095Y-90480000D01*
X161085714Y-90527619D01*
X161133333Y-90622857D01*
X161133333Y-90765714D01*
X161085714Y-90860952D01*
X161038095Y-90908571D01*
X160942857Y-90956190D01*
X160561904Y-90956190D01*
X162085714Y-91432380D02*
X161514285Y-91432380D01*
X161800000Y-91432380D02*
X161800000Y-90432380D01*
X161704761Y-90575238D01*
X161609523Y-90670476D01*
X161514285Y-90718095D01*
X166320833Y-91432380D02*
X165987500Y-90956190D01*
X165749404Y-91432380D02*
X165749404Y-90432380D01*
X166130357Y-90432380D01*
X166225595Y-90480000D01*
X166273214Y-90527619D01*
X166320833Y-90622857D01*
X166320833Y-90765714D01*
X166273214Y-90860952D01*
X166225595Y-90908571D01*
X166130357Y-90956190D01*
X165749404Y-90956190D01*
X166701785Y-90527619D02*
X166749404Y-90480000D01*
X166844642Y-90432380D01*
X167082738Y-90432380D01*
X167177976Y-90480000D01*
X167225595Y-90527619D01*
X167273214Y-90622857D01*
X167273214Y-90718095D01*
X167225595Y-90860952D01*
X166654166Y-91432380D01*
X167273214Y-91432380D01*
X160520833Y-114432380D02*
X160187500Y-113956190D01*
X159949404Y-114432380D02*
X159949404Y-113432380D01*
X160330357Y-113432380D01*
X160425595Y-113480000D01*
X160473214Y-113527619D01*
X160520833Y-113622857D01*
X160520833Y-113765714D01*
X160473214Y-113860952D01*
X160425595Y-113908571D01*
X160330357Y-113956190D01*
X159949404Y-113956190D01*
X161377976Y-113432380D02*
X161187500Y-113432380D01*
X161092261Y-113480000D01*
X161044642Y-113527619D01*
X160949404Y-113670476D01*
X160901785Y-113860952D01*
X160901785Y-114241904D01*
X160949404Y-114337142D01*
X160997023Y-114384761D01*
X161092261Y-114432380D01*
X161282738Y-114432380D01*
X161377976Y-114384761D01*
X161425595Y-114337142D01*
X161473214Y-114241904D01*
X161473214Y-114003809D01*
X161425595Y-113908571D01*
X161377976Y-113860952D01*
X161282738Y-113813333D01*
X161092261Y-113813333D01*
X160997023Y-113860952D01*
X160949404Y-113908571D01*
X160901785Y-114003809D01*
X160054761Y-98133333D02*
X160102380Y-97990476D01*
X160102380Y-97752380D01*
X160054761Y-97657142D01*
X160007142Y-97609523D01*
X159911904Y-97561904D01*
X159816666Y-97561904D01*
X159721428Y-97609523D01*
X159673809Y-97657142D01*
X159626190Y-97752380D01*
X159578571Y-97942857D01*
X159530952Y-98038095D01*
X159483333Y-98085714D01*
X159388095Y-98133333D01*
X159292857Y-98133333D01*
X159197619Y-98085714D01*
X159150000Y-98038095D01*
X159102380Y-97942857D01*
X159102380Y-97704761D01*
X159150000Y-97561904D01*
X159102380Y-97228571D02*
X160102380Y-96990476D01*
X159388095Y-96800000D01*
X160102380Y-96609523D01*
X159102380Y-96371428D01*
X160102380Y-95466666D02*
X160102380Y-96038095D01*
X160102380Y-95752380D02*
X159102380Y-95752380D01*
X159245238Y-95847619D01*
X159340476Y-95942857D01*
X159388095Y-96038095D01*
X146588095Y-90402380D02*
X146588095Y-91211904D01*
X146635714Y-91307142D01*
X146683333Y-91354761D01*
X146778571Y-91402380D01*
X146969047Y-91402380D01*
X147064285Y-91354761D01*
X147111904Y-91307142D01*
X147159523Y-91211904D01*
X147159523Y-90402380D01*
X148159523Y-91402380D02*
X147588095Y-91402380D01*
X147873809Y-91402380D02*
X147873809Y-90402380D01*
X147778571Y-90545238D01*
X147683333Y-90640476D01*
X147588095Y-90688095D01*
X172452380Y-104661904D02*
X173261904Y-104661904D01*
X173357142Y-104614285D01*
X173404761Y-104566666D01*
X173452380Y-104471428D01*
X173452380Y-104280952D01*
X173404761Y-104185714D01*
X173357142Y-104138095D01*
X173261904Y-104090476D01*
X172452380Y-104090476D01*
X172547619Y-103661904D02*
X172500000Y-103614285D01*
X172452380Y-103519047D01*
X172452380Y-103280952D01*
X172500000Y-103185714D01*
X172547619Y-103138095D01*
X172642857Y-103090476D01*
X172738095Y-103090476D01*
X172880952Y-103138095D01*
X173452380Y-103709523D01*
X173452380Y-103090476D01*
X150882380Y-116233333D02*
X151596666Y-116233333D01*
X151739523Y-116280952D01*
X151834761Y-116376190D01*
X151882380Y-116519047D01*
X151882380Y-116614285D01*
X151215714Y-115328571D02*
X151882380Y-115328571D01*
X150834761Y-115566666D02*
X151549047Y-115804761D01*
X151549047Y-115185714D01*
M02*
