M48
; DRILL file {KiCad (5.1.5-0-10_14)} date Friday, 24 April 2020 at 15:56:48
; FORMAT={-:-/ absolute / metric / decimal}
; #@! TF.CreationDate,2020-04-24T15:56:48+02:00
; #@! TF.GenerationSoftware,Kicad,Pcbnew,(5.1.5-0-10_14)
FMAT,2
METRIC
T1C0.400
T2C1.000
T3C1.520
T4C2.200
%
G90
G05
T1
X160.4Y95.8
X165.7Y112.8
X169.7Y112.8
X171.7Y113.1
T2
X152.9Y115.9
X155.44Y115.9
X165.7Y116.1
X168.24Y116.1
X170.78Y116.1
X173.32Y116.1
X175.86Y116.1
X144.02Y115.9
X146.56Y115.9
X149.1Y115.9
X110.1Y98.45
X110.1Y103.45
X139.5Y93.25
X139.5Y108.65
T3
X123.5Y113.8
X128.58Y113.8
T4
X117.6Y113.7
T0
M30
