G04 #@! TF.GenerationSoftware,KiCad,Pcbnew,(5.1.5-0-10_14)*
G04 #@! TF.CreationDate,2020-04-27T10:05:46+02:00*
G04 #@! TF.ProjectId,ESP8266-PowerMonitor,45535038-3236-4362-9d50-6f7765724d6f,rev?*
G04 #@! TF.SameCoordinates,Original*
G04 #@! TF.FileFunction,Legend,Top*
G04 #@! TF.FilePolarity,Positive*
%FSLAX46Y46*%
G04 Gerber Fmt 4.6, Leading zero omitted, Abs format (unit mm)*
G04 Created by KiCad (PCBNEW (5.1.5-0-10_14)) date 2020-04-27 10:05:46*
%MOMM*%
%LPD*%
G04 APERTURE LIST*
%ADD10C,0.120000*%
%ADD11C,0.150000*%
G04 APERTURE END LIST*
D10*
X184320000Y-95280000D02*
X184320000Y-111520000D01*
X184320000Y-111520000D02*
X176700000Y-111520000D01*
X160700000Y-111520000D02*
X160080000Y-111520000D01*
X160080000Y-111520000D02*
X160080000Y-109400000D01*
X160080000Y-97400000D02*
X160080000Y-95280000D01*
X160080000Y-95280000D02*
X160700000Y-95280000D01*
X176700000Y-95280000D02*
X184320000Y-95280000D01*
X176700000Y-95280000D02*
X176700000Y-94670000D01*
X155970000Y-102170000D02*
X157300000Y-102170000D01*
X155970000Y-103500000D02*
X155970000Y-102170000D01*
X155970000Y-104770000D02*
X158630000Y-104770000D01*
X158630000Y-104770000D02*
X158630000Y-112450000D01*
X155970000Y-104770000D02*
X155970000Y-112450000D01*
X155970000Y-112450000D02*
X158630000Y-112450000D01*
X144840000Y-112360000D02*
X146040000Y-112360000D01*
X149360000Y-112360000D02*
X148160000Y-112360000D01*
X149360000Y-108904437D02*
X149360000Y-112360000D01*
X144840000Y-108904437D02*
X144840000Y-112360000D01*
X145904437Y-107840000D02*
X146040000Y-107840000D01*
X148295563Y-107840000D02*
X148160000Y-107840000D01*
X148295563Y-107840000D02*
X149360000Y-108904437D01*
X145904437Y-107840000D02*
X144840000Y-108904437D01*
X148660000Y-107100000D02*
X148660000Y-107600000D01*
X148910000Y-107350000D02*
X148410000Y-107350000D01*
X149110436Y-101710000D02*
X150314564Y-101710000D01*
X149110436Y-99890000D02*
X150314564Y-99890000D01*
X118910000Y-99285436D02*
X118910000Y-100489564D01*
X117090000Y-99285436D02*
X117090000Y-100489564D01*
X157070000Y-117530000D02*
X157070000Y-114870000D01*
X154470000Y-117530000D02*
X157070000Y-117530000D01*
X154470000Y-114870000D02*
X157070000Y-114870000D01*
X154470000Y-117530000D02*
X154470000Y-114870000D01*
X153200000Y-117530000D02*
X151870000Y-117530000D01*
X151870000Y-117530000D02*
X151870000Y-116200000D01*
X176490000Y-117530000D02*
X176490000Y-114870000D01*
X166270000Y-117530000D02*
X176490000Y-117530000D01*
X166270000Y-114870000D02*
X176490000Y-114870000D01*
X166270000Y-117530000D02*
X166270000Y-114870000D01*
X165000000Y-117530000D02*
X163670000Y-117530000D01*
X163670000Y-117530000D02*
X163670000Y-116200000D01*
X131120000Y-116340000D02*
X120960000Y-116340000D01*
X131120000Y-117610000D02*
X131120000Y-109990000D01*
X131120000Y-109990000D02*
X120960000Y-109990000D01*
X120960000Y-109990000D02*
X120960000Y-117610000D01*
X120960000Y-117610000D02*
X131120000Y-117610000D01*
X143075000Y-105300000D02*
X143075000Y-103300000D01*
X145875000Y-105300000D02*
X143075000Y-105300000D01*
X145875000Y-103300000D02*
X145875000Y-105300000D01*
X143075000Y-103300000D02*
X145875000Y-103300000D01*
X107700000Y-90850000D02*
X107700000Y-111050000D01*
X107700000Y-111050000D02*
X141900000Y-111050000D01*
X141900000Y-111050000D02*
X141900000Y-90850000D01*
X141900000Y-90850000D02*
X107700000Y-90850000D01*
X107310000Y-97450000D02*
X107310000Y-99460000D01*
X160697936Y-91890000D02*
X161902064Y-91890000D01*
X160697936Y-93710000D02*
X161902064Y-93710000D01*
X165885436Y-93710000D02*
X167089564Y-93710000D01*
X165885436Y-91890000D02*
X167089564Y-91890000D01*
X159710436Y-115210000D02*
X160914564Y-115210000D01*
X159710436Y-113390000D02*
X160914564Y-113390000D01*
X158830000Y-100030000D02*
X158800000Y-100030000D01*
X152370000Y-100030000D02*
X152400000Y-100030000D01*
X152370000Y-93570000D02*
X152400000Y-93570000D01*
X158800000Y-93570000D02*
X158830000Y-93570000D01*
X156900000Y-100030000D02*
X154300000Y-100030000D01*
X158830000Y-93570000D02*
X158830000Y-100030000D01*
X156900000Y-93570000D02*
X154300000Y-93570000D01*
X152370000Y-93570000D02*
X152370000Y-100030000D01*
X149260000Y-98860000D02*
X149260000Y-97600000D01*
X149260000Y-92040000D02*
X149260000Y-93300000D01*
X145500000Y-98860000D02*
X149260000Y-98860000D01*
X143250000Y-92040000D02*
X149260000Y-92040000D01*
X143190000Y-114870000D02*
X143190000Y-117530000D01*
X148330000Y-114870000D02*
X143190000Y-114870000D01*
X148330000Y-117530000D02*
X143190000Y-117530000D01*
X148330000Y-114870000D02*
X148330000Y-117530000D01*
X149600000Y-114870000D02*
X150930000Y-114870000D01*
X150930000Y-114870000D02*
X150930000Y-116200000D01*
D11*
X172452380Y-104661904D02*
X173261904Y-104661904D01*
X173357142Y-104614285D01*
X173404761Y-104566666D01*
X173452380Y-104471428D01*
X173452380Y-104280952D01*
X173404761Y-104185714D01*
X173357142Y-104138095D01*
X173261904Y-104090476D01*
X172452380Y-104090476D01*
X172547619Y-103661904D02*
X172500000Y-103614285D01*
X172452380Y-103519047D01*
X172452380Y-103280952D01*
X172500000Y-103185714D01*
X172547619Y-103138095D01*
X172642857Y-103090476D01*
X172738095Y-103090476D01*
X172880952Y-103138095D01*
X173452380Y-103709523D01*
X173452380Y-103090476D01*
X156966666Y-100622380D02*
X156966666Y-101336666D01*
X156919047Y-101479523D01*
X156823809Y-101574761D01*
X156680952Y-101622380D01*
X156585714Y-101622380D01*
X157919047Y-100622380D02*
X157442857Y-100622380D01*
X157395238Y-101098571D01*
X157442857Y-101050952D01*
X157538095Y-101003333D01*
X157776190Y-101003333D01*
X157871428Y-101050952D01*
X157919047Y-101098571D01*
X157966666Y-101193809D01*
X157966666Y-101431904D01*
X157919047Y-101527142D01*
X157871428Y-101574761D01*
X157776190Y-101622380D01*
X157538095Y-101622380D01*
X157442857Y-101574761D01*
X157395238Y-101527142D01*
X150657142Y-110266666D02*
X150704761Y-110314285D01*
X150752380Y-110457142D01*
X150752380Y-110552380D01*
X150704761Y-110695238D01*
X150609523Y-110790476D01*
X150514285Y-110838095D01*
X150323809Y-110885714D01*
X150180952Y-110885714D01*
X149990476Y-110838095D01*
X149895238Y-110790476D01*
X149800000Y-110695238D01*
X149752380Y-110552380D01*
X149752380Y-110457142D01*
X149800000Y-110314285D01*
X149847619Y-110266666D01*
X149847619Y-109885714D02*
X149800000Y-109838095D01*
X149752380Y-109742857D01*
X149752380Y-109504761D01*
X149800000Y-109409523D01*
X149847619Y-109361904D01*
X149942857Y-109314285D01*
X150038095Y-109314285D01*
X150180952Y-109361904D01*
X150752380Y-109933333D01*
X150752380Y-109314285D01*
X149545833Y-99337142D02*
X149498214Y-99384761D01*
X149355357Y-99432380D01*
X149260119Y-99432380D01*
X149117261Y-99384761D01*
X149022023Y-99289523D01*
X148974404Y-99194285D01*
X148926785Y-99003809D01*
X148926785Y-98860952D01*
X148974404Y-98670476D01*
X149022023Y-98575238D01*
X149117261Y-98480000D01*
X149260119Y-98432380D01*
X149355357Y-98432380D01*
X149498214Y-98480000D01*
X149545833Y-98527619D01*
X149879166Y-98432380D02*
X150498214Y-98432380D01*
X150164880Y-98813333D01*
X150307738Y-98813333D01*
X150402976Y-98860952D01*
X150450595Y-98908571D01*
X150498214Y-99003809D01*
X150498214Y-99241904D01*
X150450595Y-99337142D01*
X150402976Y-99384761D01*
X150307738Y-99432380D01*
X150022023Y-99432380D01*
X149926785Y-99384761D01*
X149879166Y-99337142D01*
X119748571Y-100220833D02*
X119748571Y-100554166D01*
X120272380Y-100554166D02*
X119272380Y-100554166D01*
X119272380Y-100077976D01*
X120272380Y-99173214D02*
X120272380Y-99744642D01*
X120272380Y-99458928D02*
X119272380Y-99458928D01*
X119415238Y-99554166D01*
X119510476Y-99649404D01*
X119558095Y-99744642D01*
X150322380Y-116533333D02*
X151036666Y-116533333D01*
X151179523Y-116580952D01*
X151274761Y-116676190D01*
X151322380Y-116819047D01*
X151322380Y-116914285D01*
X151322380Y-115533333D02*
X151322380Y-116104761D01*
X151322380Y-115819047D02*
X150322380Y-115819047D01*
X150465238Y-115914285D01*
X150560476Y-116009523D01*
X150608095Y-116104761D01*
X162122380Y-116533333D02*
X162836666Y-116533333D01*
X162979523Y-116580952D01*
X163074761Y-116676190D01*
X163122380Y-116819047D01*
X163122380Y-116914285D01*
X162217619Y-116104761D02*
X162170000Y-116057142D01*
X162122380Y-115961904D01*
X162122380Y-115723809D01*
X162170000Y-115628571D01*
X162217619Y-115580952D01*
X162312857Y-115533333D01*
X162408095Y-115533333D01*
X162550952Y-115580952D01*
X163122380Y-116152380D01*
X163122380Y-115533333D01*
X125706666Y-108172380D02*
X125706666Y-108886666D01*
X125659047Y-109029523D01*
X125563809Y-109124761D01*
X125420952Y-109172380D01*
X125325714Y-109172380D01*
X126087619Y-108172380D02*
X126706666Y-108172380D01*
X126373333Y-108553333D01*
X126516190Y-108553333D01*
X126611428Y-108600952D01*
X126659047Y-108648571D01*
X126706666Y-108743809D01*
X126706666Y-108981904D01*
X126659047Y-109077142D01*
X126611428Y-109124761D01*
X126516190Y-109172380D01*
X126230476Y-109172380D01*
X126135238Y-109124761D01*
X126087619Y-109077142D01*
X143641666Y-101952380D02*
X143641666Y-102666666D01*
X143594047Y-102809523D01*
X143498809Y-102904761D01*
X143355952Y-102952380D01*
X143260714Y-102952380D01*
X144117857Y-102952380D02*
X144117857Y-101952380D01*
X144498809Y-101952380D01*
X144594047Y-102000000D01*
X144641666Y-102047619D01*
X144689285Y-102142857D01*
X144689285Y-102285714D01*
X144641666Y-102380952D01*
X144594047Y-102428571D01*
X144498809Y-102476190D01*
X144117857Y-102476190D01*
X145641666Y-102952380D02*
X145070238Y-102952380D01*
X145355952Y-102952380D02*
X145355952Y-101952380D01*
X145260714Y-102095238D01*
X145165476Y-102190476D01*
X145070238Y-102238095D01*
X109052380Y-102214285D02*
X108052380Y-102214285D01*
X108052380Y-101833333D01*
X108100000Y-101738095D01*
X108147619Y-101690476D01*
X108242857Y-101642857D01*
X108385714Y-101642857D01*
X108480952Y-101690476D01*
X108528571Y-101738095D01*
X108576190Y-101833333D01*
X108576190Y-102214285D01*
X109004761Y-101261904D02*
X109052380Y-101119047D01*
X109052380Y-100880952D01*
X109004761Y-100785714D01*
X108957142Y-100738095D01*
X108861904Y-100690476D01*
X108766666Y-100690476D01*
X108671428Y-100738095D01*
X108623809Y-100785714D01*
X108576190Y-100880952D01*
X108528571Y-101071428D01*
X108480952Y-101166666D01*
X108433333Y-101214285D01*
X108338095Y-101261904D01*
X108242857Y-101261904D01*
X108147619Y-101214285D01*
X108100000Y-101166666D01*
X108052380Y-101071428D01*
X108052380Y-100833333D01*
X108100000Y-100690476D01*
X109052380Y-99738095D02*
X109052380Y-100309523D01*
X109052380Y-100023809D02*
X108052380Y-100023809D01*
X108195238Y-100119047D01*
X108290476Y-100214285D01*
X108338095Y-100309523D01*
X161133333Y-91432380D02*
X160800000Y-90956190D01*
X160561904Y-91432380D02*
X160561904Y-90432380D01*
X160942857Y-90432380D01*
X161038095Y-90480000D01*
X161085714Y-90527619D01*
X161133333Y-90622857D01*
X161133333Y-90765714D01*
X161085714Y-90860952D01*
X161038095Y-90908571D01*
X160942857Y-90956190D01*
X160561904Y-90956190D01*
X162085714Y-91432380D02*
X161514285Y-91432380D01*
X161800000Y-91432380D02*
X161800000Y-90432380D01*
X161704761Y-90575238D01*
X161609523Y-90670476D01*
X161514285Y-90718095D01*
X166320833Y-91432380D02*
X165987500Y-90956190D01*
X165749404Y-91432380D02*
X165749404Y-90432380D01*
X166130357Y-90432380D01*
X166225595Y-90480000D01*
X166273214Y-90527619D01*
X166320833Y-90622857D01*
X166320833Y-90765714D01*
X166273214Y-90860952D01*
X166225595Y-90908571D01*
X166130357Y-90956190D01*
X165749404Y-90956190D01*
X166701785Y-90527619D02*
X166749404Y-90480000D01*
X166844642Y-90432380D01*
X167082738Y-90432380D01*
X167177976Y-90480000D01*
X167225595Y-90527619D01*
X167273214Y-90622857D01*
X167273214Y-90718095D01*
X167225595Y-90860952D01*
X166654166Y-91432380D01*
X167273214Y-91432380D01*
X160145833Y-112932380D02*
X159812500Y-112456190D01*
X159574404Y-112932380D02*
X159574404Y-111932380D01*
X159955357Y-111932380D01*
X160050595Y-111980000D01*
X160098214Y-112027619D01*
X160145833Y-112122857D01*
X160145833Y-112265714D01*
X160098214Y-112360952D01*
X160050595Y-112408571D01*
X159955357Y-112456190D01*
X159574404Y-112456190D01*
X161002976Y-111932380D02*
X160812500Y-111932380D01*
X160717261Y-111980000D01*
X160669642Y-112027619D01*
X160574404Y-112170476D01*
X160526785Y-112360952D01*
X160526785Y-112741904D01*
X160574404Y-112837142D01*
X160622023Y-112884761D01*
X160717261Y-112932380D01*
X160907738Y-112932380D01*
X161002976Y-112884761D01*
X161050595Y-112837142D01*
X161098214Y-112741904D01*
X161098214Y-112503809D01*
X161050595Y-112408571D01*
X161002976Y-112360952D01*
X160907738Y-112313333D01*
X160717261Y-112313333D01*
X160622023Y-112360952D01*
X160574404Y-112408571D01*
X160526785Y-112503809D01*
X160054761Y-98133333D02*
X160102380Y-97990476D01*
X160102380Y-97752380D01*
X160054761Y-97657142D01*
X160007142Y-97609523D01*
X159911904Y-97561904D01*
X159816666Y-97561904D01*
X159721428Y-97609523D01*
X159673809Y-97657142D01*
X159626190Y-97752380D01*
X159578571Y-97942857D01*
X159530952Y-98038095D01*
X159483333Y-98085714D01*
X159388095Y-98133333D01*
X159292857Y-98133333D01*
X159197619Y-98085714D01*
X159150000Y-98038095D01*
X159102380Y-97942857D01*
X159102380Y-97704761D01*
X159150000Y-97561904D01*
X159102380Y-97228571D02*
X160102380Y-96990476D01*
X159388095Y-96800000D01*
X160102380Y-96609523D01*
X159102380Y-96371428D01*
X160102380Y-95466666D02*
X160102380Y-96038095D01*
X160102380Y-95752380D02*
X159102380Y-95752380D01*
X159245238Y-95847619D01*
X159340476Y-95942857D01*
X159388095Y-96038095D01*
X146588095Y-90402380D02*
X146588095Y-91211904D01*
X146635714Y-91307142D01*
X146683333Y-91354761D01*
X146778571Y-91402380D01*
X146969047Y-91402380D01*
X147064285Y-91354761D01*
X147111904Y-91307142D01*
X147159523Y-91211904D01*
X147159523Y-90402380D01*
X148159523Y-91402380D02*
X147588095Y-91402380D01*
X147873809Y-91402380D02*
X147873809Y-90402380D01*
X147778571Y-90545238D01*
X147683333Y-90640476D01*
X147588095Y-90688095D01*
X151382380Y-116533333D02*
X152096666Y-116533333D01*
X152239523Y-116580952D01*
X152334761Y-116676190D01*
X152382380Y-116819047D01*
X152382380Y-116914285D01*
X151715714Y-115628571D02*
X152382380Y-115628571D01*
X151334761Y-115866666D02*
X152049047Y-116104761D01*
X152049047Y-115485714D01*
M02*
