G04 #@! TF.GenerationSoftware,KiCad,Pcbnew,(5.1.5-0-10_14)*
G04 #@! TF.CreationDate,2020-04-24T15:56:46+02:00*
G04 #@! TF.ProjectId,ESP8266-PowerMonitor,45535038-3236-4362-9d50-6f7765724d6f,rev?*
G04 #@! TF.SameCoordinates,Original*
G04 #@! TF.FileFunction,Other,User*
%FSLAX46Y46*%
G04 Gerber Fmt 4.6, Leading zero omitted, Abs format (unit mm)*
G04 Created by KiCad (PCBNEW (5.1.5-0-10_14)) date 2020-04-24 15:56:46*
%MOMM*%
%LPD*%
G04 APERTURE LIST*
%ADD10C,0.050000*%
G04 APERTURE END LIST*
D10*
X120050000Y-113700000D02*
G75*
G03X120050000Y-113700000I-2450000J0D01*
G01*
X153900000Y-105600000D02*
X153900000Y-106950000D01*
X153900000Y-106950000D02*
X154850000Y-106950000D01*
X154850000Y-106950000D02*
X154850000Y-109050000D01*
X154850000Y-109050000D02*
X153900000Y-109050000D01*
X153900000Y-109050000D02*
X153900000Y-110400000D01*
X150250000Y-110400000D02*
X153900000Y-110400000D01*
X150250000Y-105600000D02*
X153900000Y-105600000D01*
X149100000Y-109250000D02*
X150250000Y-110400000D01*
X149100000Y-106750000D02*
X150250000Y-105600000D01*
X149100000Y-106750000D02*
X149100000Y-106950000D01*
X149100000Y-109050000D02*
X149100000Y-109250000D01*
X149100000Y-106950000D02*
X148150000Y-106950000D01*
X148150000Y-106950000D02*
X148150000Y-109050000D01*
X148150000Y-109050000D02*
X149100000Y-109050000D01*
X152162500Y-101920000D02*
X147262500Y-101920000D01*
X152162500Y-99680000D02*
X152162500Y-101920000D01*
X147262500Y-99680000D02*
X152162500Y-99680000D01*
X147262500Y-101920000D02*
X147262500Y-99680000D01*
X116880000Y-97437500D02*
X119120000Y-97437500D01*
X119120000Y-97437500D02*
X119120000Y-102337500D01*
X119120000Y-102337500D02*
X116880000Y-102337500D01*
X116880000Y-102337500D02*
X116880000Y-97437500D01*
X151100000Y-117700000D02*
X157250000Y-117700000D01*
X157250000Y-117700000D02*
X157250000Y-114100000D01*
X157250000Y-114100000D02*
X151100000Y-114100000D01*
X151100000Y-114100000D02*
X151100000Y-117700000D01*
X163900000Y-117900000D02*
X177650000Y-117900000D01*
X177650000Y-117900000D02*
X177650000Y-114300000D01*
X177650000Y-114300000D02*
X163900000Y-114300000D01*
X163900000Y-114300000D02*
X163900000Y-117900000D01*
X120790000Y-109800000D02*
X131290000Y-109800000D01*
X120790000Y-109800000D02*
X120790000Y-117800000D01*
X131290000Y-117800000D02*
X131290000Y-109800000D01*
X131290000Y-117800000D02*
X120790000Y-117800000D01*
X142825000Y-103050000D02*
X146125000Y-103050000D01*
X142825000Y-103050000D02*
X142825000Y-105550000D01*
X146125000Y-105550000D02*
X146125000Y-103050000D01*
X146125000Y-105550000D02*
X142825000Y-105550000D01*
X107550000Y-111200000D02*
X142050000Y-111200000D01*
X142050000Y-111200000D02*
X142050000Y-90700000D01*
X142050000Y-90700000D02*
X107550000Y-90700000D01*
X107550000Y-90700000D02*
X107550000Y-111200000D01*
X158850000Y-93920000D02*
X158850000Y-91680000D01*
X158850000Y-91680000D02*
X163750000Y-91680000D01*
X163750000Y-91680000D02*
X163750000Y-93920000D01*
X163750000Y-93920000D02*
X158850000Y-93920000D01*
X168937500Y-93920000D02*
X164037500Y-93920000D01*
X168937500Y-91680000D02*
X168937500Y-93920000D01*
X164037500Y-91680000D02*
X168937500Y-91680000D01*
X164037500Y-93920000D02*
X164037500Y-91680000D01*
X163137500Y-116920000D02*
X158237500Y-116920000D01*
X163137500Y-114680000D02*
X163137500Y-116920000D01*
X158237500Y-114680000D02*
X163137500Y-114680000D01*
X158237500Y-116920000D02*
X158237500Y-114680000D01*
X152350000Y-101800000D02*
X158850000Y-101800000D01*
X158850000Y-91800000D02*
X152350000Y-91800000D01*
X152350000Y-91800000D02*
X152350000Y-101800000D01*
X158850000Y-91800000D02*
X158850000Y-101800000D01*
X151750000Y-91850000D02*
X142950000Y-91850000D01*
X151750000Y-99050000D02*
X151750000Y-91850000D01*
X142950000Y-99050000D02*
X151750000Y-99050000D01*
X142950000Y-91850000D02*
X142950000Y-99050000D01*
X184400000Y-94350000D02*
X184400000Y-112450000D01*
X184400000Y-112450000D02*
X159100000Y-112450000D01*
X159100000Y-112450000D02*
X159100000Y-94350000D01*
X159100000Y-94350000D02*
X184400000Y-94350000D01*
X150900000Y-114100000D02*
X142250000Y-114100000D01*
X142250000Y-114100000D02*
X142250000Y-117700000D01*
X142250000Y-117700000D02*
X150900000Y-117700000D01*
X150900000Y-117700000D02*
X150900000Y-114100000D01*
M02*
