M48
METRIC,TZ
T1C1.001
T2C1.016
%
G90
G05
T1
X23876Y-39116
X23876Y-49276
X23876Y-81116
X23876Y-91276
X29718Y-38608
X29718Y-80608
X36830Y-41656
X36830Y-51816
X36830Y-83656
X36830Y-93816
X39878Y-38608
X39878Y-80608
X55876Y-39116
X55876Y-49276
X55876Y-81116
X55876Y-91276
X61718Y-38608
X61718Y-80608
X68830Y-41656
X68830Y-51816
X68830Y-83656
X68830Y-93816
X71878Y-38608
X71878Y-80608
X87876Y-39116
X87876Y-49276
X87876Y-81116
X87876Y-91276
X93718Y-38608
X93718Y-80608
X100830Y-41656
X100830Y-51816
X100830Y-83656
X100830Y-93816
X103878Y-38608
X103878Y-80608
T2
X16256Y-16256
X16256Y-18796
X16256Y-21336
X16256Y-23876
X16256Y-26416
X16256Y-28956
X16256Y-31496
X16256Y-34036
X16256Y-36576
X16256Y-39116
X16256Y-41656
X16256Y-44196
X16256Y-46736
X16256Y-49276
X16256Y-51816
X16256Y-58256
X16256Y-60796
X16256Y-63336
X16256Y-65876
X16256Y-68416
X16256Y-70956
X16256Y-73496
X16256Y-76036
X16256Y-78576
X16256Y-81116
X16256Y-83656
X16256Y-86196
X16256Y-88736
X16256Y-91276
X16256Y-93816
X20574Y-46736
X20574Y-49276
X20574Y-51816
X20574Y-88736
X20574Y-91276
X20574Y-93816
X33274Y-46736
X33274Y-49276
X33274Y-51816
X33274Y-88736
X33274Y-91276
X33274Y-93816
X39878Y-30226
X39878Y-32766
X39878Y-72226
X39878Y-74766
X40132Y-44196
X40132Y-46736
X40132Y-49276
X40132Y-86196
X40132Y-88736
X40132Y-91276
X44196Y-16256
X44196Y-18796
X44196Y-21336
X44196Y-23876
X44196Y-26416
X44196Y-28956
X44196Y-31496
X44196Y-34036
X44196Y-36576
X44196Y-39116
X44196Y-41656
X44196Y-44196
X44196Y-46736
X44196Y-49276
X44196Y-51816
X44196Y-58256
X44196Y-60796
X44196Y-63336
X44196Y-65876
X44196Y-68416
X44196Y-70956
X44196Y-73496
X44196Y-76036
X44196Y-78576
X44196Y-81116
X44196Y-83656
X44196Y-86196
X44196Y-88736
X44196Y-91276
X44196Y-93816
X48256Y-16256
X48256Y-18796
X48256Y-21336
X48256Y-23876
X48256Y-26416
X48256Y-28956
X48256Y-31496
X48256Y-34036
X48256Y-36576
X48256Y-39116
X48256Y-41656
X48256Y-44196
X48256Y-46736
X48256Y-49276
X48256Y-51816
X48256Y-58256
X48256Y-60796
X48256Y-63336
X48256Y-65876
X48256Y-68416
X48256Y-70956
X48256Y-73496
X48256Y-76036
X48256Y-78576
X48256Y-81116
X48256Y-83656
X48256Y-86196
X48256Y-88736
X48256Y-91276
X48256Y-93816
X52574Y-46736
X52574Y-49276
X52574Y-51816
X52574Y-88736
X52574Y-91276
X52574Y-93816
X65274Y-46736
X65274Y-49276
X65274Y-51816
X65274Y-88736
X65274Y-91276
X65274Y-93816
X71878Y-30226
X71878Y-32766
X71878Y-72226
X71878Y-74766
X72132Y-44196
X72132Y-46736
X72132Y-49276
X72132Y-86196
X72132Y-88736
X72132Y-91276
X76196Y-16256
X76196Y-18796
X76196Y-21336
X76196Y-23876
X76196Y-26416
X76196Y-28956
X76196Y-31496
X76196Y-34036
X76196Y-36576
X76196Y-39116
X76196Y-41656
X76196Y-44196
X76196Y-46736
X76196Y-49276
X76196Y-51816
X76196Y-58256
X76196Y-60796
X76196Y-63336
X76196Y-65876
X76196Y-68416
X76196Y-70956
X76196Y-73496
X76196Y-76036
X76196Y-78576
X76196Y-81116
X76196Y-83656
X76196Y-86196
X76196Y-88736
X76196Y-91276
X76196Y-93816
X80256Y-16256
X80256Y-18796
X80256Y-21336
X80256Y-23876
X80256Y-26416
X80256Y-28956
X80256Y-31496
X80256Y-34036
X80256Y-36576
X80256Y-39116
X80256Y-41656
X80256Y-44196
X80256Y-46736
X80256Y-49276
X80256Y-51816
X80256Y-58256
X80256Y-60796
X80256Y-63336
X80256Y-65876
X80256Y-68416
X80256Y-70956
X80256Y-73496
X80256Y-76036
X80256Y-78576
X80256Y-81116
X80256Y-83656
X80256Y-86196
X80256Y-88736
X80256Y-91276
X80256Y-93816
X84574Y-46736
X84574Y-49276
X84574Y-51816
X84574Y-88736
X84574Y-91276
X84574Y-93816
X97274Y-46736
X97274Y-49276
X97274Y-51816
X97274Y-88736
X97274Y-91276
X97274Y-93816
X103878Y-30226
X103878Y-32766
X103878Y-72226
X103878Y-74766
X104132Y-44196
X104132Y-46736
X104132Y-49276
X104132Y-86196
X104132Y-88736
X104132Y-91276
X108196Y-16256
X108196Y-18796
X108196Y-21336
X108196Y-23876
X108196Y-26416
X108196Y-28956
X108196Y-31496
X108196Y-34036
X108196Y-36576
X108196Y-39116
X108196Y-41656
X108196Y-44196
X108196Y-46736
X108196Y-49276
X108196Y-51816
X108196Y-58256
X108196Y-60796
X108196Y-63336
X108196Y-65876
X108196Y-68416
X108196Y-70956
X108196Y-73496
X108196Y-76036
X108196Y-78576
X108196Y-81116
X108196Y-83656
X108196Y-86196
X108196Y-88736
X108196Y-91276
X108196Y-93816
T0
M30
